%TF.GenerationSoftware,Altium Limited,Altium Designer,24.9.1 (31)*%
G04 Layer_Color=255*
%FSLAX45Y45*%
%MOMM*%
%TF.SameCoordinates,27D3D336-BC1F-43B1-B9D8-2BE266924E3D*%
%TF.FilePolarity,Positive*%
%TF.FileFunction,Pads,Bot*%
%TF.Part,Single*%
G01*
G75*
%TA.AperFunction,ComponentPad*%
%ADD46O,4.06400X2.54000*%
%ADD47O,2.54000X4.06400*%
%ADD48C,1.80000*%
%ADD49O,2.00000X2.20000*%
%ADD50O,1.45000X2.00000*%
%ADD51O,1.15000X1.80000*%
%ADD52C,0.80000*%
%ADD53R,1.30000X1.30000*%
%ADD54C,1.30000*%
%ADD55C,1.50000*%
%ADD56R,1.50000X1.50000*%
%ADD57C,1.65100*%
%ADD58R,1.65100X1.65100*%
%ADD59O,2.00000X1.50000*%
%ADD60C,2.20000*%
G04:AMPARAMS|DCode=61|XSize=2.2mm|YSize=2.2mm|CornerRadius=0.55mm|HoleSize=0mm|Usage=FLASHONLY|Rotation=90.000|XOffset=0mm|YOffset=0mm|HoleType=Round|Shape=RoundedRectangle|*
%AMROUNDEDRECTD61*
21,1,2.20000,1.10000,0,0,90.0*
21,1,1.10000,2.20000,0,0,90.0*
1,1,1.10000,0.55000,0.55000*
1,1,1.10000,0.55000,-0.55000*
1,1,1.10000,-0.55000,-0.55000*
1,1,1.10000,-0.55000,0.55000*
%
%ADD61ROUNDEDRECTD61*%
%TA.AperFunction,ViaPad*%
%ADD62C,1.52400*%
D46*
X988060Y5654040D02*
D03*
D47*
X607060Y6162040D02*
D03*
X1242060D02*
D03*
D48*
X7457440Y4683615D02*
D03*
Y5143615D02*
D03*
X8607440Y1328996D02*
D03*
X9115440Y1100396D02*
D03*
X7457440Y2679721D02*
D03*
Y2219721D02*
D03*
Y3912801D02*
D03*
Y3452801D02*
D03*
Y6374429D02*
D03*
Y5914429D02*
D03*
D49*
X8607440Y4683615D02*
D03*
X9307440D02*
D03*
Y2219721D02*
D03*
X8607440D02*
D03*
X9307440Y3452801D02*
D03*
X8607440D02*
D03*
X9307440Y5914429D02*
D03*
X8607440D02*
D03*
D50*
X253852Y541760D02*
D03*
X998852D02*
D03*
D51*
X238852Y161760D02*
D03*
X1013852D02*
D03*
D52*
X376352Y436761D02*
D03*
X876352D02*
D03*
D53*
X6054139Y946343D02*
D03*
X6050940Y1412240D02*
D03*
D54*
X6254139Y946343D02*
D03*
X6454139D02*
D03*
X6250940Y1412240D02*
D03*
X6450940D02*
D03*
D55*
X2288540Y3482340D02*
D03*
Y3228340D02*
D03*
Y2974340D02*
D03*
D56*
Y2720340D02*
D03*
D57*
X1678940Y4373880D02*
D03*
Y4119880D02*
D03*
Y3865880D02*
D03*
Y3611880D02*
D03*
Y3357880D02*
D03*
Y3103880D02*
D03*
Y2849880D02*
D03*
D58*
Y2595880D02*
D03*
D59*
X6556980Y437459D02*
D03*
X6302980D02*
D03*
X6048980D02*
D03*
D60*
X9667602Y1308995D02*
D03*
Y2602988D02*
D03*
X9670641Y6295429D02*
D03*
Y5064615D02*
D03*
X9667602Y3833801D02*
D03*
D61*
Y927995D02*
D03*
Y2221988D02*
D03*
X9670641Y5914429D02*
D03*
Y4683615D02*
D03*
X9667602Y3452801D02*
D03*
D62*
X7452360Y1038860D02*
D03*
%TF.MD5,4b62129cfc5966560b1ee318c0faa061*%
M02*
