%TF.GenerationSoftware,Altium Limited,Altium Designer,24.9.1 (31)*%
G04 Layer_Physical_Order=2*
G04 Layer_Color=16711680*
%FSLAX45Y45*%
%MOMM*%
%TF.SameCoordinates,27D3D336-BC1F-43B1-B9D8-2BE266924E3D*%
%TF.FilePolarity,Positive*%
%TF.FileFunction,Copper,L2,Bot,Signal*%
%TF.Part,Single*%
G01*
G75*
%TA.AperFunction,Conductor*%
%ADD39C,0.63500*%
%ADD40C,0.76200*%
%ADD41C,1.27000*%
%ADD42C,0.25400*%
%ADD43C,0.50800*%
%ADD45C,2.03200*%
%TA.AperFunction,ComponentPad*%
%ADD46O,4.06400X2.54000*%
%ADD47O,2.54000X4.06400*%
%ADD48C,1.80000*%
%ADD49O,2.00000X2.20000*%
%ADD50O,1.45000X2.00000*%
%ADD51O,1.15000X1.80000*%
%ADD52C,0.80000*%
%ADD53R,1.30000X1.30000*%
%ADD54C,1.30000*%
%ADD55C,1.50000*%
%ADD56R,1.50000X1.50000*%
%ADD57C,1.65100*%
%ADD58R,1.65100X1.65100*%
%ADD59O,2.00000X1.50000*%
%ADD60C,2.20000*%
G04:AMPARAMS|DCode=61|XSize=2.2mm|YSize=2.2mm|CornerRadius=0.55mm|HoleSize=0mm|Usage=FLASHONLY|Rotation=90.000|XOffset=0mm|YOffset=0mm|HoleType=Round|Shape=RoundedRectangle|*
%AMROUNDEDRECTD61*
21,1,2.20000,1.10000,0,0,90.0*
21,1,1.10000,2.20000,0,0,90.0*
1,1,1.10000,0.55000,0.55000*
1,1,1.10000,0.55000,-0.55000*
1,1,1.10000,-0.55000,-0.55000*
1,1,1.10000,-0.55000,0.55000*
%
%ADD61ROUNDEDRECTD61*%
%TA.AperFunction,ViaPad*%
%ADD62C,1.52400*%
%ADD63C,0.50800*%
%ADD64C,0.60000*%
G36*
X9588058Y5811652D02*
X9577310Y5819115D01*
X9565540Y5825792D01*
X9552748Y5831683D01*
X9538935Y5836789D01*
X9524100Y5841109D01*
X9508242Y5844644D01*
X9491363Y5847394D01*
X9473325Y5848933D01*
X9436607Y5846162D01*
X9420196Y5843480D01*
X9405449Y5840202D01*
X9392365Y5836329D01*
X9380945Y5831860D01*
X9371188Y5826795D01*
X9363096Y5821134D01*
Y6007723D01*
X9371188Y6002062D01*
X9380945Y5996997D01*
X9392365Y5992528D01*
X9405449Y5988655D01*
X9420196Y5985377D01*
X9436607Y5982696D01*
X9469431Y5979592D01*
X9491363Y5981464D01*
X9508242Y5984213D01*
X9524100Y5987748D01*
X9538935Y5992068D01*
X9552748Y5997174D01*
X9565540Y6003065D01*
X9577310Y6009742D01*
X9588058Y6017205D01*
Y5811652D01*
D02*
G37*
G36*
Y4580839D02*
X9577310Y4588301D01*
X9565540Y4594978D01*
X9552748Y4600870D01*
X9538935Y4605976D01*
X9524100Y4610296D01*
X9508242Y4613831D01*
X9491363Y4616580D01*
X9473325Y4618119D01*
X9436607Y4615348D01*
X9420196Y4612666D01*
X9405449Y4609389D01*
X9392365Y4605516D01*
X9380945Y4601046D01*
X9371188Y4595981D01*
X9363096Y4590320D01*
Y4776910D01*
X9371188Y4771249D01*
X9380945Y4766184D01*
X9392365Y4761714D01*
X9405449Y4757841D01*
X9420196Y4754564D01*
X9436607Y4751882D01*
X9469431Y4748778D01*
X9491363Y4750650D01*
X9508242Y4753399D01*
X9524100Y4756934D01*
X9538935Y4761254D01*
X9552748Y4766360D01*
X9565540Y4772252D01*
X9577310Y4778929D01*
X9588058Y4786391D01*
Y4580839D01*
D02*
G37*
G36*
X9585018Y3350025D02*
X9574270Y3357488D01*
X9562501Y3364164D01*
X9549709Y3370056D01*
X9535895Y3375162D01*
X9521060Y3379482D01*
X9505202Y3383017D01*
X9488323Y3385766D01*
X9471712Y3387184D01*
X9436607Y3384534D01*
X9420196Y3381853D01*
X9405449Y3378575D01*
X9392365Y3374702D01*
X9380945Y3370233D01*
X9371188Y3365168D01*
X9363096Y3359507D01*
Y3546096D01*
X9371188Y3540435D01*
X9380945Y3535370D01*
X9392365Y3530901D01*
X9405449Y3527027D01*
X9420196Y3523750D01*
X9436607Y3521068D01*
X9467989Y3518101D01*
X9488323Y3519836D01*
X9505202Y3522586D01*
X9521060Y3526120D01*
X9535895Y3530441D01*
X9549709Y3535547D01*
X9562501Y3541438D01*
X9574270Y3548115D01*
X9585018Y3555578D01*
Y3350025D01*
D02*
G37*
G36*
Y2119211D02*
X9574805Y2126243D01*
X9563458Y2132535D01*
X9550977Y2138086D01*
X9537361Y2142897D01*
X9522612Y2146969D01*
X9506728Y2150299D01*
X9489710Y2152890D01*
X9473071Y2154206D01*
X9436607Y2151454D01*
X9420196Y2148772D01*
X9405449Y2145495D01*
X9392365Y2141621D01*
X9380945Y2137152D01*
X9371188Y2132087D01*
X9363096Y2126426D01*
Y2313015D01*
X9371188Y2307355D01*
X9380945Y2302289D01*
X9392365Y2297820D01*
X9405449Y2293947D01*
X9420196Y2290670D01*
X9436607Y2287988D01*
X9466915Y2285122D01*
X9486936Y2286960D01*
X9503677Y2289868D01*
X9519508Y2293607D01*
X9534430Y2298176D01*
X9548441Y2303577D01*
X9561543Y2309808D01*
X9573735Y2316871D01*
X9585018Y2324764D01*
Y2119211D01*
D02*
G37*
G36*
X6220460Y6639560D02*
Y6621780D01*
X6219614Y6416040D01*
X6280161D01*
X6280864Y6413898D01*
X6271666Y6401198D01*
X6219520D01*
X6211592Y6399621D01*
X6204870Y6395130D01*
X6200379Y6388408D01*
X6198802Y6380480D01*
Y5839460D01*
X6200379Y5831532D01*
X6204870Y5824810D01*
X6211592Y5820319D01*
X6219520Y5818742D01*
X6220459D01*
X6220460Y5187078D01*
X6219520D01*
X6211592Y5185501D01*
X6204870Y5181010D01*
X6200379Y5174288D01*
X6198802Y5166360D01*
Y4612640D01*
X6200379Y4604712D01*
X6204870Y4597990D01*
X6211592Y4593499D01*
X6219520Y4591922D01*
X6220460D01*
Y3960258D01*
X6219520D01*
X6211592Y3958681D01*
X6204870Y3954190D01*
X6200379Y3947468D01*
X6198802Y3939540D01*
Y3385820D01*
X6200379Y3377892D01*
X6204870Y3371170D01*
X6211592Y3366679D01*
X6219520Y3365102D01*
X6220460D01*
X6220460Y2733438D01*
X6219520D01*
X6211592Y2731861D01*
X6204870Y2727370D01*
X6200379Y2720648D01*
X6198802Y2712720D01*
Y2159000D01*
X6200379Y2151072D01*
X6204870Y2144350D01*
X6211592Y2139859D01*
X6219520Y2138282D01*
X6220460D01*
Y1638300D01*
X6310017Y1548743D01*
X6890330Y1552062D01*
X6901179Y1546860D01*
X6901180D01*
X6908800Y1537351D01*
Y0D01*
X0D01*
Y6650000D01*
X6215004D01*
X6220460Y6639560D01*
D02*
G37*
%LPC*%
G36*
X619760Y6364664D02*
Y6174740D01*
X735156D01*
Y6238240D01*
X730791Y6271394D01*
X717994Y6302288D01*
X697637Y6328817D01*
X671108Y6349174D01*
X640214Y6361971D01*
X619760Y6364664D01*
D02*
G37*
G36*
X594360D02*
X573906Y6361971D01*
X543012Y6349174D01*
X516483Y6328817D01*
X496126Y6302288D01*
X483329Y6271394D01*
X478964Y6238240D01*
Y6174740D01*
X594360D01*
Y6364664D01*
D02*
G37*
G36*
X735156Y6149340D02*
X619760D01*
Y5959416D01*
X640214Y5962109D01*
X671108Y5974906D01*
X697637Y5995263D01*
X717994Y6021792D01*
X730791Y6052686D01*
X735156Y6085840D01*
Y6149340D01*
D02*
G37*
G36*
X594360D02*
X478964D01*
Y6085840D01*
X483329Y6052686D01*
X496126Y6021792D01*
X516483Y5995263D01*
X543012Y5974906D01*
X573906Y5962109D01*
X594360Y5959416D01*
Y6149340D01*
D02*
G37*
G36*
X1242060Y6386273D02*
X1213180Y6383428D01*
X1185410Y6375005D01*
X1159817Y6361325D01*
X1137385Y6342915D01*
X1118975Y6320483D01*
X1105295Y6294890D01*
X1096872Y6267120D01*
X1094027Y6238240D01*
Y6085840D01*
X1096872Y6056960D01*
X1105295Y6029190D01*
X1118975Y6003597D01*
X1137385Y5981165D01*
X1159817Y5962755D01*
X1185410Y5949075D01*
X1213180Y5940652D01*
X1242060Y5937807D01*
X1270940Y5940652D01*
X1298710Y5949075D01*
X1324303Y5962755D01*
X1346735Y5981165D01*
X1365145Y6003597D01*
X1378825Y6029190D01*
X1387248Y6056960D01*
X1390093Y6085840D01*
Y6238240D01*
X1387248Y6267120D01*
X1378825Y6294890D01*
X1365145Y6320483D01*
X1346735Y6342915D01*
X1324303Y6361325D01*
X1298710Y6375005D01*
X1270940Y6383428D01*
X1242060Y6386273D01*
D02*
G37*
G36*
X1064260Y5782136D02*
X1000760D01*
Y5666740D01*
X1190684D01*
X1187991Y5687194D01*
X1175194Y5718088D01*
X1154837Y5744617D01*
X1128308Y5764974D01*
X1097414Y5777771D01*
X1064260Y5782136D01*
D02*
G37*
G36*
X975360D02*
X911860D01*
X878706Y5777771D01*
X847812Y5764974D01*
X821283Y5744617D01*
X800926Y5718088D01*
X788129Y5687194D01*
X785436Y5666740D01*
X975360D01*
Y5782136D01*
D02*
G37*
G36*
X1190684Y5641340D02*
X1000760D01*
Y5525944D01*
X1064260D01*
X1097414Y5530309D01*
X1128308Y5543106D01*
X1154837Y5563463D01*
X1175194Y5589992D01*
X1187991Y5620886D01*
X1190684Y5641340D01*
D02*
G37*
G36*
X975360D02*
X785436D01*
X788129Y5620886D01*
X800926Y5589992D01*
X821283Y5563463D01*
X847812Y5543106D01*
X878706Y5530309D01*
X911860Y5525944D01*
X975360D01*
Y5641340D01*
D02*
G37*
G36*
X5364100Y6370320D02*
X4364100D01*
Y5410320D01*
X5364100D01*
Y6370320D01*
D02*
G37*
G36*
X2996878Y6001770D02*
X2976562Y5997729D01*
X2959338Y5986220D01*
X2947830Y5968997D01*
X2943788Y5948680D01*
Y4958403D01*
X2943788Y4958402D01*
X2947830Y4938085D01*
X2959338Y4920861D01*
X3117139Y4763060D01*
X3117140Y4763060D01*
X3134363Y4751551D01*
X3154680Y4747510D01*
X3154681Y4747510D01*
X5402579D01*
X5402580Y4747510D01*
X5422897Y4751551D01*
X5440120Y4763060D01*
X5668720Y4991659D01*
X5668720Y4991660D01*
X5680229Y5008883D01*
X5684270Y5029200D01*
Y5539740D01*
X5680229Y5560057D01*
X5668720Y5577280D01*
X5651497Y5588789D01*
X5631180Y5592830D01*
X5610863Y5588789D01*
X5593640Y5577280D01*
X5582131Y5560057D01*
X5578090Y5539740D01*
Y5051191D01*
X5380589Y4853690D01*
X3176671D01*
X3049968Y4980392D01*
Y5948680D01*
X3045927Y5968997D01*
X3034419Y5986220D01*
X3017195Y5997729D01*
X2996878Y6001770D01*
D02*
G37*
G36*
X1692483Y4476750D02*
X1665397D01*
X1639234Y4469740D01*
X1615776Y4456197D01*
X1596623Y4437044D01*
X1583080Y4413586D01*
X1576070Y4387423D01*
Y4360337D01*
X1583080Y4334174D01*
X1596623Y4310716D01*
X1615776Y4291563D01*
X1639234Y4278020D01*
X1665397Y4271010D01*
X1692483D01*
X1718646Y4278020D01*
X1742104Y4291563D01*
X1761257Y4310716D01*
X1774800Y4334174D01*
X1781810Y4360337D01*
Y4387423D01*
X1774800Y4413586D01*
X1761257Y4437044D01*
X1742104Y4456197D01*
X1718646Y4469740D01*
X1692483Y4476750D01*
D02*
G37*
G36*
X3101340Y4060832D02*
Y4051300D01*
X3110872D01*
X3110173Y4052988D01*
X3103028Y4060133D01*
X3101340Y4060832D01*
D02*
G37*
G36*
X3075940D02*
X3074252Y4060133D01*
X3067107Y4052988D01*
X3066408Y4051300D01*
X3075940D01*
Y4060832D01*
D02*
G37*
G36*
X5815534Y5902960D02*
X5797346D01*
X5780542Y5895999D01*
X5767681Y5883138D01*
X5760720Y5866334D01*
Y5848146D01*
X5767681Y5831342D01*
X5772371Y5826651D01*
X5772438Y5826493D01*
X5772442Y5826480D01*
X5772583Y5825862D01*
X5772702Y5825129D01*
X5772773Y5824276D01*
Y4837405D01*
X5284495Y4349127D01*
X3638749D01*
X3625865Y4346564D01*
X3614942Y4339266D01*
X3407193Y4131517D01*
X3406588Y4131000D01*
X3405930Y4130519D01*
X3405339Y4130139D01*
X3405267Y4130100D01*
X3405216Y4130089D01*
X3405104Y4130040D01*
X3399586D01*
X3382782Y4123079D01*
X3369921Y4110218D01*
X3362960Y4093414D01*
Y4075226D01*
X3369921Y4058422D01*
X3382782Y4045561D01*
X3399586Y4038600D01*
X3417774D01*
X3434578Y4045561D01*
X3447439Y4058422D01*
X3448385Y4060705D01*
X3462132D01*
X3462313Y4060268D01*
X3475174Y4047407D01*
X3491978Y4040447D01*
X3510166D01*
X3526970Y4047407D01*
X3539831Y4060268D01*
X3546792Y4077072D01*
Y4095261D01*
X3544718Y4100268D01*
X3650202Y4205753D01*
X5468780D01*
X5481664Y4208316D01*
X5492586Y4215614D01*
X5825166Y4548194D01*
X5832464Y4559116D01*
X5835027Y4572000D01*
Y4623183D01*
X5835056Y4623457D01*
X5835217Y4624442D01*
X5835357Y4625058D01*
X5835362Y4625074D01*
X5835429Y4625231D01*
X5840119Y4629922D01*
X5847080Y4646726D01*
Y4664914D01*
X5840119Y4681718D01*
X5827258Y4694579D01*
X5810454Y4701540D01*
X5792266D01*
X5775462Y4694579D01*
X5762601Y4681718D01*
X5755640Y4664914D01*
Y4646726D01*
X5762601Y4629922D01*
X5767291Y4625231D01*
X5767358Y4625073D01*
X5767362Y4625060D01*
X5767503Y4624442D01*
X5767622Y4623709D01*
X5767693Y4622856D01*
Y4585945D01*
X5454835Y4273087D01*
X5315578D01*
X5314515Y4275904D01*
X5313466Y4285787D01*
X5322246Y4291654D01*
X5830246Y4799654D01*
X5837544Y4810576D01*
X5840107Y4823460D01*
Y5824603D01*
X5840136Y5824877D01*
X5840297Y5825862D01*
X5840437Y5826478D01*
X5840442Y5826494D01*
X5840509Y5826651D01*
X5845199Y5831342D01*
X5852160Y5848146D01*
Y5866334D01*
X5845199Y5883138D01*
X5832338Y5895999D01*
X5815534Y5902960D01*
D02*
G37*
G36*
X3110872Y4025900D02*
X3101340D01*
Y4016368D01*
X3103028Y4017067D01*
X3110173Y4024212D01*
X3110872Y4025900D01*
D02*
G37*
G36*
X3075940D02*
X3066408D01*
X3067107Y4024212D01*
X3074252Y4017067D01*
X3075940Y4016368D01*
Y4025900D01*
D02*
G37*
G36*
X3949700Y3971932D02*
Y3962400D01*
X3959232D01*
X3958533Y3964088D01*
X3951388Y3971233D01*
X3949700Y3971932D01*
D02*
G37*
G36*
X3924300D02*
X3922612Y3971233D01*
X3915467Y3964088D01*
X3914768Y3962400D01*
X3924300D01*
Y3971932D01*
D02*
G37*
G36*
X3959232Y3937000D02*
X3949700D01*
Y3927468D01*
X3951388Y3928167D01*
X3958533Y3935312D01*
X3959232Y3937000D01*
D02*
G37*
G36*
X3924300D02*
X3914768D01*
X3915467Y3935312D01*
X3922612Y3928167D01*
X3924300Y3927468D01*
Y3937000D01*
D02*
G37*
G36*
X1299339Y4956303D02*
X1281150D01*
X1264346Y4949342D01*
X1251485Y4936481D01*
X1244524Y4919677D01*
Y4901489D01*
X1251485Y4884685D01*
X1264346Y4871824D01*
X1281150Y4864863D01*
X1299339D01*
X1316143Y4871824D01*
X1320833Y4876514D01*
X1320991Y4876581D01*
X1321005Y4876585D01*
X1321622Y4876726D01*
X1322355Y4876845D01*
X1323208Y4876916D01*
X2337332D01*
X3378134Y3836113D01*
X3373274Y3824380D01*
X2883760D01*
Y3783337D01*
X2872027Y3778477D01*
X2630398Y4020106D01*
X2619475Y4027404D01*
X2606591Y4029967D01*
X1752467D01*
X1747207Y4042667D01*
X1761257Y4056716D01*
X1774800Y4080174D01*
X1781810Y4106337D01*
Y4133423D01*
X1774800Y4159586D01*
X1761257Y4183044D01*
X1742104Y4202197D01*
X1718646Y4215740D01*
X1692483Y4222750D01*
X1665397D01*
X1639234Y4215740D01*
X1615776Y4202197D01*
X1596623Y4183044D01*
X1583080Y4159586D01*
X1576070Y4133423D01*
Y4106337D01*
X1583080Y4080174D01*
X1596623Y4056716D01*
X1610673Y4042667D01*
X1605413Y4029967D01*
X1320128D01*
X1319859Y4029995D01*
X1318851Y4030155D01*
X1318199Y4030301D01*
X1318196Y4030303D01*
X1317984Y4030389D01*
X1313678Y4034696D01*
X1296874Y4041656D01*
X1278686D01*
X1261882Y4034696D01*
X1249021Y4021834D01*
X1242060Y4005030D01*
Y3986842D01*
X1249021Y3970038D01*
X1261882Y3957177D01*
X1278686Y3950216D01*
X1296874D01*
X1313678Y3957177D01*
X1318763Y3962262D01*
X1318844Y3962297D01*
X1318872Y3962306D01*
X1319459Y3962443D01*
X1320155Y3962559D01*
X1321029Y3962633D01*
X1615380D01*
X1618783Y3949933D01*
X1615776Y3948197D01*
X1596623Y3929044D01*
X1583080Y3905586D01*
X1576070Y3879423D01*
Y3852337D01*
X1583080Y3826174D01*
X1596623Y3802716D01*
X1615776Y3783563D01*
X1639234Y3770020D01*
X1665397Y3763010D01*
X1692483D01*
X1718646Y3770020D01*
X1742104Y3783563D01*
X1761257Y3802716D01*
X1774800Y3826174D01*
X1781810Y3852337D01*
Y3879423D01*
X1774800Y3905586D01*
X1761257Y3929044D01*
X1742104Y3948197D01*
X1739097Y3949933D01*
X1742500Y3962633D01*
X2592646D01*
X2883760Y3671519D01*
Y3132467D01*
X1957313D01*
X1944429Y3129904D01*
X1933507Y3122606D01*
X1831738Y3020837D01*
X1759338D01*
X1754078Y3033537D01*
X1761257Y3040716D01*
X1774800Y3064174D01*
X1781810Y3090337D01*
Y3117423D01*
X1774800Y3143586D01*
X1761257Y3167044D01*
X1742104Y3186197D01*
X1718646Y3199740D01*
X1692483Y3206750D01*
X1665397D01*
X1639234Y3199740D01*
X1615776Y3186197D01*
X1596623Y3167044D01*
X1583080Y3143586D01*
X1576070Y3117423D01*
Y3090337D01*
X1583080Y3064174D01*
X1596623Y3040716D01*
X1603802Y3033537D01*
X1598542Y3020837D01*
X1400655D01*
X1329584Y3091908D01*
X1329408Y3092126D01*
X1328830Y3092929D01*
X1328491Y3093469D01*
X1328482Y3093486D01*
X1328420Y3093640D01*
Y3100274D01*
X1321459Y3117078D01*
X1308598Y3129939D01*
X1291794Y3136900D01*
X1273606D01*
X1256802Y3129939D01*
X1243941Y3117078D01*
X1236980Y3100274D01*
Y3082086D01*
X1243941Y3065282D01*
X1256802Y3052421D01*
X1273606Y3045460D01*
X1280240D01*
X1280394Y3045398D01*
X1280412Y3045388D01*
X1280949Y3045051D01*
X1281549Y3044619D01*
X1282202Y3044065D01*
X1362903Y2963364D01*
X1373826Y2956066D01*
X1386709Y2953504D01*
X1845684D01*
X1858568Y2956066D01*
X1869490Y2963364D01*
X1971258Y3065133D01*
X2229758D01*
X2233161Y3052433D01*
X2230012Y3050615D01*
X2212265Y3032868D01*
X2199716Y3011132D01*
X2193220Y2986889D01*
Y2961791D01*
X2199716Y2937548D01*
X2212265Y2915812D01*
X2230012Y2898065D01*
X2251748Y2885516D01*
X2275991Y2879020D01*
X2301089D01*
X2325332Y2885516D01*
X2347068Y2898065D01*
X2364815Y2915812D01*
X2377364Y2937548D01*
X2383860Y2961791D01*
Y2986889D01*
X2377364Y3011132D01*
X2364815Y3032868D01*
X2347068Y3050615D01*
X2343919Y3052433D01*
X2347322Y3065133D01*
X2883760D01*
Y2764380D01*
X3026833D01*
Y2432033D01*
X3026803Y2431759D01*
X3026643Y2430774D01*
X3026502Y2430158D01*
X3026497Y2430142D01*
X3026431Y2429984D01*
X3021740Y2425294D01*
X3014780Y2408490D01*
Y2390302D01*
X3021740Y2373497D01*
X3034601Y2360636D01*
X3051406Y2353676D01*
X3069594D01*
X3086398Y2360636D01*
X3099259Y2373497D01*
X3106220Y2390302D01*
Y2408490D01*
X3099259Y2425294D01*
X3094569Y2429984D01*
X3094502Y2430143D01*
X3094498Y2430156D01*
X3094357Y2430774D01*
X3094237Y2431506D01*
X3094167Y2432360D01*
Y2764380D01*
X3225308D01*
Y2433654D01*
X3225272Y2433359D01*
X3225131Y2432595D01*
X3217830Y2425294D01*
X3210870Y2408490D01*
Y2390302D01*
X3217830Y2373497D01*
X3230691Y2360636D01*
X3247495Y2353676D01*
X3265684D01*
X3282488Y2360636D01*
X3295349Y2373497D01*
X3302310Y2390302D01*
Y2408490D01*
X3295349Y2425294D01*
X3292994Y2427649D01*
X3292977Y2427718D01*
X3292815Y2428555D01*
X3292683Y2429519D01*
X3292642Y2430107D01*
Y2764380D01*
X3519793D01*
Y2569185D01*
X2915952Y1965345D01*
X2114397D01*
X2108740Y1969124D01*
X2095856Y1971687D01*
X1321389D01*
X1321091Y1971721D01*
X1320220Y1971874D01*
X1319832Y1971970D01*
X1313678Y1978123D01*
X1296874Y1985084D01*
X1278686D01*
X1261882Y1978123D01*
X1249021Y1965262D01*
X1242060Y1948458D01*
Y1930270D01*
X1249021Y1913466D01*
X1261882Y1900605D01*
X1278686Y1893644D01*
X1296874D01*
X1313678Y1900605D01*
X1317035Y1903961D01*
X1317224Y1904014D01*
X1317966Y1904169D01*
X1318826Y1904297D01*
X1319561Y1904353D01*
X1806584D01*
X1814873Y1891653D01*
X1811020Y1882352D01*
Y1864163D01*
X1817981Y1847359D01*
X1830842Y1834498D01*
X1847646Y1827538D01*
X1865834D01*
X1882638Y1834498D01*
X1887329Y1839189D01*
X1887487Y1839256D01*
X1887500Y1839260D01*
X1888118Y1839401D01*
X1888851Y1839520D01*
X1889704Y1839591D01*
X1947596D01*
X1960480Y1842154D01*
X1966137Y1845933D01*
X2023975D01*
X2209476Y1660432D01*
X2209653Y1660214D01*
X2210230Y1659411D01*
X2210570Y1658871D01*
X2210579Y1658854D01*
X2210641Y1658700D01*
Y1652066D01*
X2212918Y1646567D01*
X2204432Y1633867D01*
X1905000D01*
X1892116Y1631304D01*
X1881194Y1624006D01*
X1734092Y1476904D01*
X1733874Y1476728D01*
X1733071Y1476150D01*
X1732531Y1475811D01*
X1732514Y1475802D01*
X1732360Y1475740D01*
X1725726D01*
X1708922Y1468779D01*
X1696061Y1455918D01*
X1689100Y1439114D01*
Y1420926D01*
X1696061Y1404122D01*
X1708922Y1391261D01*
X1725726Y1384300D01*
X1743914D01*
X1760718Y1391261D01*
X1773579Y1404122D01*
X1780540Y1420926D01*
Y1427560D01*
X1780602Y1427714D01*
X1780612Y1427732D01*
X1780949Y1428269D01*
X1781381Y1428869D01*
X1781935Y1429522D01*
X1808214Y1455801D01*
X1818980Y1448607D01*
X1816100Y1441654D01*
Y1423466D01*
X1823061Y1406662D01*
X1835922Y1393801D01*
X1852726Y1386840D01*
X1870914D01*
X1887718Y1393801D01*
X1900579Y1406662D01*
X1907540Y1423466D01*
Y1430100D01*
X1907602Y1430254D01*
X1907612Y1430272D01*
X1907949Y1430809D01*
X1908381Y1431409D01*
X1908935Y1432062D01*
X1979905Y1503033D01*
X2286555D01*
X2291815Y1490333D01*
X2282801Y1481318D01*
X2275840Y1464514D01*
Y1446326D01*
X2282801Y1429522D01*
X2287491Y1424831D01*
X2287558Y1424673D01*
X2287562Y1424660D01*
X2287703Y1424042D01*
X2287822Y1423309D01*
X2287893Y1422456D01*
Y1017245D01*
X2025675Y755027D01*
X1985897D01*
X1985623Y755056D01*
X1984638Y755217D01*
X1984022Y755357D01*
X1984006Y755362D01*
X1983849Y755429D01*
X1979158Y760119D01*
X1962354Y767080D01*
X1944166D01*
X1927362Y760119D01*
X1919723Y752481D01*
X1907023Y757741D01*
Y883024D01*
X1991360D01*
X1995862Y883920D01*
X2000454D01*
X2004696Y885677D01*
X2009199Y886573D01*
X2013016Y889123D01*
X2017258Y890881D01*
X2020505Y894127D01*
X2024322Y896678D01*
X2026873Y900495D01*
X2030119Y903742D01*
X2031877Y907984D01*
X2034427Y911801D01*
X2035323Y916304D01*
X2037080Y920546D01*
Y925138D01*
X2037976Y929640D01*
X2037080Y934142D01*
Y938734D01*
X2035323Y942976D01*
X2034427Y947479D01*
X2031877Y951296D01*
X2030119Y955538D01*
X2026873Y958785D01*
X2024322Y962602D01*
X2020505Y965153D01*
X2017258Y968399D01*
X2013016Y970157D01*
X2009199Y972707D01*
X2004696Y973603D01*
X2000454Y975360D01*
X1995862D01*
X1991360Y976256D01*
X1401069D01*
X1256892Y1120433D01*
Y1720816D01*
X1255996Y1725318D01*
Y1729910D01*
X1254239Y1734152D01*
X1253343Y1738655D01*
X1250793Y1742472D01*
X1249035Y1746714D01*
X1245788Y1749961D01*
X1243238Y1753778D01*
X1239421Y1756328D01*
X1236174Y1759575D01*
X1231932Y1761333D01*
X1228115Y1763883D01*
X1223612Y1764779D01*
X1219370Y1766536D01*
X1214778D01*
X1210276Y1767432D01*
X1205774Y1766536D01*
X1201182D01*
X1196940Y1764779D01*
X1192437Y1763883D01*
X1188620Y1761333D01*
X1184378Y1759575D01*
X1181131Y1756328D01*
X1177314Y1753778D01*
X1174763Y1749961D01*
X1171517Y1746714D01*
X1169759Y1742472D01*
X1167209Y1738655D01*
X1166313Y1734152D01*
X1164556Y1729910D01*
Y1725318D01*
X1163660Y1720816D01*
Y1101124D01*
X1167209Y1083285D01*
X1177314Y1068162D01*
X1348798Y896678D01*
X1363921Y886573D01*
X1381760Y883024D01*
X1813792D01*
Y280813D01*
X1817340Y262974D01*
X1827445Y247851D01*
X1959811Y115485D01*
X1974934Y105380D01*
X1992773Y101832D01*
X2337927D01*
X2342430Y102727D01*
X2347021D01*
X2351264Y104484D01*
X2355766Y105380D01*
X2359584Y107931D01*
X2363826Y109688D01*
X2367072Y112935D01*
X2370889Y115485D01*
X2373440Y119302D01*
X2376687Y122549D01*
X2378444Y126791D01*
X2380994Y130608D01*
X2381890Y135111D01*
X2383647Y139353D01*
Y143945D01*
X2384543Y148447D01*
X2383647Y152950D01*
Y157541D01*
X2381890Y161784D01*
X2380994Y166286D01*
X2378444Y170104D01*
X2376687Y174346D01*
X2373440Y177592D01*
X2370889Y181409D01*
X2367072Y183960D01*
X2363826Y187207D01*
X2359584Y188964D01*
X2355766Y191514D01*
X2351264Y192410D01*
X2347021Y194167D01*
X2342430D01*
X2337927Y195063D01*
X2012082D01*
X1907023Y300122D01*
Y684979D01*
X1919723Y690239D01*
X1927362Y682601D01*
X1944166Y675640D01*
X1962354D01*
X1979158Y682601D01*
X1983849Y687291D01*
X1984007Y687358D01*
X1984020Y687362D01*
X1984638Y687503D01*
X1985371Y687622D01*
X1986224Y687693D01*
X2039620D01*
X2052504Y690256D01*
X2063426Y697554D01*
X2345366Y979494D01*
X2352664Y990416D01*
X2355227Y1003300D01*
Y1422783D01*
X2355256Y1423057D01*
X2355417Y1424042D01*
X2355557Y1424658D01*
X2355562Y1424674D01*
X2355629Y1424831D01*
X2360319Y1429522D01*
X2367280Y1446326D01*
Y1464514D01*
X2360319Y1481318D01*
X2351305Y1490333D01*
X2356565Y1503033D01*
X2373655D01*
X2716854Y1159834D01*
X2727777Y1152536D01*
X2740660Y1149973D01*
X3027393D01*
X3033380Y1138772D01*
X3031070Y1135314D01*
X3026535Y1112520D01*
X3031070Y1089726D01*
X3043981Y1070401D01*
X3063306Y1057490D01*
X3086100Y1052955D01*
X4074160D01*
X4096954Y1057490D01*
X4116279Y1070401D01*
X4207719Y1161841D01*
X4218293Y1177667D01*
X4230993Y1173815D01*
Y821665D01*
X4042952Y633624D01*
X4042734Y633448D01*
X4041931Y632870D01*
X4041391Y632531D01*
X4041374Y632522D01*
X4041220Y632460D01*
X4034586D01*
X4017782Y625499D01*
X4004921Y612638D01*
X3997960Y595834D01*
Y577646D01*
X4000515Y571476D01*
X3993460Y560917D01*
X3313550D01*
X3313276Y560946D01*
X3312290Y561106D01*
X3311674Y561247D01*
X3311658Y561252D01*
X3311501Y561319D01*
X3306811Y566009D01*
X3290007Y572970D01*
X3271818D01*
X3255014Y566009D01*
X3242153Y553148D01*
X3235192Y536344D01*
Y518155D01*
X3242153Y501351D01*
X3255014Y488490D01*
X3271818Y481530D01*
X3290007D01*
X3306811Y488490D01*
X3311501Y493181D01*
X3311659Y493248D01*
X3311673Y493252D01*
X3312290Y493393D01*
X3313023Y493512D01*
X3313876Y493583D01*
X3878064D01*
X3883325Y480883D01*
X3875381Y472938D01*
X3868420Y456134D01*
Y449500D01*
X3868358Y449346D01*
X3868348Y449328D01*
X3868011Y448791D01*
X3867579Y448191D01*
X3867025Y447538D01*
X3822835Y403347D01*
X2177547D01*
X2177274Y403376D01*
X2176288Y403537D01*
X2175672Y403677D01*
X2175656Y403682D01*
X2175499Y403749D01*
X2170808Y408439D01*
X2154004Y415400D01*
X2135816D01*
X2119012Y408439D01*
X2106151Y395578D01*
X2099190Y378774D01*
Y360586D01*
X2106151Y343782D01*
X2119012Y330921D01*
X2135816Y323960D01*
X2154004D01*
X2170808Y330921D01*
X2175499Y335611D01*
X2175657Y335678D01*
X2175671Y335682D01*
X2176288Y335823D01*
X2177021Y335942D01*
X2177874Y336013D01*
X3836780D01*
X3849664Y338576D01*
X3860586Y345874D01*
X3914868Y400156D01*
X3915086Y400332D01*
X3915889Y400910D01*
X3916429Y401249D01*
X3916446Y401258D01*
X3916600Y401320D01*
X3923234D01*
X3940038Y408281D01*
X3952899Y421142D01*
X3959860Y437946D01*
Y456134D01*
X3952899Y472938D01*
X3944955Y480883D01*
X3950216Y493583D01*
X5016645D01*
X5104396Y405832D01*
X5104572Y405614D01*
X5105150Y404811D01*
X5105489Y404271D01*
X5105498Y404254D01*
X5105560Y404100D01*
Y397466D01*
X5112521Y380662D01*
X5125382Y367801D01*
X5142186Y360840D01*
X5160374D01*
X5177178Y367801D01*
X5190039Y380662D01*
X5197000Y397466D01*
Y415654D01*
X5190039Y432458D01*
X5177178Y445319D01*
X5160374Y452280D01*
X5153740D01*
X5153586Y452342D01*
X5153568Y452352D01*
X5153031Y452689D01*
X5152431Y453121D01*
X5151778Y453675D01*
X5054397Y551056D01*
X5043474Y558354D01*
X5030590Y560917D01*
X4093900D01*
X4086845Y571476D01*
X4089400Y577646D01*
Y584280D01*
X4089462Y584434D01*
X4089472Y584452D01*
X4089809Y584989D01*
X4090241Y585589D01*
X4090795Y586242D01*
X4288466Y783914D01*
X4295764Y794836D01*
X4298327Y807720D01*
Y1399540D01*
X4295764Y1412424D01*
X4288466Y1423346D01*
X3889686Y1822126D01*
X3878764Y1829424D01*
X3865880Y1831987D01*
X3479417D01*
X3479143Y1832016D01*
X3478158Y1832177D01*
X3477542Y1832317D01*
X3477526Y1832322D01*
X3477369Y1832389D01*
X3472678Y1837079D01*
X3455874Y1844040D01*
X3437686D01*
X3420882Y1837079D01*
X3408021Y1824218D01*
X3401060Y1807414D01*
Y1789226D01*
X3408021Y1772422D01*
X3420882Y1759561D01*
X3437686Y1752600D01*
X3455874D01*
X3472678Y1759561D01*
X3477369Y1764251D01*
X3477527Y1764318D01*
X3477540Y1764322D01*
X3478158Y1764463D01*
X3478891Y1764582D01*
X3479744Y1764653D01*
X3851935D01*
X4230993Y1385595D01*
Y1234105D01*
X4218293Y1230253D01*
X4207719Y1246079D01*
X4188394Y1258990D01*
X4165600Y1263525D01*
X4142806Y1258990D01*
X4123481Y1246079D01*
X4049487Y1172085D01*
X3794070D01*
X3789210Y1183818D01*
X3798028Y1192636D01*
X3798246Y1192812D01*
X3799049Y1193390D01*
X3799589Y1193729D01*
X3799606Y1193738D01*
X3799760Y1193800D01*
X3806394D01*
X3823198Y1200761D01*
X3836059Y1213622D01*
X3843020Y1230426D01*
Y1248614D01*
X3836059Y1265418D01*
X3823198Y1278279D01*
X3806394Y1285240D01*
X3788206D01*
X3771402Y1278279D01*
X3770062Y1276940D01*
X3765809Y1277786D01*
X3752948Y1290647D01*
X3736144Y1297608D01*
X3717955D01*
X3701151Y1290647D01*
X3691320Y1280816D01*
X3691230Y1280807D01*
X2881605D01*
X2538406Y1624006D01*
X2527484Y1631304D01*
X2514600Y1633867D01*
X2308289D01*
X2299803Y1646567D01*
X2302081Y1652066D01*
Y1670254D01*
X2295120Y1687058D01*
X2282259Y1699919D01*
X2265455Y1706880D01*
X2258821D01*
X2258667Y1706942D01*
X2258648Y1706952D01*
X2258111Y1707289D01*
X2257512Y1707721D01*
X2256858Y1708275D01*
X2080800Y1884333D01*
X2084224Y1898870D01*
X2089315Y1900573D01*
X2102199Y1898011D01*
X2929898D01*
X2942782Y1900574D01*
X2953704Y1907871D01*
X3577266Y2531434D01*
X3584564Y2542356D01*
X3587127Y2555240D01*
Y2764380D01*
X3682353D01*
Y2482825D01*
X3175444Y1975917D01*
X3130587D01*
X3130313Y1975946D01*
X3129327Y1976106D01*
X3128712Y1976247D01*
X3128696Y1976252D01*
X3128538Y1976319D01*
X3123848Y1981009D01*
X3107044Y1987970D01*
X3088855D01*
X3072051Y1981009D01*
X3059190Y1968148D01*
X3052230Y1951344D01*
Y1933155D01*
X3059190Y1916351D01*
X3072051Y1903490D01*
X3088855Y1896530D01*
X3107044D01*
X3123848Y1903490D01*
X3128538Y1908181D01*
X3128697Y1908248D01*
X3128710Y1908252D01*
X3129327Y1908393D01*
X3130060Y1908512D01*
X3130913Y1908583D01*
X3189390D01*
X3202274Y1911146D01*
X3213196Y1918443D01*
X3296120Y2001368D01*
X3307854Y1996508D01*
Y1973106D01*
X3307834Y1972952D01*
X3298801Y1963918D01*
X3291840Y1947114D01*
Y1928926D01*
X3298801Y1912122D01*
X3311662Y1899261D01*
X3328466Y1892300D01*
X3346654D01*
X3363458Y1899261D01*
X3376319Y1912122D01*
X3383280Y1928926D01*
Y1947114D01*
X3376319Y1963918D01*
X3375440Y1964798D01*
X3375402Y1965025D01*
X3375188Y1967774D01*
Y2000275D01*
X3783556Y2408643D01*
X3795289Y2403783D01*
Y2345535D01*
X3796185Y2341033D01*
Y2336441D01*
X3797942Y2332199D01*
X3798837Y2327696D01*
X3801388Y2323879D01*
X3803145Y2319637D01*
X3806392Y2316390D01*
X3808943Y2312573D01*
X3812759Y2310023D01*
X3816006Y2306776D01*
X3820248Y2305019D01*
X3824066Y2302468D01*
X3828568Y2301572D01*
X3832810Y2299815D01*
X3837402D01*
X3841905Y2298920D01*
X3846407Y2299815D01*
X3850999D01*
X3855241Y2301572D01*
X3859744Y2302468D01*
X3863561Y2305019D01*
X3867803Y2306776D01*
X3871050Y2310023D01*
X3874867Y2312573D01*
X3877417Y2316390D01*
X3880664Y2319637D01*
X3882421Y2323879D01*
X3884972Y2327696D01*
X3885868Y2332199D01*
X3887625Y2336441D01*
Y2341033D01*
X3888520Y2345535D01*
Y2407816D01*
X3999489Y2518784D01*
X4124960D01*
X4129462Y2519680D01*
X4134054D01*
X4138296Y2521437D01*
X4142799Y2522333D01*
X4146616Y2524883D01*
X4150858Y2526641D01*
X4154105Y2529887D01*
X4157922Y2532438D01*
X4160473Y2536255D01*
X4163719Y2539502D01*
X4165477Y2543744D01*
X4168027Y2547561D01*
X4168923Y2552064D01*
X4170680Y2556306D01*
Y2560898D01*
X4171576Y2565400D01*
X4170680Y2569902D01*
Y2574494D01*
X4168923Y2578736D01*
X4168027Y2583239D01*
X4165477Y2587056D01*
X4163719Y2591298D01*
X4160473Y2594545D01*
X4157922Y2598362D01*
X4154105Y2600913D01*
X4150858Y2604159D01*
X4146616Y2605917D01*
X4142799Y2608467D01*
X4138296Y2609363D01*
X4134054Y2611120D01*
X4129462D01*
X4124960Y2612016D01*
X3980180D01*
X3962341Y2608467D01*
X3947218Y2598362D01*
X3842700Y2493845D01*
X3830967Y2498705D01*
Y2764380D01*
X3943284D01*
X3943760Y2764856D01*
Y3192133D01*
X4201160D01*
X4214044Y3194696D01*
X4224966Y3201994D01*
X4488908Y3465936D01*
X4489126Y3466112D01*
X4489929Y3466690D01*
X4490469Y3467029D01*
X4490486Y3467038D01*
X4490640Y3467100D01*
X4497274D01*
X4514078Y3474061D01*
X4526939Y3486922D01*
X4533900Y3503726D01*
Y3521914D01*
X4526939Y3538718D01*
X4514078Y3551579D01*
X4507216Y3554422D01*
X4507208Y3554464D01*
X4508479Y3567645D01*
X4521698Y3573121D01*
X4534559Y3585982D01*
X4541520Y3602786D01*
Y3620974D01*
X4534559Y3637778D01*
X4521698Y3650639D01*
X4504894Y3657600D01*
X4486706D01*
X4469902Y3650639D01*
X4457041Y3637778D01*
X4450080Y3620974D01*
Y3611573D01*
X4449963Y3611377D01*
X4449637Y3610908D01*
X4449041Y3610193D01*
X4421458Y3582611D01*
X4409002Y3585088D01*
X4406890Y3590187D01*
X4394029Y3603048D01*
X4377225Y3610009D01*
X4359036D01*
X4342232Y3603048D01*
X4336809Y3597625D01*
X4336792Y3597617D01*
X4336768Y3597610D01*
X4336207Y3597476D01*
X4335540Y3597363D01*
X4334650Y3597287D01*
X4255591D01*
X4251069Y3604260D01*
X4222750D01*
Y3629660D01*
X4251069D01*
X4255591Y3636633D01*
X4346323D01*
X4346597Y3636604D01*
X4347582Y3636443D01*
X4348198Y3636303D01*
X4348214Y3636298D01*
X4348371Y3636231D01*
X4353062Y3631541D01*
X4369866Y3624580D01*
X4388054D01*
X4404858Y3631541D01*
X4417719Y3644402D01*
X4424680Y3661206D01*
Y3679394D01*
X4417719Y3696198D01*
X4413785Y3700133D01*
X4419045Y3712833D01*
X5045735D01*
X5589893Y3168675D01*
Y2341880D01*
X5592456Y2328996D01*
X5599754Y2318074D01*
X5622396Y2295432D01*
X5622572Y2295214D01*
X5623150Y2294411D01*
X5623489Y2293871D01*
X5623498Y2293854D01*
X5623560Y2293700D01*
Y2287066D01*
X5630521Y2270262D01*
X5643382Y2257401D01*
X5660186Y2250440D01*
X5678374D01*
X5695178Y2257401D01*
X5708039Y2270262D01*
X5715000Y2287066D01*
Y2305254D01*
X5708039Y2322058D01*
X5695178Y2334919D01*
X5678374Y2341880D01*
X5671740D01*
X5671586Y2341942D01*
X5671568Y2341952D01*
X5671031Y2342289D01*
X5670431Y2342721D01*
X5669778Y2343275D01*
X5657227Y2355825D01*
Y3182620D01*
X5654664Y3195504D01*
X5647366Y3206426D01*
X5083486Y3770306D01*
X5072564Y3777604D01*
X5059680Y3780167D01*
X3943760D01*
Y3824380D01*
X3485092D01*
X2375083Y4934389D01*
X2364161Y4941687D01*
X2351277Y4944250D01*
X1322882D01*
X1322608Y4944279D01*
X1321622Y4944440D01*
X1321006Y4944580D01*
X1320990Y4944585D01*
X1320833Y4944652D01*
X1316143Y4949342D01*
X1299339Y4956303D01*
D02*
G37*
G36*
X1692483Y3714750D02*
X1665397D01*
X1639234Y3707740D01*
X1615776Y3694197D01*
X1596623Y3675044D01*
X1583080Y3651586D01*
X1576070Y3625423D01*
Y3598337D01*
X1583080Y3572174D01*
X1596623Y3548716D01*
X1615776Y3529563D01*
X1639234Y3516020D01*
X1665397Y3509010D01*
X1692483D01*
X1718646Y3516020D01*
X1742104Y3529563D01*
X1761257Y3548716D01*
X1774800Y3572174D01*
X1781810Y3598337D01*
Y3625423D01*
X1774800Y3651586D01*
X1761257Y3675044D01*
X1742104Y3694197D01*
X1718646Y3707740D01*
X1692483Y3714750D01*
D02*
G37*
G36*
X3600654Y4071620D02*
X3582466D01*
X3565662Y4064659D01*
X3552801Y4051798D01*
X3545840Y4034994D01*
Y4016806D01*
X3552801Y4000002D01*
X3565662Y3987141D01*
X3582466Y3980180D01*
X3600654D01*
X3617458Y3987141D01*
X3622149Y3991831D01*
X3622307Y3991898D01*
X3622320Y3991902D01*
X3622938Y3992043D01*
X3623671Y3992162D01*
X3624524Y3992233D01*
X5154955D01*
X5627476Y3519712D01*
X5627652Y3519494D01*
X5628230Y3518691D01*
X5628569Y3518151D01*
X5628578Y3518134D01*
X5628640Y3517980D01*
Y3511346D01*
X5635601Y3494542D01*
X5648462Y3481681D01*
X5665266Y3474720D01*
X5683454D01*
X5700258Y3481681D01*
X5713119Y3494542D01*
X5720080Y3511346D01*
Y3529534D01*
X5713119Y3546338D01*
X5700258Y3559199D01*
X5683454Y3566160D01*
X5676820D01*
X5676666Y3566222D01*
X5676648Y3566232D01*
X5676111Y3566569D01*
X5675511Y3567001D01*
X5674858Y3567555D01*
X5192706Y4049706D01*
X5181784Y4057004D01*
X5168900Y4059567D01*
X3624197D01*
X3623923Y4059596D01*
X3622938Y4059757D01*
X3622322Y4059897D01*
X3622306Y4059902D01*
X3622149Y4059969D01*
X3617458Y4064659D01*
X3600654Y4071620D01*
D02*
G37*
G36*
X2301089Y3577660D02*
X2275991D01*
X2251748Y3571164D01*
X2230012Y3558615D01*
X2212265Y3540868D01*
X2199716Y3519132D01*
X2193220Y3494889D01*
Y3469791D01*
X2199716Y3445548D01*
X2212265Y3423812D01*
X2230012Y3406065D01*
X2251748Y3393516D01*
X2275991Y3387020D01*
X2301089D01*
X2325332Y3393516D01*
X2347068Y3406065D01*
X2364815Y3423812D01*
X2377364Y3445548D01*
X2383860Y3469791D01*
Y3494889D01*
X2377364Y3519132D01*
X2364815Y3540868D01*
X2347068Y3558615D01*
X2325332Y3571164D01*
X2301089Y3577660D01*
D02*
G37*
G36*
X1692483Y3460750D02*
X1665397D01*
X1639234Y3453740D01*
X1615776Y3440197D01*
X1596623Y3421044D01*
X1583080Y3397586D01*
X1576070Y3371423D01*
Y3344337D01*
X1583080Y3318174D01*
X1596623Y3294716D01*
X1615776Y3275563D01*
X1639234Y3262020D01*
X1665397Y3255010D01*
X1692483D01*
X1718646Y3262020D01*
X1742104Y3275563D01*
X1761257Y3294716D01*
X1774800Y3318174D01*
X1781810Y3344337D01*
Y3371423D01*
X1774800Y3397586D01*
X1761257Y3421044D01*
X1742104Y3440197D01*
X1718646Y3453740D01*
X1692483Y3460750D01*
D02*
G37*
G36*
X2301240Y3302583D02*
Y3241040D01*
X2362783D01*
X2358429Y3257289D01*
X2348555Y3274391D01*
X2334591Y3288355D01*
X2317489Y3298229D01*
X2301240Y3302583D01*
D02*
G37*
G36*
X2275840D02*
X2259591Y3298229D01*
X2242489Y3288355D01*
X2228525Y3274391D01*
X2218651Y3257289D01*
X2214297Y3241040D01*
X2275840D01*
Y3302583D01*
D02*
G37*
G36*
X2362783Y3215640D02*
X2301240D01*
Y3154097D01*
X2317489Y3158451D01*
X2334591Y3168325D01*
X2348555Y3182289D01*
X2358429Y3199391D01*
X2362783Y3215640D01*
D02*
G37*
G36*
X2275840D02*
X2214297D01*
X2218651Y3199391D01*
X2228525Y3182289D01*
X2242489Y3168325D01*
X2259591Y3158451D01*
X2275840Y3154097D01*
Y3215640D01*
D02*
G37*
G36*
X1691640Y2931939D02*
Y2862580D01*
X1760999D01*
X1755864Y2881743D01*
X1744996Y2900567D01*
X1729627Y2915936D01*
X1710803Y2926804D01*
X1691640Y2931939D01*
D02*
G37*
G36*
X1666240D02*
X1647077Y2926804D01*
X1628253Y2915936D01*
X1612884Y2900567D01*
X1602016Y2881743D01*
X1596881Y2862580D01*
X1666240D01*
Y2931939D01*
D02*
G37*
G36*
X1760999Y2837180D02*
X1691640D01*
Y2767821D01*
X1710803Y2772956D01*
X1729627Y2783824D01*
X1744996Y2799193D01*
X1755864Y2818017D01*
X1760999Y2837180D01*
D02*
G37*
G36*
X1666240D02*
X1596881D01*
X1602016Y2818017D01*
X1612884Y2799193D01*
X1628253Y2783824D01*
X1647077Y2772956D01*
X1666240Y2767821D01*
Y2837180D01*
D02*
G37*
G36*
X2383860Y2815660D02*
X2193220D01*
Y2625020D01*
X2383860D01*
Y2815660D01*
D02*
G37*
G36*
X3619500Y2526672D02*
Y2517140D01*
X3629032D01*
X3628333Y2518828D01*
X3621188Y2525973D01*
X3619500Y2526672D01*
D02*
G37*
G36*
X3594100D02*
X3592412Y2525973D01*
X3585267Y2518828D01*
X3584568Y2517140D01*
X3594100D01*
Y2526672D01*
D02*
G37*
G36*
X1781810Y2698750D02*
X1576070D01*
Y2493010D01*
X1781810D01*
Y2698750D01*
D02*
G37*
G36*
X3629032Y2491740D02*
X3619500D01*
Y2482208D01*
X3621188Y2482907D01*
X3628333Y2490052D01*
X3629032Y2491740D01*
D02*
G37*
G36*
X3594100D02*
X3584568D01*
X3585267Y2490052D01*
X3592412Y2482907D01*
X3594100Y2482208D01*
Y2491740D01*
D02*
G37*
G36*
X2688794Y2966720D02*
X2670606D01*
X2653802Y2959759D01*
X2640941Y2946898D01*
X2633980Y2930094D01*
Y2923460D01*
X2633918Y2923306D01*
X2633908Y2923288D01*
X2633571Y2922751D01*
X2633139Y2922151D01*
X2632585Y2921498D01*
X2546674Y2835586D01*
X2539376Y2824664D01*
X2536813Y2811780D01*
Y2471037D01*
X2536784Y2470763D01*
X2536623Y2469778D01*
X2536483Y2469162D01*
X2536478Y2469146D01*
X2536411Y2468989D01*
X2531721Y2464298D01*
X2524760Y2447494D01*
Y2429306D01*
X2531721Y2412502D01*
X2544582Y2399641D01*
X2561386Y2392680D01*
X2579574D01*
X2596378Y2399641D01*
X2609239Y2412502D01*
X2616200Y2429306D01*
Y2447494D01*
X2609239Y2464298D01*
X2604549Y2468989D01*
X2604482Y2469147D01*
X2604478Y2469160D01*
X2604337Y2469778D01*
X2604218Y2470511D01*
X2604147Y2471364D01*
Y2797835D01*
X2680428Y2874116D01*
X2680646Y2874292D01*
X2681449Y2874870D01*
X2681989Y2875209D01*
X2682006Y2875218D01*
X2682160Y2875280D01*
X2688794D01*
X2705598Y2882241D01*
X2718459Y2895102D01*
X2725420Y2911906D01*
Y2930094D01*
X2718459Y2946898D01*
X2705598Y2959759D01*
X2688794Y2966720D01*
D02*
G37*
G36*
X1795780Y2398656D02*
X1478280D01*
X1473778Y2397760D01*
X1469186D01*
X1464944Y2396003D01*
X1460441Y2395107D01*
X1456624Y2392557D01*
X1452382Y2390799D01*
X1449135Y2387553D01*
X1445318Y2385002D01*
X1442767Y2381185D01*
X1439521Y2377938D01*
X1437763Y2373696D01*
X1435213Y2369879D01*
X1434317Y2365376D01*
X1432560Y2361134D01*
Y2356542D01*
X1431664Y2352040D01*
X1432560Y2347538D01*
Y2342946D01*
X1434317Y2338704D01*
X1435213Y2334201D01*
X1437763Y2330384D01*
X1439521Y2326142D01*
X1442767Y2322895D01*
X1445318Y2319078D01*
X1449135Y2316527D01*
X1452382Y2313281D01*
X1456624Y2311523D01*
X1460441Y2308973D01*
X1464944Y2308077D01*
X1469186Y2306320D01*
X1473778D01*
X1478280Y2305424D01*
X1795780D01*
X1800282Y2306320D01*
X1804874D01*
X1809116Y2308077D01*
X1813619Y2308973D01*
X1817436Y2311523D01*
X1821678Y2313281D01*
X1824925Y2316527D01*
X1828742Y2319078D01*
X1831293Y2322895D01*
X1834539Y2326142D01*
X1836297Y2330384D01*
X1838847Y2334201D01*
X1839743Y2338704D01*
X1841500Y2342946D01*
Y2347538D01*
X1842396Y2352040D01*
X1841500Y2356542D01*
Y2361134D01*
X1839743Y2365376D01*
X1838847Y2369879D01*
X1836297Y2373696D01*
X1834539Y2377938D01*
X1831293Y2381185D01*
X1828742Y2385002D01*
X1824925Y2387553D01*
X1821678Y2390799D01*
X1817436Y2392557D01*
X1813619Y2395107D01*
X1809116Y2396003D01*
X1804874Y2397760D01*
X1800282D01*
X1795780Y2398656D01*
D02*
G37*
G36*
X3406140Y2303152D02*
Y2293620D01*
X3415672D01*
X3414973Y2295308D01*
X3407828Y2302453D01*
X3406140Y2303152D01*
D02*
G37*
G36*
X3380740D02*
X3379052Y2302453D01*
X3371907Y2295308D01*
X3371208Y2293620D01*
X3380740D01*
Y2303152D01*
D02*
G37*
G36*
X3415672Y2268220D02*
X3406140D01*
Y2258688D01*
X3407828Y2259387D01*
X3414973Y2266532D01*
X3415672Y2268220D01*
D02*
G37*
G36*
X3380740D02*
X3371208D01*
X3371907Y2266532D01*
X3379052Y2259387D01*
X3380740Y2258688D01*
Y2268220D01*
D02*
G37*
G36*
X2138680Y2226952D02*
Y2217420D01*
X2148212D01*
X2147513Y2219108D01*
X2140368Y2226253D01*
X2138680Y2226952D01*
D02*
G37*
G36*
X2113280D02*
X2111592Y2226253D01*
X2104447Y2219108D01*
X2103748Y2217420D01*
X2113280D01*
Y2226952D01*
D02*
G37*
G36*
X2148212Y2192020D02*
X2138680D01*
Y2182488D01*
X2140368Y2183187D01*
X2147513Y2190332D01*
X2148212Y2192020D01*
D02*
G37*
G36*
X2113280D02*
X2103748D01*
X2104447Y2190332D01*
X2111592Y2183187D01*
X2113280Y2182488D01*
Y2192020D01*
D02*
G37*
G36*
X2814320Y2117732D02*
Y2108200D01*
X2823852D01*
X2823153Y2109888D01*
X2816008Y2117033D01*
X2814320Y2117732D01*
D02*
G37*
G36*
X2788920D02*
X2787232Y2117033D01*
X2780087Y2109888D01*
X2779388Y2108200D01*
X2788920D01*
Y2117732D01*
D02*
G37*
G36*
X1908287Y2238387D02*
X1551940D01*
X1539056Y2235824D01*
X1528134Y2228526D01*
X1518192Y2218584D01*
X1517974Y2218408D01*
X1517171Y2217830D01*
X1516631Y2217491D01*
X1516614Y2217482D01*
X1516460Y2217420D01*
X1509826D01*
X1493022Y2210459D01*
X1480161Y2197598D01*
X1473200Y2180794D01*
Y2162606D01*
X1480161Y2145802D01*
X1493022Y2132941D01*
X1509826Y2125980D01*
X1528014D01*
X1544818Y2132941D01*
X1557679Y2145802D01*
X1564640Y2162606D01*
Y2169240D01*
X1564702Y2169394D01*
X1564712Y2169412D01*
X1565049Y2169949D01*
X1565481Y2170549D01*
X1565908Y2171053D01*
X1894341D01*
X1928826Y2136568D01*
X1929861Y2135230D01*
Y2135205D01*
X1936822Y2118400D01*
X1949683Y2105539D01*
X1966487Y2098579D01*
X1984675D01*
X2001480Y2105539D01*
X2014341Y2118400D01*
X2021301Y2135205D01*
Y2153393D01*
X2014341Y2170197D01*
X2001480Y2183058D01*
X1984675Y2190019D01*
X1970603D01*
X1970590Y2190029D01*
X1932093Y2228526D01*
X1921171Y2235824D01*
X1908287Y2238387D01*
D02*
G37*
G36*
X3746500Y2097412D02*
Y2087880D01*
X3756032D01*
X3755333Y2089568D01*
X3748188Y2096713D01*
X3746500Y2097412D01*
D02*
G37*
G36*
X3721100D02*
X3719412Y2096713D01*
X3712267Y2089568D01*
X3711568Y2087880D01*
X3721100D01*
Y2097412D01*
D02*
G37*
G36*
X2823852Y2082800D02*
X2814320D01*
Y2073268D01*
X2816008Y2073967D01*
X2823153Y2081112D01*
X2823852Y2082800D01*
D02*
G37*
G36*
X2788920D02*
X2779388D01*
X2780087Y2081112D01*
X2787232Y2073967D01*
X2788920Y2073268D01*
Y2082800D01*
D02*
G37*
G36*
X3756032Y2062480D02*
X3746500D01*
Y2052948D01*
X3748188Y2053647D01*
X3755333Y2060792D01*
X3756032Y2062480D01*
D02*
G37*
G36*
X3721100D02*
X3711568D01*
X3712267Y2060792D01*
X3719412Y2053647D01*
X3721100Y2052948D01*
Y2062480D01*
D02*
G37*
G36*
X3264974Y1788927D02*
X3246785D01*
X3229981Y1781966D01*
X3217120Y1769105D01*
X3210160Y1752301D01*
Y1734113D01*
X3217120Y1717309D01*
X3221811Y1712618D01*
X3221878Y1712460D01*
X3221882Y1712447D01*
X3222023Y1711829D01*
X3222142Y1711096D01*
X3222213Y1710243D01*
Y1643780D01*
X3224776Y1630896D01*
X3232074Y1619974D01*
X3328994Y1523054D01*
X3339916Y1515756D01*
X3352800Y1513193D01*
X3418780D01*
X3419346Y1513154D01*
X3420322Y1513022D01*
X3421167Y1512861D01*
X3421213Y1512849D01*
X3423422Y1510641D01*
X3440226Y1503680D01*
X3458414D01*
X3475218Y1510641D01*
X3488079Y1523502D01*
X3495040Y1540306D01*
Y1558494D01*
X3488079Y1575298D01*
X3475218Y1588159D01*
X3458414Y1595120D01*
X3440226D01*
X3423422Y1588159D01*
X3415952Y1580690D01*
X3415549Y1580615D01*
X3414608Y1580527D01*
X3366745D01*
X3289547Y1657726D01*
Y1710570D01*
X3289576Y1710844D01*
X3289736Y1711829D01*
X3289877Y1712445D01*
X3289882Y1712461D01*
X3289949Y1712618D01*
X3294639Y1717309D01*
X3301600Y1734113D01*
Y1752301D01*
X3294639Y1769105D01*
X3281778Y1781966D01*
X3264974Y1788927D01*
D02*
G37*
G36*
X6463640Y1476130D02*
Y1424940D01*
X6514830D01*
X6511510Y1437329D01*
X6502953Y1452151D01*
X6490851Y1464253D01*
X6476029Y1472810D01*
X6463640Y1476130D01*
D02*
G37*
G36*
X6438240D02*
X6425851Y1472810D01*
X6411029Y1464253D01*
X6398927Y1452151D01*
X6390370Y1437329D01*
X6387050Y1424940D01*
X6438240D01*
Y1476130D01*
D02*
G37*
G36*
X3037044Y1788927D02*
X3018856D01*
X3002051Y1781966D01*
X2989190Y1769105D01*
X2982230Y1752301D01*
Y1734113D01*
X2989190Y1717309D01*
X2993881Y1712618D01*
X2993948Y1712460D01*
X2993952Y1712447D01*
X2994093Y1711829D01*
X2994212Y1711096D01*
X2994283Y1710243D01*
Y1561830D01*
X2996846Y1548946D01*
X3004144Y1538024D01*
X3141034Y1401134D01*
X3151956Y1393836D01*
X3164840Y1391273D01*
X3416683D01*
X3416957Y1391244D01*
X3417942Y1391083D01*
X3418558Y1390943D01*
X3418574Y1390938D01*
X3418731Y1390871D01*
X3423422Y1386181D01*
X3440226Y1379220D01*
X3458414D01*
X3475218Y1386181D01*
X3488079Y1399042D01*
X3495040Y1415846D01*
Y1434034D01*
X3488079Y1450838D01*
X3475218Y1463699D01*
X3458414Y1470660D01*
X3440226D01*
X3423422Y1463699D01*
X3418731Y1459009D01*
X3418573Y1458942D01*
X3418560Y1458938D01*
X3417942Y1458797D01*
X3417209Y1458678D01*
X3416356Y1458607D01*
X3178785D01*
X3061617Y1575776D01*
Y1710570D01*
X3061646Y1710844D01*
X3061806Y1711829D01*
X3061947Y1712445D01*
X3061952Y1712461D01*
X3062019Y1712618D01*
X3066709Y1717309D01*
X3073670Y1734113D01*
Y1752301D01*
X3066709Y1769105D01*
X3053848Y1781966D01*
X3037044Y1788927D01*
D02*
G37*
G36*
X759460Y1373512D02*
Y1363980D01*
X768992D01*
X768293Y1365668D01*
X761148Y1372813D01*
X759460Y1373512D01*
D02*
G37*
G36*
X734060D02*
X732372Y1372813D01*
X725227Y1365668D01*
X724528Y1363980D01*
X734060D01*
Y1373512D01*
D02*
G37*
G36*
X6514830Y1399540D02*
X6463640D01*
Y1348350D01*
X6476029Y1351670D01*
X6490851Y1360227D01*
X6502953Y1372329D01*
X6511510Y1387151D01*
X6514830Y1399540D01*
D02*
G37*
G36*
X6438240D02*
X6387050D01*
X6390370Y1387151D01*
X6398927Y1372329D01*
X6411029Y1360227D01*
X6425851Y1351670D01*
X6438240Y1348350D01*
Y1399540D01*
D02*
G37*
G36*
X768992Y1338580D02*
X759460D01*
Y1329048D01*
X761148Y1329747D01*
X768293Y1336892D01*
X768992Y1338580D01*
D02*
G37*
G36*
X734060D02*
X724528D01*
X725227Y1336892D01*
X732372Y1329747D01*
X734060Y1329048D01*
Y1338580D01*
D02*
G37*
G36*
X5969100Y1672465D02*
X5146040D01*
X5123246Y1667930D01*
X5103921Y1655019D01*
X5091010Y1635694D01*
X5086475Y1612900D01*
X5091010Y1590106D01*
X5103921Y1570781D01*
X5123246Y1557870D01*
X5146040Y1553335D01*
X5944427D01*
X5988469Y1509293D01*
X5983609Y1497560D01*
X5965620D01*
Y1326920D01*
X6016486D01*
X6030075Y1317840D01*
X6052869Y1313306D01*
X6075663Y1317840D01*
X6089253Y1326920D01*
X6136260D01*
Y1497560D01*
X6114029D01*
X6107158Y1510260D01*
X6111164Y1530400D01*
X6106630Y1553194D01*
X6093718Y1572518D01*
X6011218Y1655019D01*
X5991894Y1667930D01*
X5969100Y1672465D01*
D02*
G37*
G36*
X746760Y1215016D02*
X485140D01*
X480638Y1214120D01*
X476046D01*
X471804Y1212363D01*
X467301Y1211467D01*
X463484Y1208917D01*
X459242Y1207159D01*
X455995Y1203913D01*
X452178Y1201362D01*
X449627Y1197545D01*
X446381Y1194298D01*
X444623Y1190056D01*
X442073Y1186239D01*
X441177Y1181736D01*
X439420Y1177494D01*
Y1172902D01*
X438524Y1168400D01*
X439420Y1163898D01*
Y1159306D01*
X441177Y1155064D01*
X442073Y1150561D01*
X444623Y1146744D01*
X446381Y1142502D01*
X449627Y1139255D01*
X452178Y1135438D01*
X455995Y1132887D01*
X459242Y1129641D01*
X463484Y1127883D01*
X467301Y1125333D01*
X471804Y1124437D01*
X476046Y1122680D01*
X480638D01*
X485140Y1121784D01*
X746760D01*
X751262Y1122680D01*
X755854D01*
X760096Y1124437D01*
X764599Y1125333D01*
X768416Y1127883D01*
X772658Y1129641D01*
X775905Y1132887D01*
X779722Y1135438D01*
X782273Y1139255D01*
X785519Y1142502D01*
X787277Y1146744D01*
X789827Y1150561D01*
X790723Y1155064D01*
X792480Y1159306D01*
Y1163898D01*
X793376Y1168400D01*
X792480Y1172902D01*
Y1177494D01*
X790723Y1181736D01*
X789827Y1186239D01*
X787277Y1190056D01*
X785519Y1194298D01*
X782273Y1197545D01*
X779722Y1201362D01*
X775905Y1203913D01*
X772658Y1207159D01*
X768416Y1208917D01*
X764599Y1211467D01*
X760096Y1212363D01*
X755854Y1214120D01*
X751262D01*
X746760Y1215016D01*
D02*
G37*
G36*
X1472134Y1849120D02*
X1453946D01*
X1437142Y1842159D01*
X1424281Y1829298D01*
X1417320Y1812494D01*
Y1794306D01*
X1424281Y1777502D01*
X1428971Y1772811D01*
X1429038Y1772653D01*
X1429042Y1772640D01*
X1429183Y1772022D01*
X1429302Y1771289D01*
X1429373Y1770436D01*
Y1155317D01*
X1429344Y1155043D01*
X1429183Y1154058D01*
X1429043Y1153442D01*
X1429038Y1153426D01*
X1428971Y1153269D01*
X1424281Y1148578D01*
X1417320Y1131774D01*
Y1113586D01*
X1424281Y1096782D01*
X1437142Y1083921D01*
X1453946Y1076960D01*
X1472134D01*
X1488938Y1083921D01*
X1501799Y1096782D01*
X1508760Y1113586D01*
Y1131774D01*
X1501799Y1148578D01*
X1497109Y1153269D01*
X1497042Y1153427D01*
X1497038Y1153440D01*
X1496897Y1154058D01*
X1496778Y1154791D01*
X1496707Y1155644D01*
Y1770763D01*
X1496736Y1771037D01*
X1496897Y1772022D01*
X1497037Y1772638D01*
X1497042Y1772654D01*
X1497109Y1772811D01*
X1501799Y1777502D01*
X1508760Y1794306D01*
Y1812494D01*
X1501799Y1829298D01*
X1488938Y1842159D01*
X1472134Y1849120D01*
D02*
G37*
G36*
X4677409Y1114880D02*
X4657391D01*
X4638896Y1107219D01*
X4624741Y1093064D01*
X4617080Y1074569D01*
Y1054551D01*
X4617568Y1053372D01*
X4608588Y1044392D01*
X4607409Y1044880D01*
X4587391D01*
X4586212Y1044392D01*
X4577232Y1053372D01*
X4577720Y1054551D01*
Y1074569D01*
X4570059Y1093064D01*
X4555904Y1107219D01*
X4537409Y1114880D01*
X4517391D01*
X4498896Y1107219D01*
X4484741Y1093064D01*
X4477080Y1074569D01*
Y1054551D01*
X4477568Y1053372D01*
X4468588Y1044392D01*
X4467409Y1044880D01*
X4447391D01*
X4428896Y1037219D01*
X4414741Y1023064D01*
X4407080Y1004569D01*
Y984551D01*
X4414741Y966056D01*
X4428896Y951901D01*
X4447391Y944240D01*
X4467409D01*
X4468588Y944729D01*
X4477569Y935748D01*
X4477080Y934569D01*
Y914551D01*
X4477568Y913372D01*
X4468588Y904392D01*
X4467409Y904880D01*
X4447391D01*
X4428896Y897219D01*
X4414741Y883064D01*
X4407080Y864569D01*
Y844551D01*
X4414741Y826056D01*
X4428896Y811901D01*
X4447391Y804240D01*
X4467409D01*
X4468588Y804729D01*
X4477569Y795748D01*
X4477080Y794569D01*
Y774551D01*
X4484741Y756056D01*
X4498896Y741901D01*
X4517391Y734240D01*
X4537409D01*
X4555904Y741901D01*
X4570059Y756056D01*
X4577720Y774551D01*
Y794569D01*
X4577232Y795748D01*
X4586212Y804728D01*
X4587391Y804240D01*
X4607409D01*
X4608588Y804729D01*
X4617569Y795748D01*
X4617080Y794569D01*
Y774551D01*
X4624741Y756056D01*
X4638896Y741901D01*
X4657391Y734240D01*
X4677409D01*
X4695904Y741901D01*
X4710059Y756056D01*
X4717720Y774551D01*
Y794569D01*
X4717232Y795748D01*
X4726212Y804728D01*
X4727391Y804240D01*
X4747409D01*
X4765904Y811901D01*
X4780059Y826056D01*
X4787720Y844551D01*
Y864569D01*
X4780059Y883064D01*
X4765904Y897219D01*
X4747409Y904880D01*
X4727391D01*
X4726212Y904392D01*
X4717232Y913372D01*
X4717720Y914551D01*
Y934569D01*
X4717232Y935748D01*
X4726212Y944728D01*
X4727391Y944240D01*
X4747409D01*
X4765904Y951901D01*
X4780059Y966056D01*
X4787720Y984551D01*
Y1004569D01*
X4780059Y1023064D01*
X4765904Y1037219D01*
X4747409Y1044880D01*
X4727391D01*
X4726212Y1044392D01*
X4717232Y1053372D01*
X4717720Y1054551D01*
Y1074569D01*
X4710059Y1093064D01*
X4695904Y1107219D01*
X4677409Y1114880D01*
D02*
G37*
G36*
X5641340Y1000132D02*
Y990600D01*
X5650872D01*
X5650173Y992288D01*
X5643028Y999433D01*
X5641340Y1000132D01*
D02*
G37*
G36*
X5615940D02*
X5614252Y999433D01*
X5607107Y992288D01*
X5606408Y990600D01*
X5615940D01*
Y1000132D01*
D02*
G37*
G36*
X6466839Y1010233D02*
Y959043D01*
X6518029D01*
X6514709Y971432D01*
X6506152Y986254D01*
X6494050Y998356D01*
X6479228Y1006913D01*
X6466839Y1010233D01*
D02*
G37*
G36*
X6441439D02*
X6429050Y1006913D01*
X6414228Y998356D01*
X6402126Y986254D01*
X6393569Y971432D01*
X6390249Y959043D01*
X6441439D01*
Y1010233D01*
D02*
G37*
G36*
X5650872Y965200D02*
X5641340D01*
Y955668D01*
X5643028Y956367D01*
X5650173Y963512D01*
X5650872Y965200D01*
D02*
G37*
G36*
X5615940D02*
X5606408D01*
X5607107Y963512D01*
X5614252Y956367D01*
X5615940Y955668D01*
Y965200D01*
D02*
G37*
G36*
X6518029Y933643D02*
X6466839D01*
Y882453D01*
X6479228Y885773D01*
X6494050Y894330D01*
X6506152Y906432D01*
X6514709Y921254D01*
X6518029Y933643D01*
D02*
G37*
G36*
X6441439D02*
X6390249D01*
X6393569Y921254D01*
X6402126Y906432D01*
X6414228Y894330D01*
X6429050Y885773D01*
X6441439Y882453D01*
Y933643D01*
D02*
G37*
G36*
X4254570Y2284037D02*
X3969950D01*
X3957067Y2281475D01*
X3946144Y2274177D01*
X3886238Y2214270D01*
X3878940Y2203348D01*
X3876377Y2190464D01*
Y2169256D01*
X3866425Y2159304D01*
X3859464Y2142500D01*
Y2124311D01*
X3866425Y2107507D01*
X3879286Y2094646D01*
X3896090Y2087685D01*
X3914279D01*
X3931083Y2094646D01*
X3943944Y2107507D01*
X3946806Y2114416D01*
X3960552D01*
X3963414Y2107507D01*
X3976275Y2094646D01*
X3993079Y2087685D01*
X4011268D01*
X4028072Y2094646D01*
X4040933Y2107507D01*
X4041884Y2109804D01*
X4055528Y2110554D01*
X4060636Y2102998D01*
Y1861997D01*
X4063199Y1849113D01*
X4070497Y1838191D01*
X5249234Y659454D01*
X5260156Y652156D01*
X5273040Y649593D01*
X6183655D01*
X6269313Y563935D01*
Y532515D01*
X6269308Y532460D01*
X6253096Y530325D01*
X6229908Y520721D01*
X6209996Y505442D01*
X6194718Y485530D01*
X6185113Y462342D01*
X6182932Y445775D01*
X6182384Y441617D01*
X6169575D01*
X6169027Y445775D01*
X6166846Y462342D01*
X6157241Y485530D01*
X6141963Y505442D01*
X6122051Y520721D01*
X6098863Y530325D01*
X6073980Y533601D01*
X6023979D01*
X5999096Y530325D01*
X5975908Y520721D01*
X5955996Y505442D01*
X5940718Y485530D01*
X5931113Y462342D01*
X5927837Y437459D01*
X5931113Y412576D01*
X5940718Y389388D01*
X5955996Y369476D01*
X5975908Y354197D01*
X5999096Y344593D01*
X6023979Y341317D01*
X6073980D01*
X6098863Y344593D01*
X6122051Y354197D01*
X6141963Y369476D01*
X6157241Y389388D01*
X6166846Y412576D01*
X6169027Y429143D01*
X6169575Y433302D01*
X6182384D01*
X6182932Y429143D01*
X6185113Y412576D01*
X6194718Y389388D01*
X6209996Y369476D01*
X6229908Y354197D01*
X6253096Y344593D01*
X6277979Y341317D01*
X6327980D01*
X6352863Y344593D01*
X6376051Y354197D01*
X6395963Y369476D01*
X6411241Y389388D01*
X6420846Y412576D01*
X6424122Y437459D01*
X6420846Y462342D01*
X6411241Y485530D01*
X6395963Y505442D01*
X6376051Y520721D01*
X6352863Y530325D01*
X6336651Y532460D01*
X6336646Y532514D01*
Y577879D01*
X6336647Y577881D01*
X6334084Y590764D01*
X6326786Y601687D01*
X6221406Y707066D01*
X6210484Y714364D01*
X6197600Y716927D01*
X5286985D01*
X4127970Y1875942D01*
Y2097555D01*
X4137922Y2107507D01*
X4144883Y2124311D01*
Y2142500D01*
X4137922Y2159304D01*
X4137906Y2159320D01*
X4142766Y2171053D01*
X4161815D01*
X5190814Y1142054D01*
X5201736Y1134756D01*
X5214620Y1132193D01*
X6183655D01*
X6220472Y1095376D01*
Y1046573D01*
X6220009Y1044183D01*
X6219023Y1041039D01*
X6217478Y1037408D01*
X6215309Y1033329D01*
X6212472Y1028838D01*
X6209098Y1024191D01*
X6199601Y1013131D01*
X6193852Y1007274D01*
X6192796Y1005661D01*
X6185866Y998731D01*
X6174633Y979275D01*
X6168819Y957575D01*
Y935110D01*
X6174633Y913410D01*
X6185866Y893955D01*
X6201751Y878070D01*
X6221207Y866837D01*
X6242906Y861023D01*
X6265372D01*
X6287071Y866837D01*
X6306527Y878070D01*
X6322412Y893955D01*
X6333644Y913410D01*
X6339459Y935110D01*
Y957575D01*
X6333644Y979275D01*
X6322412Y998731D01*
X6315634Y1005509D01*
X6314723Y1006964D01*
X6303420Y1018969D01*
X6299331Y1023982D01*
X6295805Y1028837D01*
X6292968Y1033329D01*
X6290800Y1037408D01*
X6289254Y1041039D01*
X6288269Y1044183D01*
X6287806Y1046573D01*
Y1109321D01*
X6285243Y1122205D01*
X6277945Y1133127D01*
X6231508Y1179564D01*
X6231566Y1180154D01*
X6275406Y1223994D01*
X6282704Y1234916D01*
X6285267Y1247800D01*
Y1312140D01*
X6285728Y1314526D01*
X6286716Y1317700D01*
X6288262Y1321364D01*
X6290435Y1325494D01*
X6293270Y1330040D01*
X6296644Y1334755D01*
X6306108Y1345966D01*
X6311837Y1351919D01*
X6312831Y1353471D01*
X6319213Y1359852D01*
X6330446Y1379308D01*
X6336260Y1401007D01*
Y1423473D01*
X6330446Y1445172D01*
X6319213Y1464628D01*
X6303328Y1480513D01*
X6283872Y1491746D01*
X6262173Y1497560D01*
X6239707D01*
X6218008Y1491746D01*
X6198552Y1480513D01*
X6182667Y1464628D01*
X6171434Y1445172D01*
X6165620Y1423473D01*
Y1401007D01*
X6171434Y1379308D01*
X6182667Y1359852D01*
X6190013Y1352506D01*
X6190963Y1351019D01*
X6202318Y1339183D01*
X6206409Y1334248D01*
X6209940Y1329454D01*
X6212774Y1325022D01*
X6214943Y1320987D01*
X6216484Y1317396D01*
X6217468Y1314274D01*
X6217933Y1311888D01*
Y1261745D01*
X6193815Y1237627D01*
X5314925D01*
X4278376Y2274177D01*
X4267453Y2281474D01*
X4254570Y2284037D01*
D02*
G37*
G36*
X6139459Y1031663D02*
X5968819D01*
Y861023D01*
X6139459D01*
Y1031663D01*
D02*
G37*
G36*
X1011552Y640714D02*
Y554460D01*
X1071977D01*
Y569260D01*
X1069486Y588187D01*
X1062180Y605823D01*
X1050559Y620968D01*
X1035414Y632589D01*
X1017778Y639894D01*
X1011552Y640714D01*
D02*
G37*
G36*
X986152D02*
X979925Y639894D01*
X962289Y632589D01*
X947144Y620968D01*
X935523Y605823D01*
X928218Y588187D01*
X925726Y569260D01*
Y554460D01*
X986152D01*
Y640714D01*
D02*
G37*
G36*
X266552D02*
Y554460D01*
X326978D01*
Y569260D01*
X324486Y588187D01*
X317180Y605823D01*
X305559Y620968D01*
X290415Y632589D01*
X272778Y639894D01*
X266552Y640714D01*
D02*
G37*
G36*
X241152D02*
X234926Y639894D01*
X217289Y632589D01*
X202144Y620968D01*
X190523Y605823D01*
X183218Y588187D01*
X180726Y569260D01*
Y554460D01*
X241152D01*
Y640714D01*
D02*
G37*
G36*
X986152Y529060D02*
X925726D01*
Y514260D01*
X928218Y495334D01*
X933290Y483088D01*
X922524Y475894D01*
X910520Y487897D01*
X888350Y497081D01*
X864353D01*
X842183Y487897D01*
X825215Y470929D01*
X816032Y448759D01*
Y424762D01*
X825215Y402592D01*
X842183Y385624D01*
X864353Y376441D01*
X888350D01*
X910520Y385624D01*
X927489Y402592D01*
X936672Y424762D01*
Y448759D01*
X930749Y463056D01*
X941843Y469461D01*
X947144Y462553D01*
X962289Y450932D01*
X979925Y443626D01*
X986152Y442807D01*
Y529060D01*
D02*
G37*
G36*
X6581980Y513106D02*
X6569680D01*
Y450159D01*
X6655955D01*
X6655049Y457038D01*
X6647492Y475283D01*
X6635470Y490950D01*
X6619803Y502971D01*
X6601559Y510529D01*
X6581980Y513106D01*
D02*
G37*
G36*
X6544280D02*
X6531979D01*
X6512400Y510529D01*
X6494156Y502971D01*
X6478489Y490950D01*
X6466467Y475283D01*
X6458910Y457038D01*
X6458004Y450159D01*
X6544280D01*
Y513106D01*
D02*
G37*
G36*
X1071977Y529060D02*
X1011552D01*
Y442807D01*
X1017778Y443626D01*
X1035414Y450932D01*
X1050559Y462553D01*
X1062180Y477698D01*
X1069486Y495334D01*
X1071977Y514260D01*
Y529060D01*
D02*
G37*
G36*
X241152D02*
X180726D01*
Y514260D01*
X183218Y495334D01*
X190523Y477698D01*
X202144Y462553D01*
X217289Y450932D01*
X234926Y443626D01*
X241152Y442807D01*
Y529060D01*
D02*
G37*
G36*
X326978D02*
X266552D01*
Y442807D01*
X272778Y443626D01*
X290415Y450932D01*
X305559Y462553D01*
X310860Y469461D01*
X321954Y463056D01*
X316032Y448759D01*
Y424762D01*
X325215Y402592D01*
X342183Y385624D01*
X364353Y376441D01*
X388350D01*
X410520Y385624D01*
X427489Y402592D01*
X436672Y424762D01*
Y448759D01*
X427489Y470929D01*
X410520Y487897D01*
X388350Y497081D01*
X364353D01*
X342183Y487897D01*
X330180Y475894D01*
X319413Y483088D01*
X324486Y495334D01*
X326978Y514260D01*
Y529060D01*
D02*
G37*
G36*
X6655955Y424759D02*
X6569680D01*
Y361812D01*
X6581980D01*
X6601559Y364390D01*
X6619803Y371947D01*
X6635470Y383968D01*
X6647492Y399635D01*
X6655049Y417880D01*
X6655955Y424759D01*
D02*
G37*
G36*
X6544280D02*
X6458004D01*
X6458910Y417880D01*
X6466467Y399635D01*
X6478489Y383968D01*
X6494156Y371947D01*
X6512400Y364390D01*
X6531979Y361812D01*
X6544280D01*
Y424759D01*
D02*
G37*
G36*
X1026552Y250360D02*
Y174460D01*
X1072478D01*
Y194260D01*
X1068016Y216696D01*
X1055307Y235715D01*
X1036287Y248424D01*
X1026552Y250360D01*
D02*
G37*
G36*
X1001152D02*
X991417Y248424D01*
X972397Y235715D01*
X959688Y216696D01*
X955225Y194260D01*
Y174460D01*
X1001152D01*
Y250360D01*
D02*
G37*
G36*
X251552D02*
Y174460D01*
X297478D01*
Y194260D01*
X293015Y216696D01*
X280307Y235715D01*
X261287Y248424D01*
X251552Y250360D01*
D02*
G37*
G36*
X226152D02*
X216416Y248424D01*
X197397Y235715D01*
X184688Y216696D01*
X180225Y194260D01*
Y174460D01*
X226152D01*
Y250360D01*
D02*
G37*
G36*
X1072478Y149060D02*
X1026552D01*
Y73160D01*
X1036287Y75097D01*
X1055307Y87806D01*
X1068016Y106825D01*
X1072478Y129261D01*
Y149060D01*
D02*
G37*
G36*
X1001152D02*
X955225D01*
Y129261D01*
X959688Y106825D01*
X972397Y87806D01*
X991417Y75097D01*
X1001152Y73160D01*
Y149060D01*
D02*
G37*
G36*
X297478D02*
X251552D01*
Y73160D01*
X261287Y75097D01*
X280307Y87806D01*
X293015Y106825D01*
X297478Y129261D01*
Y149060D01*
D02*
G37*
G36*
X226152D02*
X180225D01*
Y129261D01*
X184688Y106825D01*
X197397Y87806D01*
X216416Y75097D01*
X226152Y73160D01*
Y149060D01*
D02*
G37*
%LPD*%
G36*
X5823255Y5838013D02*
X5822391Y5836743D01*
X5821629Y5835291D01*
X5820969Y5833655D01*
X5820410Y5831837D01*
X5819953Y5829835D01*
X5819597Y5827652D01*
X5819343Y5825285D01*
X5819140Y5820003D01*
X5793740D01*
X5793689Y5822735D01*
X5793283Y5827652D01*
X5792927Y5829835D01*
X5792470Y5831837D01*
X5791911Y5833655D01*
X5791251Y5835291D01*
X5790489Y5836743D01*
X5789625Y5838013D01*
X5788660Y5839101D01*
X5824220D01*
X5823255Y5838013D01*
D02*
G37*
G36*
X5818175Y4636593D02*
X5817311Y4635323D01*
X5816549Y4633871D01*
X5815889Y4632235D01*
X5815330Y4630417D01*
X5814873Y4628415D01*
X5814517Y4626232D01*
X5814263Y4623865D01*
X5814060Y4618583D01*
X5788660D01*
X5788609Y4621315D01*
X5788203Y4626232D01*
X5787847Y4628415D01*
X5787390Y4630417D01*
X5786831Y4632235D01*
X5786171Y4633871D01*
X5785409Y4635323D01*
X5784545Y4636593D01*
X5783580Y4637681D01*
X5819140D01*
X5818175Y4636593D01*
D02*
G37*
G36*
X3529755Y4114957D02*
X3527851Y4112964D01*
X3526218Y4111063D01*
X3524856Y4109254D01*
X3523764Y4107537D01*
X3522943Y4105911D01*
X3522392Y4104378D01*
X3522112Y4102936D01*
X3522103Y4101586D01*
X3522364Y4100328D01*
X3522896Y4099162D01*
X3489552Y4108804D01*
X3509357Y4130480D01*
X3529755Y4114957D01*
D02*
G37*
G36*
X3443752Y4102503D02*
X3441859Y4100535D01*
X3438689Y4096767D01*
X3437411Y4094966D01*
X3436340Y4093221D01*
X3435473Y4091531D01*
X3434812Y4089898D01*
X3434356Y4088320D01*
X3434105Y4086798D01*
X3434060Y4085331D01*
X3408176Y4109715D01*
X3409607Y4109841D01*
X3411098Y4110165D01*
X3412648Y4110685D01*
X3414259Y4111402D01*
X3415928Y4112317D01*
X3417658Y4113428D01*
X3419447Y4114737D01*
X3423204Y4117945D01*
X3425173Y4119845D01*
X3443752Y4102503D01*
D02*
G37*
G36*
X1309471Y4927398D02*
X1310741Y4926534D01*
X1312194Y4925772D01*
X1313829Y4925112D01*
X1315648Y4924553D01*
X1317649Y4924096D01*
X1319833Y4923740D01*
X1322200Y4923486D01*
X1327481Y4923283D01*
Y4897883D01*
X1324749Y4897832D01*
X1319833Y4897426D01*
X1317649Y4897070D01*
X1315648Y4896613D01*
X1313829Y4896054D01*
X1312194Y4895394D01*
X1310741Y4894632D01*
X1309471Y4893768D01*
X1308383Y4892803D01*
Y4928363D01*
X1309471Y4927398D01*
D02*
G37*
G36*
X1306757Y4013029D02*
X1308034Y4012183D01*
X1309493Y4011437D01*
X1311134Y4010790D01*
X1312957Y4010243D01*
X1314962Y4009795D01*
X1317149Y4009447D01*
X1319518Y4009198D01*
X1324803Y4009000D01*
X1325223Y3983600D01*
X1322492Y3983548D01*
X1317580Y3983133D01*
X1315399Y3982771D01*
X1313403Y3982304D01*
X1311589Y3981734D01*
X1309960Y3981060D01*
X1308513Y3980283D01*
X1307251Y3979402D01*
X1306172Y3978417D01*
X1305663Y4013974D01*
X1306757Y4013029D01*
D02*
G37*
G36*
X3656507Y3763315D02*
X3657777Y3762451D01*
X3659229Y3761689D01*
X3660865Y3761029D01*
X3662683Y3760470D01*
X3664685Y3760013D01*
X3666868Y3759657D01*
X3669235Y3759403D01*
X3674517Y3759200D01*
Y3733800D01*
X3671785Y3733749D01*
X3666868Y3733343D01*
X3664685Y3732987D01*
X3662683Y3732530D01*
X3660865Y3731971D01*
X3659229Y3731311D01*
X3657777Y3730549D01*
X3656507Y3729685D01*
X3655419Y3728720D01*
Y3764280D01*
X3656507Y3763315D01*
D02*
G37*
G36*
X4360821Y3652520D02*
X4359733Y3653485D01*
X4358463Y3654349D01*
X4357011Y3655111D01*
X4355375Y3655771D01*
X4353557Y3656330D01*
X4351555Y3656787D01*
X4349372Y3657143D01*
X4347005Y3657397D01*
X4341723Y3657600D01*
Y3683000D01*
X4344455Y3683051D01*
X4349372Y3683457D01*
X4351555Y3683813D01*
X4353557Y3684270D01*
X4355375Y3684829D01*
X4357011Y3685489D01*
X4358463Y3686251D01*
X4359733Y3687115D01*
X4360821Y3688080D01*
Y3652520D01*
D02*
G37*
G36*
X4497343Y3586527D02*
X4495949Y3586348D01*
X4494491Y3585977D01*
X4492969Y3585415D01*
X4491383Y3584661D01*
X4489734Y3583714D01*
X4488020Y3582576D01*
X4486242Y3581246D01*
X4482495Y3578011D01*
X4480526Y3576105D01*
X4461092Y3592593D01*
X4462982Y3594561D01*
X4466128Y3598335D01*
X4467384Y3600140D01*
X4468429Y3601891D01*
X4469262Y3603588D01*
X4469884Y3605230D01*
X4470295Y3606818D01*
X4470495Y3608351D01*
X4470483Y3609831D01*
X4497343Y3586527D01*
D02*
G37*
G36*
X4350466Y3546037D02*
X4349366Y3546965D01*
X4348085Y3547795D01*
X4346622Y3548528D01*
X4344977Y3549162D01*
X4343151Y3549699D01*
X4341142Y3550139D01*
X4338953Y3550481D01*
X4334028Y3550871D01*
X4331294Y3550920D01*
X4330521Y3576320D01*
X4333251Y3576373D01*
X4338159Y3576794D01*
X4340337Y3577163D01*
X4342329Y3577636D01*
X4344138Y3578215D01*
X4345762Y3578900D01*
X4347202Y3579690D01*
X4348458Y3580585D01*
X4349530Y3581585D01*
X4350466Y3546037D01*
D02*
G37*
G36*
X4487926Y3487421D02*
X4486475Y3487335D01*
X4484966Y3487048D01*
X4483400Y3486559D01*
X4481776Y3485870D01*
X4480095Y3484979D01*
X4478357Y3483887D01*
X4476561Y3482594D01*
X4474708Y3481100D01*
X4470830Y3477509D01*
X4452869Y3495470D01*
X4454765Y3497438D01*
X4457954Y3501201D01*
X4459247Y3502997D01*
X4460339Y3504735D01*
X4461230Y3506416D01*
X4461919Y3508040D01*
X4462408Y3509606D01*
X4462695Y3511115D01*
X4462781Y3512566D01*
X4487926Y3487421D01*
D02*
G37*
G36*
X3815717Y3480294D02*
X3814631Y3479283D01*
X3813659Y3478081D01*
X3812801Y3476688D01*
X3812058Y3475105D01*
X3811429Y3473331D01*
X3810915Y3471367D01*
X3810515Y3469211D01*
X3810229Y3466865D01*
X3810057Y3464328D01*
X3810000Y3461600D01*
X3784600Y3464560D01*
X3784557Y3467305D01*
X3784216Y3472250D01*
X3783918Y3474451D01*
X3783534Y3476471D01*
X3783065Y3478309D01*
X3782510Y3479966D01*
X3781871Y3481442D01*
X3781146Y3482736D01*
X3780335Y3483850D01*
X3815717Y3480294D01*
D02*
G37*
G36*
X3732835Y3460573D02*
X3731971Y3459303D01*
X3731209Y3457851D01*
X3730549Y3456215D01*
X3729990Y3454397D01*
X3729533Y3452395D01*
X3729177Y3450212D01*
X3728923Y3447845D01*
X3728720Y3442563D01*
X3703320D01*
X3703269Y3445295D01*
X3702863Y3450212D01*
X3702507Y3452395D01*
X3702050Y3454397D01*
X3701491Y3456215D01*
X3700831Y3457851D01*
X3700069Y3459303D01*
X3699205Y3460573D01*
X3698240Y3461661D01*
X3733800D01*
X3732835Y3460573D01*
D02*
G37*
G36*
X3874947Y3334055D02*
X3876217Y3333191D01*
X3877669Y3332429D01*
X3879305Y3331769D01*
X3881123Y3331210D01*
X3883125Y3330753D01*
X3885308Y3330397D01*
X3887675Y3330143D01*
X3892957Y3329940D01*
Y3304540D01*
X3890225Y3304489D01*
X3885308Y3304083D01*
X3883125Y3303727D01*
X3881123Y3303270D01*
X3879305Y3302711D01*
X3877669Y3302051D01*
X3876217Y3301289D01*
X3874947Y3300425D01*
X3873859Y3299460D01*
Y3335020D01*
X3874947Y3334055D01*
D02*
G37*
G36*
X3527806Y3289301D02*
X3526355Y3289215D01*
X3524846Y3288928D01*
X3523280Y3288439D01*
X3521656Y3287750D01*
X3519975Y3286859D01*
X3518237Y3285767D01*
X3516441Y3284474D01*
X3514588Y3282980D01*
X3510710Y3279389D01*
X3492749Y3297350D01*
X3494645Y3299318D01*
X3497834Y3303081D01*
X3499127Y3304877D01*
X3500219Y3306615D01*
X3501110Y3308296D01*
X3501799Y3309920D01*
X3502288Y3311486D01*
X3502575Y3312995D01*
X3502661Y3314446D01*
X3527806Y3289301D01*
D02*
G37*
G36*
X3874947Y3242615D02*
X3876217Y3241751D01*
X3877669Y3240989D01*
X3879305Y3240329D01*
X3881123Y3239770D01*
X3883125Y3239313D01*
X3885308Y3238957D01*
X3887675Y3238703D01*
X3892957Y3238500D01*
Y3213100D01*
X3890225Y3213049D01*
X3885308Y3212643D01*
X3883125Y3212287D01*
X3881123Y3211830D01*
X3879305Y3211271D01*
X3877669Y3210611D01*
X3876217Y3209849D01*
X3874947Y3208985D01*
X3873859Y3208020D01*
Y3243580D01*
X3874947Y3242615D01*
D02*
G37*
G36*
X3569614Y3208416D02*
X3568889Y3207122D01*
X3568250Y3205646D01*
X3567695Y3203989D01*
X3567226Y3202151D01*
X3566842Y3200131D01*
X3566544Y3197930D01*
X3566203Y3192985D01*
X3566160Y3190240D01*
X3540760Y3187280D01*
X3540703Y3190008D01*
X3540245Y3194891D01*
X3539845Y3197047D01*
X3539331Y3199011D01*
X3538702Y3200785D01*
X3537959Y3202369D01*
X3537101Y3203761D01*
X3536129Y3204963D01*
X3535043Y3205974D01*
X3570425Y3209530D01*
X3569614Y3208416D01*
D02*
G37*
G36*
X1308185Y3089475D02*
X1308472Y3087966D01*
X1308961Y3086400D01*
X1309650Y3084776D01*
X1310541Y3083095D01*
X1311633Y3081357D01*
X1312926Y3079561D01*
X1314420Y3077708D01*
X1318011Y3073830D01*
X1300050Y3055869D01*
X1298082Y3057765D01*
X1294319Y3060954D01*
X1292523Y3062247D01*
X1290785Y3063339D01*
X1289104Y3064230D01*
X1287480Y3064919D01*
X1285914Y3065408D01*
X1284405Y3065695D01*
X1282954Y3065781D01*
X1308099Y3090926D01*
X1308185Y3089475D01*
D02*
G37*
G36*
X3277358Y3018111D02*
X3276278Y3017095D01*
X3275312Y3015888D01*
X3274460Y3014491D01*
X3273721Y3012904D01*
X3273096Y3011126D01*
X3272584Y3009159D01*
X3272186Y3007002D01*
X3271902Y3004654D01*
X3271732Y3002116D01*
X3271675Y2999389D01*
X3246275Y3002165D01*
X3246232Y3004908D01*
X3245886Y3009853D01*
X3245584Y3012053D01*
X3245195Y3014072D01*
X3244720Y3015910D01*
X3244158Y3017567D01*
X3243510Y3019042D01*
X3242776Y3020337D01*
X3241955Y3021450D01*
X3277358Y3018111D01*
D02*
G37*
G36*
X3149346Y2895601D02*
X3147895Y2895515D01*
X3146386Y2895228D01*
X3144820Y2894739D01*
X3143196Y2894050D01*
X3141515Y2893159D01*
X3139777Y2892067D01*
X3137981Y2890774D01*
X3136128Y2889280D01*
X3132250Y2885689D01*
X3114289Y2903650D01*
X3116185Y2905618D01*
X3119374Y2909381D01*
X3120667Y2911177D01*
X3121759Y2912915D01*
X3122650Y2914596D01*
X3123339Y2916220D01*
X3123828Y2917786D01*
X3124115Y2919295D01*
X3124201Y2920746D01*
X3149346Y2895601D01*
D02*
G37*
G36*
X3073251Y2433900D02*
X3073657Y2428984D01*
X3074013Y2426800D01*
X3074470Y2424799D01*
X3075029Y2422981D01*
X3075689Y2421345D01*
X3076451Y2419892D01*
X3077315Y2418622D01*
X3078280Y2417535D01*
X3042720D01*
X3043685Y2418622D01*
X3044549Y2419892D01*
X3045311Y2421345D01*
X3045971Y2422981D01*
X3046530Y2424799D01*
X3046987Y2426800D01*
X3047343Y2428984D01*
X3047597Y2431351D01*
X3047800Y2436633D01*
X3073200D01*
X3073251Y2433900D01*
D02*
G37*
G36*
X3271675Y2435071D02*
X3271718Y2432327D01*
X3272064Y2427383D01*
X3272366Y2425183D01*
X3272755Y2423164D01*
X3273230Y2421326D01*
X3273792Y2419669D01*
X3274439Y2418193D01*
X3275174Y2416899D01*
X3275994Y2415785D01*
X3240592Y2419124D01*
X3241671Y2420141D01*
X3242638Y2421348D01*
X3243490Y2422745D01*
X3244229Y2424332D01*
X3244854Y2426109D01*
X3245366Y2428077D01*
X3245763Y2430234D01*
X3246048Y2432582D01*
X3246218Y2435119D01*
X3246275Y2437847D01*
X3271675Y2435071D01*
D02*
G37*
G36*
X5653898Y2329575D02*
X5657661Y2326386D01*
X5659457Y2325093D01*
X5661195Y2324001D01*
X5662876Y2323110D01*
X5664500Y2322421D01*
X5666066Y2321932D01*
X5667575Y2321645D01*
X5669026Y2321559D01*
X5643881Y2296414D01*
X5643795Y2297865D01*
X5643508Y2299374D01*
X5643019Y2300940D01*
X5642330Y2302564D01*
X5641439Y2304245D01*
X5640347Y2305983D01*
X5639054Y2307779D01*
X5637560Y2309632D01*
X5633969Y2313510D01*
X5651930Y2331471D01*
X5653898Y2329575D01*
D02*
G37*
G36*
X3354221Y1972432D02*
X3354258Y1969676D01*
X3354818Y1962512D01*
X3355153Y1960493D01*
X3355564Y1958659D01*
X3356048Y1957009D01*
X3356608Y1955543D01*
X3357242Y1954262D01*
X3357951Y1953165D01*
X3322826Y1958710D01*
X3323965Y1959662D01*
X3324984Y1960812D01*
X3325883Y1962159D01*
X3326663Y1963703D01*
X3327322Y1965444D01*
X3327862Y1967383D01*
X3328281Y1969519D01*
X3328581Y1971852D01*
X3328761Y1974382D01*
X3328821Y1977109D01*
X3354221Y1972432D01*
D02*
G37*
G36*
X3117176Y1959064D02*
X3118446Y1958201D01*
X3119899Y1957439D01*
X3121535Y1956778D01*
X3123353Y1956220D01*
X3125354Y1955762D01*
X3127538Y1955407D01*
X3129905Y1955153D01*
X3135187Y1954950D01*
Y1929550D01*
X3132454Y1929499D01*
X3127538Y1929092D01*
X3125354Y1928737D01*
X3123353Y1928280D01*
X3121535Y1927721D01*
X3119899Y1927060D01*
X3118446Y1926298D01*
X3117176Y1925435D01*
X3116089Y1924470D01*
Y1960030D01*
X3117176Y1959064D01*
D02*
G37*
G36*
X1307887Y1955126D02*
X1309125Y1954201D01*
X1310550Y1953385D01*
X1312161Y1952678D01*
X1313958Y1952080D01*
X1315942Y1951590D01*
X1318112Y1951209D01*
X1320468Y1950938D01*
X1325740Y1950720D01*
X1324184Y1925320D01*
X1321447Y1925273D01*
X1316514Y1924900D01*
X1314320Y1924573D01*
X1312306Y1924152D01*
X1310473Y1923639D01*
X1308822Y1923031D01*
X1307351Y1922331D01*
X1306062Y1921537D01*
X1304953Y1920649D01*
X1306835Y1956159D01*
X1307887Y1955126D01*
D02*
G37*
G36*
X1875967Y1890072D02*
X1877237Y1889209D01*
X1878689Y1888447D01*
X1880325Y1887786D01*
X1882143Y1887228D01*
X1884145Y1886770D01*
X1886328Y1886415D01*
X1888695Y1886161D01*
X1893977Y1885958D01*
Y1860558D01*
X1891245Y1860507D01*
X1886328Y1860100D01*
X1884145Y1859745D01*
X1882143Y1859288D01*
X1880325Y1858729D01*
X1878689Y1858068D01*
X1877237Y1857306D01*
X1875967Y1856443D01*
X1874879Y1855478D01*
Y1891038D01*
X1875967Y1890072D01*
D02*
G37*
G36*
X3466007Y1815135D02*
X3467277Y1814271D01*
X3468729Y1813509D01*
X3470365Y1812849D01*
X3472183Y1812290D01*
X3474185Y1811833D01*
X3476368Y1811477D01*
X3478735Y1811223D01*
X3484017Y1811020D01*
Y1785620D01*
X3481285Y1785569D01*
X3476368Y1785163D01*
X3474185Y1784807D01*
X3472183Y1784350D01*
X3470365Y1783791D01*
X3468729Y1783131D01*
X3467277Y1782369D01*
X3466007Y1781505D01*
X3464919Y1780540D01*
Y1816100D01*
X3466007Y1815135D01*
D02*
G37*
G36*
X2240978Y1694575D02*
X2244742Y1691386D01*
X2246538Y1690093D01*
X2248276Y1689001D01*
X2249957Y1688110D01*
X2251580Y1687421D01*
X2253147Y1686932D01*
X2254655Y1686645D01*
X2256107Y1686559D01*
X2230962Y1661414D01*
X2230876Y1662865D01*
X2230588Y1664374D01*
X2230100Y1665940D01*
X2229410Y1667564D01*
X2228520Y1669245D01*
X2227428Y1670983D01*
X2226135Y1672779D01*
X2224641Y1674632D01*
X2221050Y1678510D01*
X2239011Y1696471D01*
X2240978Y1694575D01*
D02*
G37*
G36*
X1897131Y1449910D02*
X1895235Y1447942D01*
X1892046Y1444179D01*
X1890753Y1442383D01*
X1889661Y1440645D01*
X1888770Y1438964D01*
X1888081Y1437340D01*
X1887592Y1435774D01*
X1887305Y1434265D01*
X1887219Y1432814D01*
X1862074Y1457959D01*
X1863525Y1458045D01*
X1865034Y1458332D01*
X1866600Y1458821D01*
X1868224Y1459510D01*
X1869905Y1460401D01*
X1871643Y1461493D01*
X1873439Y1462786D01*
X1875292Y1464280D01*
X1879170Y1467871D01*
X1897131Y1449910D01*
D02*
G37*
G36*
X1770131Y1447370D02*
X1768235Y1445402D01*
X1765046Y1441639D01*
X1763753Y1439843D01*
X1762661Y1438105D01*
X1761770Y1436424D01*
X1761081Y1434800D01*
X1760592Y1433234D01*
X1760305Y1431725D01*
X1760219Y1430274D01*
X1735074Y1455419D01*
X1736525Y1455505D01*
X1738034Y1455792D01*
X1739600Y1456281D01*
X1741224Y1456970D01*
X1742905Y1457861D01*
X1744643Y1458953D01*
X1746439Y1460246D01*
X1748292Y1461740D01*
X1752170Y1465331D01*
X1770131Y1447370D01*
D02*
G37*
G36*
X2338375Y1436193D02*
X2337511Y1434923D01*
X2336749Y1433471D01*
X2336089Y1431835D01*
X2335530Y1430017D01*
X2335073Y1428015D01*
X2334717Y1425832D01*
X2334463Y1423465D01*
X2334260Y1418183D01*
X2308860D01*
X2308809Y1420915D01*
X2308403Y1425832D01*
X2308047Y1428015D01*
X2307590Y1430017D01*
X2307031Y1431835D01*
X2306371Y1433471D01*
X2305609Y1434923D01*
X2304745Y1436193D01*
X2303780Y1437281D01*
X2339340D01*
X2338375Y1436193D01*
D02*
G37*
G36*
X3712553Y1231031D02*
X3711478Y1231678D01*
X3710215Y1232258D01*
X3708765Y1232769D01*
X3707126Y1233213D01*
X3705300Y1233588D01*
X3701084Y1234133D01*
X3698694Y1234304D01*
X3693350Y1234440D01*
X3687686Y1259840D01*
X3690414Y1259901D01*
X3695266Y1260391D01*
X3697390Y1260820D01*
X3699313Y1261371D01*
X3701034Y1262044D01*
X3702554Y1262841D01*
X3703873Y1263759D01*
X3704990Y1264800D01*
X3705906Y1265964D01*
X3712553Y1231031D01*
D02*
G37*
G36*
X3797046Y1214121D02*
X3795595Y1214035D01*
X3794086Y1213748D01*
X3792520Y1213259D01*
X3790896Y1212570D01*
X3789215Y1211679D01*
X3787477Y1210587D01*
X3785681Y1209294D01*
X3783828Y1207800D01*
X3779950Y1204209D01*
X3761989Y1222170D01*
X3763885Y1224138D01*
X3767074Y1227901D01*
X3768367Y1229697D01*
X3769459Y1231435D01*
X3770350Y1233116D01*
X3771039Y1234740D01*
X3771528Y1236306D01*
X3771815Y1237815D01*
X3771901Y1239266D01*
X3797046Y1214121D01*
D02*
G37*
G36*
X1972487Y738175D02*
X1973757Y737311D01*
X1975209Y736549D01*
X1976845Y735889D01*
X1978663Y735330D01*
X1980665Y734873D01*
X1982848Y734517D01*
X1985215Y734263D01*
X1990497Y734060D01*
Y708660D01*
X1987765Y708609D01*
X1982848Y708203D01*
X1980665Y707847D01*
X1978663Y707390D01*
X1976845Y706831D01*
X1975209Y706171D01*
X1973757Y705409D01*
X1972487Y704545D01*
X1971399Y703580D01*
Y739140D01*
X1972487Y738175D01*
D02*
G37*
G36*
X4078991Y604090D02*
X4077095Y602122D01*
X4073906Y598359D01*
X4072613Y596563D01*
X4071521Y594825D01*
X4070630Y593144D01*
X4069941Y591520D01*
X4069452Y589954D01*
X4069165Y588445D01*
X4069079Y586994D01*
X4043934Y612139D01*
X4045385Y612225D01*
X4046894Y612512D01*
X4048460Y613001D01*
X4050084Y613690D01*
X4051765Y614581D01*
X4053503Y615673D01*
X4055299Y616966D01*
X4057152Y618460D01*
X4061030Y622051D01*
X4078991Y604090D01*
D02*
G37*
G36*
X3300139Y544064D02*
X3301409Y543201D01*
X3302862Y542439D01*
X3304497Y541778D01*
X3306316Y541220D01*
X3308317Y540762D01*
X3310501Y540407D01*
X3312868Y540153D01*
X3318150Y539950D01*
Y514550D01*
X3315417Y514499D01*
X3310501Y514092D01*
X3308317Y513737D01*
X3306316Y513280D01*
X3304497Y512721D01*
X3302862Y512060D01*
X3301409Y511298D01*
X3300139Y510435D01*
X3299052Y509470D01*
Y545030D01*
X3300139Y544064D01*
D02*
G37*
G36*
X3913886Y421641D02*
X3912435Y421555D01*
X3910926Y421268D01*
X3909360Y420779D01*
X3907736Y420090D01*
X3906055Y419199D01*
X3904317Y418107D01*
X3902521Y416814D01*
X3900668Y415320D01*
X3896790Y411729D01*
X3878829Y429690D01*
X3880725Y431658D01*
X3883914Y435421D01*
X3885207Y437217D01*
X3886299Y438955D01*
X3887190Y440636D01*
X3887879Y442260D01*
X3888368Y443826D01*
X3888655Y445335D01*
X3888741Y446786D01*
X3913886Y421641D01*
D02*
G37*
G36*
X5135898Y439975D02*
X5139661Y436786D01*
X5141457Y435493D01*
X5143195Y434401D01*
X5144876Y433510D01*
X5146500Y432821D01*
X5148066Y432332D01*
X5149575Y432045D01*
X5151026Y431959D01*
X5125881Y406814D01*
X5125795Y408265D01*
X5125508Y409774D01*
X5125019Y411340D01*
X5124330Y412964D01*
X5123439Y414645D01*
X5122347Y416383D01*
X5121054Y418179D01*
X5119560Y420032D01*
X5115969Y423910D01*
X5133930Y441871D01*
X5135898Y439975D01*
D02*
G37*
G36*
X2164137Y386495D02*
X2165407Y385631D01*
X2166860Y384869D01*
X2168495Y384209D01*
X2170313Y383650D01*
X2172315Y383193D01*
X2174499Y382837D01*
X2176865Y382583D01*
X2182147Y382380D01*
Y356980D01*
X2179415Y356929D01*
X2174499Y356523D01*
X2172315Y356167D01*
X2170313Y355710D01*
X2168495Y355151D01*
X2166860Y354491D01*
X2165407Y353729D01*
X2164137Y352865D01*
X2163049Y351900D01*
Y387460D01*
X2164137Y386495D01*
D02*
G37*
G36*
X3610787Y4042715D02*
X3612057Y4041851D01*
X3613509Y4041089D01*
X3615145Y4040429D01*
X3616963Y4039870D01*
X3618965Y4039413D01*
X3621148Y4039057D01*
X3623515Y4038803D01*
X3628797Y4038600D01*
Y4013200D01*
X3626065Y4013149D01*
X3621148Y4012743D01*
X3618965Y4012387D01*
X3616963Y4011930D01*
X3615145Y4011371D01*
X3613509Y4010711D01*
X3612057Y4009949D01*
X3610787Y4009085D01*
X3609699Y4008120D01*
Y4043680D01*
X3610787Y4042715D01*
D02*
G37*
G36*
X5658978Y3553855D02*
X5662741Y3550666D01*
X5664537Y3549373D01*
X5666275Y3548281D01*
X5667956Y3547390D01*
X5669580Y3546701D01*
X5671146Y3546212D01*
X5672655Y3545925D01*
X5674106Y3545839D01*
X5648961Y3520694D01*
X5648875Y3522145D01*
X5648588Y3523654D01*
X5648099Y3525220D01*
X5647410Y3526844D01*
X5646519Y3528525D01*
X5645427Y3530263D01*
X5644134Y3532059D01*
X5642640Y3533912D01*
X5639049Y3537790D01*
X5657010Y3555751D01*
X5658978Y3553855D01*
D02*
G37*
G36*
X2679446Y2895601D02*
X2677995Y2895515D01*
X2676486Y2895228D01*
X2674920Y2894739D01*
X2673296Y2894050D01*
X2671615Y2893159D01*
X2669877Y2892067D01*
X2668081Y2890774D01*
X2666228Y2889280D01*
X2662350Y2885689D01*
X2644389Y2903650D01*
X2646285Y2905618D01*
X2649474Y2909381D01*
X2650767Y2911177D01*
X2651859Y2912915D01*
X2652750Y2914596D01*
X2653439Y2916220D01*
X2653928Y2917786D01*
X2654215Y2919295D01*
X2654301Y2920746D01*
X2679446Y2895601D01*
D02*
G37*
G36*
X2583231Y2472905D02*
X2583637Y2467988D01*
X2583993Y2465805D01*
X2584450Y2463803D01*
X2585009Y2461985D01*
X2585669Y2460349D01*
X2586431Y2458897D01*
X2587295Y2457627D01*
X2588260Y2456539D01*
X2552700D01*
X2553665Y2457627D01*
X2554529Y2458897D01*
X2555291Y2460349D01*
X2555951Y2461985D01*
X2556510Y2463803D01*
X2556967Y2465805D01*
X2557323Y2467988D01*
X2557577Y2470355D01*
X2557780Y2475637D01*
X2583180D01*
X2583231Y2472905D01*
D02*
G37*
G36*
X1554231Y2189050D02*
X1552335Y2187082D01*
X1549146Y2183319D01*
X1547853Y2181523D01*
X1546761Y2179785D01*
X1545870Y2178104D01*
X1545181Y2176480D01*
X1544692Y2174914D01*
X1544405Y2173405D01*
X1544319Y2171954D01*
X1519174Y2197099D01*
X1520625Y2197185D01*
X1522134Y2197472D01*
X1523700Y2197961D01*
X1525324Y2198650D01*
X1527005Y2199541D01*
X1528743Y2200633D01*
X1530539Y2201926D01*
X1532392Y2203420D01*
X1536270Y2207011D01*
X1554231Y2189050D01*
D02*
G37*
G36*
X1955237Y2175817D02*
X1959015Y2172734D01*
X1960819Y2171538D01*
X1962568Y2170570D01*
X1964260Y2169833D01*
X1965898Y2169325D01*
X1967478Y2169047D01*
X1969003Y2168998D01*
X1970472Y2169180D01*
X1950603Y2139688D01*
X1950298Y2140897D01*
X1949811Y2142192D01*
X1949144Y2143573D01*
X1948296Y2145039D01*
X1947267Y2146591D01*
X1944667Y2149951D01*
X1943096Y2151760D01*
X1939411Y2155635D01*
X1953265Y2177702D01*
X1955237Y2175817D01*
D02*
G37*
G36*
X3272694Y1723981D02*
X3271831Y1722711D01*
X3271069Y1721258D01*
X3270408Y1719622D01*
X3269850Y1717804D01*
X3269392Y1715803D01*
X3269037Y1713619D01*
X3268783Y1711252D01*
X3268580Y1705970D01*
X3243180D01*
X3243129Y1708702D01*
X3242722Y1713619D01*
X3242367Y1715803D01*
X3241910Y1717804D01*
X3241351Y1719622D01*
X3240690Y1721258D01*
X3239928Y1722711D01*
X3239065Y1723981D01*
X3238100Y1725068D01*
X3273660D01*
X3272694Y1723981D01*
D02*
G37*
G36*
X3433050Y1529895D02*
X3431936Y1530706D01*
X3430642Y1531431D01*
X3429166Y1532070D01*
X3427509Y1532625D01*
X3425671Y1533094D01*
X3423651Y1533478D01*
X3421450Y1533776D01*
X3416505Y1534117D01*
X3413760Y1534160D01*
X3410800Y1559560D01*
X3413528Y1559617D01*
X3418411Y1560075D01*
X3420567Y1560475D01*
X3422531Y1560989D01*
X3424305Y1561618D01*
X3425888Y1562361D01*
X3427281Y1563219D01*
X3428483Y1564191D01*
X3429494Y1565277D01*
X3433050Y1529895D01*
D02*
G37*
G36*
X3044765Y1723981D02*
X3043901Y1722711D01*
X3043139Y1721258D01*
X3042479Y1719622D01*
X3041920Y1717804D01*
X3041463Y1715803D01*
X3041107Y1713619D01*
X3040853Y1711252D01*
X3040650Y1705970D01*
X3015250D01*
X3015199Y1708702D01*
X3014793Y1713619D01*
X3014437Y1715803D01*
X3013980Y1717804D01*
X3013421Y1719622D01*
X3012761Y1721258D01*
X3011999Y1722711D01*
X3011135Y1723981D01*
X3010170Y1725068D01*
X3045730D01*
X3044765Y1723981D01*
D02*
G37*
G36*
X3431181Y1407160D02*
X3430093Y1408125D01*
X3428823Y1408989D01*
X3427371Y1409751D01*
X3425735Y1410411D01*
X3423917Y1410970D01*
X3421915Y1411427D01*
X3419732Y1411783D01*
X3417365Y1412037D01*
X3412083Y1412240D01*
Y1437640D01*
X3414815Y1437691D01*
X3419732Y1438097D01*
X3421915Y1438453D01*
X3423917Y1438910D01*
X3425735Y1439469D01*
X3427371Y1440129D01*
X3428823Y1440891D01*
X3430093Y1441755D01*
X3431181Y1442720D01*
Y1407160D01*
D02*
G37*
G36*
X1479855Y1784173D02*
X1478991Y1782903D01*
X1478229Y1781451D01*
X1477569Y1779815D01*
X1477010Y1777997D01*
X1476553Y1775995D01*
X1476197Y1773812D01*
X1475943Y1771445D01*
X1475740Y1766163D01*
X1450340D01*
X1450289Y1768895D01*
X1449883Y1773812D01*
X1449527Y1775995D01*
X1449070Y1777997D01*
X1448511Y1779815D01*
X1447851Y1781451D01*
X1447089Y1782903D01*
X1446225Y1784173D01*
X1445260Y1785261D01*
X1480820D01*
X1479855Y1784173D01*
D02*
G37*
G36*
X1475791Y1157185D02*
X1476197Y1152268D01*
X1476553Y1150085D01*
X1477010Y1148083D01*
X1477569Y1146265D01*
X1478229Y1144629D01*
X1478991Y1143177D01*
X1479855Y1141907D01*
X1480820Y1140819D01*
X1445260D01*
X1446225Y1141907D01*
X1447089Y1143177D01*
X1447851Y1144629D01*
X1448511Y1146265D01*
X1449070Y1148083D01*
X1449527Y1150085D01*
X1449883Y1152268D01*
X1450137Y1154635D01*
X1450340Y1159917D01*
X1475740D01*
X1475791Y1157185D01*
D02*
G37*
G36*
X3922744Y2166998D02*
X3922778Y2164231D01*
X3923282Y2157061D01*
X3923585Y2155048D01*
X3924392Y2151586D01*
X3924896Y2150138D01*
X3925468Y2148879D01*
X3926106Y2147808D01*
X3891204Y2154611D01*
X3892370Y2155522D01*
X3893414Y2156635D01*
X3894335Y2157949D01*
X3895134Y2159466D01*
X3895809Y2161184D01*
X3896362Y2163104D01*
X3896792Y2165227D01*
X3897099Y2167551D01*
X3897283Y2170077D01*
X3897344Y2172805D01*
X3922744Y2166998D01*
D02*
G37*
G36*
X4033327Y2159345D02*
X4031438Y2157363D01*
X4029801Y2155451D01*
X4028418Y2153608D01*
X4027289Y2151835D01*
X4026412Y2150132D01*
X4025789Y2148497D01*
X4025419Y2146932D01*
X4025303Y2145437D01*
X4025439Y2144011D01*
X4025829Y2142655D01*
X3993399Y2157242D01*
X3994077Y2157558D01*
X3994904Y2158061D01*
X3995881Y2158753D01*
X3998285Y2160700D01*
X4003015Y2165029D01*
X4006917Y2168855D01*
X4033327Y2159345D01*
D02*
G37*
G36*
X4113144Y2112199D02*
X4111977Y2111289D01*
X4110933Y2110176D01*
X4110012Y2108862D01*
X4109214Y2107345D01*
X4108538Y2105627D01*
X4107985Y2103706D01*
X4107556Y2101584D01*
X4107249Y2099260D01*
X4107064Y2096734D01*
X4107003Y2094006D01*
X4081603Y2099813D01*
X4081569Y2102580D01*
X4081065Y2109750D01*
X4080762Y2111763D01*
X4079956Y2115225D01*
X4079451Y2116672D01*
X4078880Y2117932D01*
X4078241Y2119003D01*
X4113144Y2112199D01*
D02*
G37*
G36*
X6290713Y1359847D02*
X6280278Y1347486D01*
X6276039Y1341563D01*
X6272452Y1335811D01*
X6269517Y1330231D01*
X6267235Y1324823D01*
X6265604Y1319586D01*
X6264626Y1314521D01*
X6264300Y1309628D01*
X6238900Y1309365D01*
X6238570Y1314301D01*
X6237580Y1319385D01*
X6235931Y1324616D01*
X6233622Y1329995D01*
X6230653Y1335521D01*
X6227025Y1341194D01*
X6222737Y1347015D01*
X6217789Y1352983D01*
X6205914Y1365361D01*
X6296909Y1366285D01*
X6290713Y1359847D01*
D02*
G37*
G36*
X6267167Y1044175D02*
X6268151Y1039100D01*
X6269791Y1033866D01*
X6272087Y1028472D01*
X6275039Y1022919D01*
X6278647Y1017207D01*
X6282911Y1011335D01*
X6287831Y1005303D01*
X6299639Y992762D01*
X6208639D01*
X6214871Y999112D01*
X6225367Y1011335D01*
X6229631Y1017207D01*
X6233239Y1022919D01*
X6236191Y1028472D01*
X6238487Y1033866D01*
X6240127Y1039100D01*
X6241111Y1044175D01*
X6241439Y1049090D01*
X6266839D01*
X6267167Y1044175D01*
D02*
G37*
G36*
X6315806Y533025D02*
X6316186Y528648D01*
X6316820Y524787D01*
X6317707Y521440D01*
X6318847Y518609D01*
X6320241Y516292D01*
X6321888Y514490D01*
X6323788Y513203D01*
X6325942Y512430D01*
X6328350Y512173D01*
X6277609D01*
X6280017Y512430D01*
X6282171Y513203D01*
X6284071Y514490D01*
X6285718Y516292D01*
X6287112Y518609D01*
X6288252Y521440D01*
X6289139Y524787D01*
X6289773Y528648D01*
X6290153Y533025D01*
X6290280Y537916D01*
X6315680D01*
X6315806Y533025D01*
D02*
G37*
D39*
X5631180Y5029200D02*
Y5539740D01*
X3154680Y4800600D02*
X5402580D01*
X5631180Y5029200D01*
X2996878Y4958402D02*
X3154680Y4800600D01*
X2996878Y4958402D02*
Y5948680D01*
D40*
X7741920Y5379720D02*
Y6441440D01*
X7739380Y5377180D02*
X7741920Y5379720D01*
X7739380Y5377180D02*
X7741920Y5374640D01*
X7635111Y6548249D02*
X7741920Y6441440D01*
Y4157980D02*
Y5374640D01*
Y2923540D02*
Y4157980D01*
X5507602Y6548249D02*
X7635111D01*
X7741920Y1709420D02*
Y2923540D01*
X5146040Y1612900D02*
X5969100D01*
X6051600Y1530400D01*
X4074160Y1112520D02*
X4165600Y1203960D01*
X3086100Y1112520D02*
X4074160D01*
X6052869Y947612D02*
X6054139Y946343D01*
X6051600Y1374140D02*
X6052869Y1372871D01*
D41*
X9307440Y5914429D02*
X9670641D01*
X9307440Y4683615D02*
X9670641D01*
X9307440Y2219721D02*
X9665335D01*
X9307440Y3452801D02*
X9667602D01*
D42*
X5806440Y4823460D02*
Y5857240D01*
X3638749Y4315460D02*
X5298440D01*
X5806440Y4823460D01*
X6207760Y1203960D02*
X6251600Y1247800D01*
X5300980Y1203960D02*
X6207760D01*
X6197600Y1165860D02*
X6254139Y1109321D01*
X6251600Y1247800D02*
Y1374140D01*
X5214620Y1165860D02*
X6197600D01*
X6254139Y946343D02*
Y1109321D01*
X4254570Y2250370D02*
X5300980Y1203960D01*
X4175760Y2204720D02*
X5214620Y1165860D01*
X3553460Y2555240D02*
Y3223260D01*
X3550920Y3225800D02*
X3553460Y3223260D01*
X3189390Y1942250D02*
X3716020Y2468880D01*
Y3479800D01*
X3393440Y2286000D02*
X3606800Y2499360D01*
Y2504440D01*
X3393440Y2280920D02*
Y2286000D01*
X2929898Y1931678D02*
X3553460Y2555240D01*
X2102199Y1931678D02*
X2929898D01*
X3341521Y2014221D02*
X3797300Y2470000D01*
X3097950Y1942250D02*
X3189390D01*
X3797300Y3497580D02*
X3799840Y3500120D01*
X3341521Y1941981D02*
Y2014221D01*
X3797300Y2470000D02*
Y3497580D01*
X3910044Y2136973D02*
Y2190464D01*
X3905184Y2132114D02*
X3910044Y2136973D01*
Y2190464D02*
X3969950Y2250370D01*
X3337560Y1938020D02*
X3341521Y1941981D01*
X3256590Y2399396D02*
X3258975Y2401781D01*
Y3035455D01*
X3261360Y3037840D01*
X3060500Y2399396D02*
Y2831900D01*
X2606591Y3996300D02*
X3039271Y3563620D01*
X4367462D01*
X2351277Y4910583D02*
X3591560Y3670300D01*
X1290244Y4910583D02*
X2351277D01*
X3591560Y3670300D02*
X4378960D01*
X1957313Y3098800D02*
X3312160D01*
X3528060Y3314700D01*
X3855720Y3317240D02*
X4203700D01*
X3855720Y3225800D02*
X4201160D01*
X2867660Y1247140D02*
X3722302D01*
X3727049Y1251888D01*
X2740660Y1183640D02*
X3741420D01*
X3797300Y1239520D01*
X4264660Y807720D02*
Y1399540D01*
X4043680Y586740D02*
X4264660Y807720D01*
X3865880Y1798320D02*
X4264660Y1399540D01*
X2514600Y1600200D02*
X2867660Y1247140D01*
X2387600Y1536700D02*
X2740660Y1183640D01*
X3164840Y1424940D02*
X3439160D01*
X3027950Y1561830D02*
X3164840Y1424940D01*
X1463040Y1122680D02*
Y1803400D01*
X9665335Y2219721D02*
X9667602Y2221988D01*
X3408680Y4084320D02*
Y4085391D01*
X3638749Y4315460D01*
X3591560Y4025900D02*
X5168900D01*
X5674360Y3520440D01*
X4201160Y3225800D02*
X4488180Y3512820D01*
X3280912Y527250D02*
X5030590D01*
X5151280Y406560D01*
X5468780Y4239420D02*
X5801360Y4572000D01*
X3636257Y4239420D02*
X5468780D01*
X5801360Y4572000D02*
Y4655820D01*
X3505932Y4109095D02*
X3636257Y4239420D01*
X3501072Y4086167D02*
X3505932Y4091026D01*
Y4109095D01*
X2321560Y1003300D02*
Y1455420D01*
X2039620Y721360D02*
X2321560Y1003300D01*
X1953260Y721360D02*
X2039620D01*
X3989428Y2133405D02*
X4060742Y2204720D01*
X4175760D01*
X4094303Y1861997D02*
X5273040Y683260D01*
X4094303Y1861997D02*
Y2125006D01*
X4099163Y2129866D01*
X3969950Y2250370D02*
X4254570D01*
X1845684Y2987171D02*
X1957313Y3098800D01*
X3060500Y2831900D02*
X3149600Y2921000D01*
X1518920Y2171700D02*
X1551940Y2204720D01*
X2570480Y2811780D02*
X2679700Y2921000D01*
X1288143Y3996300D02*
X2606591D01*
X1287780Y3995936D02*
X1288143Y3996300D01*
X1289124Y1938020D02*
X2095856D01*
X1287780Y1939364D02*
X1289124Y1938020D01*
X2095856D02*
X2102199Y1931678D01*
X1953938Y1879600D02*
X2037921D01*
X1856740Y1873258D02*
X1947596D01*
X1953938Y1879600D01*
X5273040Y683260D02*
X6197600D01*
X6302980Y577881D01*
Y437459D02*
Y577881D01*
X3446780Y1798320D02*
X3865880D01*
X2037921Y1879600D02*
X2256361Y1661160D01*
X4367462Y3563620D02*
X4368131Y3564289D01*
X2144910Y369680D02*
X3836780D01*
X1282700Y3091180D02*
X1386709Y2987171D01*
X1845684D01*
X3836780Y369680D02*
X3914140Y447040D01*
X5059680Y3746500D02*
X5623560Y3182620D01*
Y2341880D02*
X5669280Y2296160D01*
X5623560Y2341880D02*
Y3182620D01*
X3637280Y3746500D02*
X5059680D01*
X1908287Y2204720D02*
X1968708Y2144299D01*
X1551940Y2204720D02*
X1908287D01*
X1968708Y2144299D02*
X1975581D01*
X1905000Y1600200D02*
X2514600D01*
X1734820Y1430020D02*
X1905000Y1600200D01*
X4203700Y3317240D02*
X4495800Y3609340D01*
Y3611880D01*
X1965960Y1536700D02*
X2387600D01*
X1861820Y1432560D02*
X1965960Y1536700D01*
X3027950Y1561830D02*
Y1743207D01*
X3255880Y1643780D02*
X3352800Y1546860D01*
X3446780D01*
X3255880Y1643780D02*
Y1743207D01*
X3446780Y1546860D02*
X3449320Y1549400D01*
X2570480Y2438400D02*
Y2811780D01*
D43*
X3841905Y2345535D02*
Y2427125D01*
X3980180Y2565400D01*
X4124960D01*
X1478280Y2352040D02*
X1795780D01*
X1992773Y148447D02*
X2337927D01*
X1860407Y280813D02*
Y925687D01*
Y280813D02*
X1992773Y148447D01*
X1864360Y929640D02*
X1991360D01*
X1381760D02*
X1864360D01*
X1860407Y925687D02*
X1864360Y929640D01*
X1210276Y1101124D02*
X1381760Y929640D01*
X1210276Y1101124D02*
Y1720816D01*
X485140Y1168400D02*
X746760D01*
D45*
X8607440Y1328996D02*
X8617440Y1318996D01*
X9657601D01*
X8607440Y2219721D02*
Y3452801D01*
Y1328996D02*
Y2219721D01*
Y3452801D02*
Y4683615D01*
X9657601Y1318996D02*
X9667602Y1308995D01*
X8607440Y4683615D02*
Y5914429D01*
D46*
X988060Y5654040D02*
D03*
D47*
X607060Y6162040D02*
D03*
X1242060D02*
D03*
D48*
X7457440Y4683615D02*
D03*
Y5143615D02*
D03*
X8607440Y1328996D02*
D03*
X9115440Y1100396D02*
D03*
X7457440Y2679721D02*
D03*
Y2219721D02*
D03*
Y3912801D02*
D03*
Y3452801D02*
D03*
Y6374429D02*
D03*
Y5914429D02*
D03*
D49*
X8607440Y4683615D02*
D03*
X9307440D02*
D03*
Y2219721D02*
D03*
X8607440D02*
D03*
X9307440Y3452801D02*
D03*
X8607440D02*
D03*
X9307440Y5914429D02*
D03*
X8607440D02*
D03*
D50*
X253852Y541760D02*
D03*
X998852D02*
D03*
D51*
X238852Y161760D02*
D03*
X1013852D02*
D03*
D52*
X376352Y436761D02*
D03*
X876352D02*
D03*
D53*
X6054139Y946343D02*
D03*
X6050940Y1412240D02*
D03*
D54*
X6254139Y946343D02*
D03*
X6454139D02*
D03*
X6250940Y1412240D02*
D03*
X6450940D02*
D03*
D55*
X2288540Y3482340D02*
D03*
Y3228340D02*
D03*
Y2974340D02*
D03*
D56*
Y2720340D02*
D03*
D57*
X1678940Y4373880D02*
D03*
Y4119880D02*
D03*
Y3865880D02*
D03*
Y3611880D02*
D03*
Y3357880D02*
D03*
Y3103880D02*
D03*
Y2849880D02*
D03*
D58*
Y2595880D02*
D03*
D59*
X6556980Y437459D02*
D03*
X6302980D02*
D03*
X6048980D02*
D03*
D60*
X9667602Y1308995D02*
D03*
Y2602988D02*
D03*
X9670641Y6295429D02*
D03*
Y5064615D02*
D03*
X9667602Y3833801D02*
D03*
D61*
Y927995D02*
D03*
Y2221988D02*
D03*
X9670641Y5914429D02*
D03*
Y4683615D02*
D03*
X9667602Y3452801D02*
D03*
D62*
X7452360Y1038860D02*
D03*
D63*
X5036820Y4508500D02*
D03*
X5189220Y2984500D02*
D03*
Y2374900D02*
D03*
X5036820Y2070100D02*
D03*
X5189220Y546100D02*
D03*
X5036820Y241300D02*
D03*
X4732020Y4508500D02*
D03*
X4884420Y3594100D02*
D03*
Y2984500D02*
D03*
Y2374900D02*
D03*
Y1765300D02*
D03*
X4732020Y1460500D02*
D03*
X4884420Y1155700D02*
D03*
X4732020Y241300D02*
D03*
X4427220Y4508500D02*
D03*
Y2679700D02*
D03*
X4579620Y1155700D02*
D03*
X4427220Y241300D02*
D03*
X4274820Y6032500D02*
D03*
Y5422900D02*
D03*
X4122420Y2679700D02*
D03*
X4274820Y1765300D02*
D03*
X4122420Y850900D02*
D03*
Y241300D02*
D03*
X3817620Y6337300D02*
D03*
X3970020Y5422900D02*
D03*
X3817620Y5118100D02*
D03*
Y4508500D02*
D03*
Y241300D02*
D03*
X3512820Y5727700D02*
D03*
Y4508500D02*
D03*
X3208020Y6337300D02*
D03*
X3360420Y6032500D02*
D03*
X3208020Y5118100D02*
D03*
Y4508500D02*
D03*
X3360420Y1765300D02*
D03*
X2903220Y6337300D02*
D03*
Y5118100D02*
D03*
Y4508500D02*
D03*
Y3898900D02*
D03*
Y1460500D02*
D03*
Y850900D02*
D03*
X3055620Y546100D02*
D03*
X2750820Y4203700D02*
D03*
X2598420Y3898900D02*
D03*
Y2070100D02*
D03*
X2750820Y1765300D02*
D03*
Y546100D02*
D03*
X2293620Y5727700D02*
D03*
Y5118100D02*
D03*
Y4508500D02*
D03*
X2446020Y4203700D02*
D03*
Y1765300D02*
D03*
X2293620Y850900D02*
D03*
X1988820Y6337300D02*
D03*
Y5727700D02*
D03*
X2141220Y5422900D02*
D03*
X1988820Y5118100D02*
D03*
X2141220Y4813300D02*
D03*
X1988820Y4508500D02*
D03*
Y3289300D02*
D03*
X2141220Y2984500D02*
D03*
X1988820Y2679700D02*
D03*
X2141220Y1155700D02*
D03*
Y546100D02*
D03*
X1836420Y5422900D02*
D03*
X1684020Y4508500D02*
D03*
X1836420Y1155700D02*
D03*
X1684020Y241300D02*
D03*
X1379220Y5727700D02*
D03*
Y5118100D02*
D03*
X1531620Y1155700D02*
D03*
X1226820Y5422900D02*
D03*
X1074420Y5118100D02*
D03*
Y4508500D02*
D03*
Y3898900D02*
D03*
Y3289300D02*
D03*
Y2679700D02*
D03*
Y2070100D02*
D03*
Y850900D02*
D03*
X769620Y6337300D02*
D03*
X922020Y6032500D02*
D03*
Y5422900D02*
D03*
X769620Y5118100D02*
D03*
X922020Y4813300D02*
D03*
Y4203700D02*
D03*
X769620Y3898900D02*
D03*
Y3289300D02*
D03*
X922020Y2984500D02*
D03*
Y2374900D02*
D03*
X769620Y2070100D02*
D03*
X922020Y1155700D02*
D03*
X769620Y241300D02*
D03*
X464820Y6337300D02*
D03*
Y5727700D02*
D03*
X617220Y5422900D02*
D03*
X464820Y5118100D02*
D03*
X617220Y4813300D02*
D03*
Y4203700D02*
D03*
X464820Y3898900D02*
D03*
Y3289300D02*
D03*
X617220Y2984500D02*
D03*
Y2374900D02*
D03*
X464820Y2070100D02*
D03*
Y241300D02*
D03*
X160020Y6337300D02*
D03*
X312420Y6032500D02*
D03*
X160020Y5727700D02*
D03*
X312420Y5422900D02*
D03*
X160020Y5118100D02*
D03*
X312420Y4813300D02*
D03*
Y4203700D02*
D03*
X160020Y3898900D02*
D03*
Y3289300D02*
D03*
X312420Y2984500D02*
D03*
Y2374900D02*
D03*
X160020Y2070100D02*
D03*
Y1460500D02*
D03*
Y850900D02*
D03*
X7739380Y5377180D02*
D03*
X7741920Y4157980D02*
D03*
Y1709420D02*
D03*
Y2923540D02*
D03*
X3550920Y3225800D02*
D03*
X3716020Y3479800D02*
D03*
X3606800Y2504440D02*
D03*
X5631180Y5539740D02*
D03*
X3393440Y2280920D02*
D03*
X3733800Y2075180D02*
D03*
X3905184Y2133405D02*
D03*
X3841905Y2345535D02*
D03*
X3256590Y2399396D02*
D03*
X3097950Y1942250D02*
D03*
X3060500Y2399396D02*
D03*
X4222750Y3616960D02*
D03*
X3799840Y3500120D02*
D03*
X3088640Y4038600D02*
D03*
X3528060Y3314700D02*
D03*
X3855720Y3225800D02*
D03*
Y3317240D02*
D03*
X746760Y1351280D02*
D03*
X5806440Y5857240D02*
D03*
X3727049Y1251888D02*
D03*
X3797300Y1239520D02*
D03*
X4165600Y1203960D02*
D03*
X3449320Y1424940D02*
D03*
X2801620Y2095500D02*
D03*
X1463040Y1122680D02*
D03*
X2125980Y2204720D02*
D03*
X5628640Y977900D02*
D03*
X3937000Y3949700D02*
D03*
X4488180Y3512820D02*
D03*
X5146040Y1612900D02*
D03*
X5151280Y406560D02*
D03*
X4043680Y586740D02*
D03*
X3501072Y4086167D02*
D03*
X3591560Y4025900D02*
D03*
X3408680Y4084320D02*
D03*
X3086100Y1112520D02*
D03*
X1953260Y721360D02*
D03*
X4002174Y2133405D02*
D03*
X4124960Y2565400D02*
D03*
X4099163Y2133405D02*
D03*
X3337560Y1938020D02*
D03*
X3261360Y3037840D02*
D03*
X1518920Y2171700D02*
D03*
X2679700Y2921000D02*
D03*
X1287780Y3995936D02*
D03*
X2996878Y5948680D02*
D03*
X6051600Y1530400D02*
D03*
X1478280Y2352040D02*
D03*
X1795780D02*
D03*
X1287780Y1939364D02*
D03*
X1290244Y4910583D02*
D03*
X1856740Y1873258D02*
D03*
X5669280Y2296160D02*
D03*
X2144910Y369680D02*
D03*
X2337927Y148447D02*
D03*
X1991360Y929640D02*
D03*
X1210276Y1720816D02*
D03*
X1463040Y1803400D02*
D03*
X2256361Y1661160D02*
D03*
X1282700Y3091180D02*
D03*
X3914140Y447040D02*
D03*
X3446780Y1798320D02*
D03*
X3637280Y3746500D02*
D03*
X5674360Y3520440D02*
D03*
X5801360Y4655820D02*
D03*
X1975581Y2144299D02*
D03*
X2321560Y1455420D02*
D03*
X4378960Y3670300D02*
D03*
X4368131Y3564289D02*
D03*
X1861820Y1432560D02*
D03*
X1734820Y1430020D02*
D03*
X485140Y1168400D02*
D03*
X746760D02*
D03*
X3255880Y1743207D02*
D03*
X3027950D02*
D03*
X3280912Y527250D02*
D03*
X3149600Y2921000D02*
D03*
X2570480Y2438400D02*
D03*
X4495800Y3611880D02*
D03*
X3449320Y1549400D02*
D03*
D64*
X4667400Y1064560D02*
D03*
X4457400Y994560D02*
D03*
X4597400D02*
D03*
X4737400D02*
D03*
X4527400Y1064560D02*
D03*
X4457400Y854560D02*
D03*
X4597400D02*
D03*
X4737400D02*
D03*
X4667400Y924560D02*
D03*
X4527400D02*
D03*
Y784560D02*
D03*
X4667400D02*
D03*
%TF.MD5,cc29a79b33eca367a814f98a60f3a580*%
M02*
