%TF.GenerationSoftware,Altium Limited,Altium Designer,24.9.1 (31)*%
G04 Layer_Color=65535*
%FSLAX45Y45*%
%MOMM*%
%TF.SameCoordinates,27D3D336-BC1F-43B1-B9D8-2BE266924E3D*%
%TF.FilePolarity,Positive*%
%TF.FileFunction,Legend,Top*%
%TF.Part,Single*%
G01*
G75*
%TA.AperFunction,NonConductor*%
%ADD38C,0.25400*%
%ADD65C,0.25000*%
%ADD66C,0.20000*%
%ADD67C,0.60000*%
%ADD68C,0.50800*%
%ADD69C,0.15240*%
%ADD70C,0.17780*%
%ADD71C,0.12700*%
%ADD72C,0.38100*%
%ADD73C,0.20320*%
%ADD74C,0.10000*%
%ADD75C,0.05000*%
D38*
X5105400Y2486660D02*
G03*
X5105400Y2486660I-88900J0D01*
G01*
X4755011Y2333166D02*
G03*
X4755011Y2333166I-88900J0D01*
G01*
X530860Y5407660D02*
G03*
X530860Y5407660I-88900J0D01*
G01*
X5461179Y2333166D02*
G03*
X5461179Y2333166I-88900J0D01*
G01*
X4364100Y5410320D02*
Y6370320D01*
X4864100D01*
X4364100Y5410320D02*
X5364100D01*
Y6370320D01*
X4864100D02*
X5364100D01*
X7342440Y5258615D02*
X9422440D01*
Y4558615D02*
Y5258615D01*
X7342440Y4558615D02*
X9422440D01*
X7342440D02*
Y5258615D01*
X1462720Y5822520D02*
Y6439740D01*
X1861500Y5822520D02*
Y6439740D01*
X1462720Y5822520D02*
X1861500D01*
X1462720Y6439740D02*
X1861500D01*
X228600Y4195679D02*
X838200D01*
X228600Y3573379D02*
X825500D01*
X838200Y3751179D02*
Y4005179D01*
X228600Y3751179D02*
Y4005179D01*
Y2838633D02*
Y3092633D01*
X838200Y2838633D02*
Y3092633D01*
X228600Y2660833D02*
X825500D01*
X228600Y3283133D02*
X838200D01*
X1363980Y444500D02*
X1823980D01*
X1362580Y141800D02*
X1822580D01*
X1363980Y279400D02*
Y304800D01*
X1821180Y279400D02*
Y304800D01*
X3025140Y279400D02*
Y304800D01*
X2567940Y279400D02*
Y304800D01*
X2566540Y141800D02*
X3026540D01*
X2567940Y444500D02*
X3027940D01*
X228600Y4663725D02*
Y4917725D01*
X838200Y4663725D02*
Y4917725D01*
X228600Y4485925D02*
X825500D01*
X228600Y5108225D02*
X838200D01*
X228139Y2370587D02*
X837739D01*
X228139Y1748287D02*
X825039D01*
X837739Y1926087D02*
Y2180087D01*
X228139Y1926087D02*
Y2180087D01*
X5921980Y564459D02*
X6683980D01*
Y310459D02*
Y564459D01*
X5921980Y310459D02*
X6683980D01*
X5921980D02*
Y564459D01*
X9318640Y947996D02*
Y1455996D01*
X8404240Y947996D02*
Y1455996D01*
Y947996D02*
X9318640D01*
X8404240Y1455996D02*
X9318640D01*
X7342440Y2094721D02*
Y2794721D01*
Y2094721D02*
X9422440D01*
Y2794721D01*
X7342440D02*
X9422440D01*
X7342440Y3327801D02*
Y4027801D01*
Y3327801D02*
X9422440D01*
Y4027801D01*
X7342440D02*
X9422440D01*
X7342440Y5789429D02*
Y6489429D01*
Y5789429D02*
X9422440D01*
Y6489429D01*
X7342440D02*
X9422440D01*
X6225454Y257430D02*
X6191599D01*
X6174671Y240502D01*
Y172791D01*
X6191599Y155863D01*
X6225454D01*
X6242382Y172791D01*
Y240502D01*
X6225454Y257430D01*
X6276238Y223574D02*
Y172791D01*
X6293166Y155863D01*
X6343949D01*
Y223574D01*
X6394733Y240502D02*
Y223574D01*
X6377805D01*
X6411661D01*
X6394733D01*
Y172791D01*
X6411661Y155863D01*
X6532811Y183803D02*
X6634378D01*
X6037494Y237143D02*
Y135576D01*
X6088278Y186360D02*
X5986711D01*
D65*
X7178040Y1818640D02*
G03*
X7178040Y1818640I-12500J0D01*
G01*
X6956440Y2106020D02*
G03*
X6956440Y2106020I-12500J0D01*
G01*
X262332Y970229D02*
G03*
X262332Y970229I-12500J0D01*
G01*
X3994820Y5679200D02*
G03*
X3994820Y5679200I-12500J0D01*
G01*
X2112720Y5397080D02*
G03*
X2112720Y5397080I-12500J0D01*
G01*
X6956440Y3330628D02*
G03*
X6956440Y3330628I-12500J0D01*
G01*
Y4555235D02*
G03*
X6956440Y4555235I-12500J0D01*
G01*
Y5779843D02*
G03*
X6956440Y5779843I-12500J0D01*
G01*
X1368860Y813000D02*
G03*
X1368860Y813000I-12500J0D01*
G01*
X7178040Y4254500D02*
G03*
X7178040Y4254500I-12500J0D01*
G01*
X2053517Y630236D02*
G03*
X2053517Y630236I-12500J0D01*
G01*
X2193020Y4825100D02*
G03*
X2193020Y4825100I-12500J0D01*
G01*
X7178040Y3027680D02*
G03*
X7178040Y3027680I-12500J0D01*
G01*
Y5476240D02*
G03*
X7178040Y5476240I-12500J0D01*
G01*
X5899139Y946343D02*
G03*
X5899139Y946343I-12500J0D01*
G01*
X5895940Y1412240D02*
G03*
X5895940Y1412240I-12500J0D01*
G01*
X1931040Y2720340D02*
G03*
X1931040Y2720340I-12500J0D01*
G01*
X1543219Y1273742D02*
G03*
X1543219Y1273742I-12500J0D01*
G01*
X3222420Y6207200D02*
G03*
X3222420Y6207200I-12500J0D01*
G01*
D66*
X3166262Y914068D02*
G03*
X3166262Y914068I-10000J0D01*
G01*
X4552480Y3010740D02*
G03*
X4552480Y3010740I-10000J0D01*
G01*
X5414919Y3394784D02*
G03*
X5414919Y3394784I-10000J0D01*
G01*
X851260Y1426729D02*
G03*
X851260Y1426729I-10000J0D01*
G01*
X4101940Y2844800D02*
G03*
X4101940Y2844800I-10000J0D01*
G01*
X6936440Y2171021D02*
Y2721020D01*
X7216440Y2171021D02*
Y2721020D01*
X6936440Y2171021D02*
X6958940D01*
X6936440Y2721020D02*
X6958940D01*
X7193940Y2171021D02*
X7216440D01*
X7193940Y2721020D02*
X7216440D01*
X242332Y1035230D02*
Y1585229D01*
X522332Y1035230D02*
Y1585229D01*
X242332Y1035230D02*
X264832D01*
X242332Y1585229D02*
X264832D01*
X499832Y1035230D02*
X522332D01*
X499832Y1585229D02*
X522332D01*
X2409920Y5974940D02*
Y6344940D01*
X2294920Y5894940D02*
X2329920D01*
X2409920Y5974940D01*
X2294920Y6344940D02*
X2409920D01*
X1959920D02*
X2074920D01*
X1959920Y5974940D02*
X2039920Y5894940D01*
X2074920D01*
X1959920Y5974940D02*
Y6344940D01*
X5139100Y4550076D02*
Y5000076D01*
X4974100Y5100076D02*
X5039100D01*
X5139100Y5000076D01*
X4974100Y4550076D02*
X5139100D01*
X4589100D02*
X4754100D01*
X4589100Y5000076D02*
X4689100Y5100076D01*
X4754100D01*
X4589100Y4550076D02*
Y5000076D01*
X4389820Y4550076D02*
Y5000076D01*
X4224820Y5100076D02*
X4289820D01*
X4389820Y5000076D01*
X4224820Y4550076D02*
X4389820D01*
X3839820D02*
X4004820D01*
X3839820Y5000076D02*
X3939820Y5100076D01*
X4004820D01*
X3839820Y4550076D02*
Y5000076D01*
X356352Y581761D02*
X441352D01*
X226352Y281760D02*
Y416760D01*
X1026352Y281760D02*
Y416760D01*
X811352Y581761D02*
X896352D01*
X4232320Y6294200D02*
X4254820D01*
X4232320Y5744200D02*
X4254820D01*
X3974820Y6294200D02*
X3997320D01*
X3974820Y5744200D02*
X3997320D01*
X4254820D02*
Y6294200D01*
X3974820Y5744200D02*
Y6294200D01*
X1485220Y5647080D02*
Y5669580D01*
X2035220Y5647080D02*
Y5669580D01*
X1485220Y5389580D02*
Y5412080D01*
X2035220Y5389580D02*
Y5412080D01*
X1485220Y5669580D02*
X2035220D01*
X1485220Y5389580D02*
X2035220D01*
X6936440Y3395628D02*
Y3945628D01*
X7216440Y3395628D02*
Y3945628D01*
X6936440Y3395628D02*
X6958940D01*
X6936440Y3945628D02*
X6958940D01*
X7193940Y3395628D02*
X7216440D01*
X7193940Y3945628D02*
X7216440D01*
X7193940Y5170235D02*
X7216440D01*
X7193940Y4620235D02*
X7216440D01*
X6936440Y5170235D02*
X6958940D01*
X6936440Y4620235D02*
X6958940D01*
X7216440D02*
Y5170235D01*
X6936440Y4620235D02*
Y5170235D01*
X7193940Y6394843D02*
X7216440D01*
X7193940Y5844843D02*
X7216440D01*
X6936440Y6394843D02*
X6958940D01*
X6936440Y5844843D02*
X6958940D01*
X7216440D02*
Y6394843D01*
X6936440Y5844843D02*
Y6394843D01*
X2762262Y633068D02*
X2922262D01*
X2762262Y963067D02*
X2922262D01*
X4776480Y2961740D02*
X4936480D01*
X4776480Y3291740D02*
X4936480D01*
X2174520Y4963100D02*
X2844520D01*
X2174520Y5273100D02*
X2844520D01*
X2174520Y4963100D02*
Y5273100D01*
X2844520Y4963100D02*
Y5273100D01*
X5929139Y1056343D02*
X6579139D01*
Y836343D02*
Y1056343D01*
X5929139Y836343D02*
X6579139D01*
X5929139D02*
Y1056343D01*
X5925940Y1522240D02*
X6575940D01*
Y1302240D02*
Y1522240D01*
X5925940Y1302240D02*
X6575940D01*
X5925940D02*
Y1522240D01*
X1961040Y3626340D02*
X2556040D01*
Y2576340D02*
Y3626340D01*
X1961040Y2576340D02*
X2556040D01*
X1961040D02*
Y3626340D01*
X1530719Y1428752D02*
X2570719D01*
X1530719Y1878752D02*
X2570719D01*
X1530719Y1428752D02*
Y1878752D01*
X2570719Y1428752D02*
Y1878752D01*
X3324920Y5681700D02*
Y6181700D01*
X3644920Y5681700D02*
Y6181700D01*
X3324920D02*
X3644920D01*
X3324920Y5681700D02*
X3644920D01*
X9547602Y1367995D02*
Y1558995D01*
Y677995D02*
Y792995D01*
Y1558995D02*
X10467602D01*
Y677995D02*
Y1558995D01*
X9547602Y677995D02*
X10467602D01*
X9547602Y1062995D02*
Y1249995D01*
Y2356988D02*
Y2543988D01*
Y1971988D02*
X10467602D01*
Y2852988D01*
X9547602D02*
X10467602D01*
X9547602Y1971988D02*
Y2086988D01*
Y2661988D02*
Y2852988D01*
X9550641Y6049429D02*
Y6236429D01*
Y5664429D02*
X10470641D01*
Y6545429D01*
X9550641D02*
X10470641D01*
X9550641Y5664429D02*
Y5779429D01*
Y6354428D02*
Y6545429D01*
Y4818615D02*
Y5005615D01*
Y4433615D02*
X10470641D01*
Y5314615D01*
X9550641D02*
X10470641D01*
X9550641Y4433615D02*
Y4548615D01*
Y5123615D02*
Y5314615D01*
X9547602Y3587801D02*
Y3774801D01*
Y3202801D02*
X10467602D01*
Y4083801D01*
X9547602D02*
X10467602D01*
X9547602Y3202801D02*
Y3317801D01*
Y3892801D02*
Y4083801D01*
D67*
X1660719Y1528752D02*
G03*
X1660719Y1528752I-30000J0D01*
G01*
X3454920Y6081700D02*
G03*
X3454920Y6081700I-30000J0D01*
G01*
D68*
X1915160Y2595880D02*
G03*
X1915160Y2595880I-25400J0D01*
G01*
D69*
X3877861Y4324695D02*
X4016442D01*
X3877861Y4075235D02*
Y4324695D01*
Y4075235D02*
X4016442D01*
Y4324695D01*
X5994400Y2090960D02*
X6132980D01*
X5994400Y1841500D02*
Y2090960D01*
Y1841500D02*
X6132980D01*
Y2090960D01*
X1140276Y3951300D02*
Y4200760D01*
X1278856D01*
Y3951300D02*
Y4200760D01*
X1140276Y3951300D02*
X1278856D01*
X1140276Y4863845D02*
Y5113305D01*
X1278856D01*
Y4863845D02*
Y5113305D01*
X1140276Y4863845D02*
X1278856D01*
X1140276Y3038753D02*
Y3288213D01*
X1278856D01*
Y3038753D02*
Y3288213D01*
X1140276Y3038753D02*
X1278856D01*
X1140276Y2126207D02*
X1278856D01*
Y2375667D01*
X1140276D02*
X1278856D01*
X1140276Y2126207D02*
Y2375667D01*
X4277946Y2287096D02*
X4416527D01*
Y2536556D01*
X4277946D02*
X4416527D01*
X4277946Y2287096D02*
Y2536556D01*
X4055075Y2287096D02*
X4193655D01*
Y2536556D01*
X4055075D02*
X4193655D01*
X4055075Y2287096D02*
Y2536556D01*
X3806340Y2151380D02*
Y2400840D01*
X3667760Y2151380D02*
X3806340D01*
X3667760D02*
Y2400840D01*
X3806340D01*
X3463140Y2150840D02*
Y2400300D01*
X3601720D01*
Y2150840D02*
Y2400300D01*
X3463140Y2150840D02*
X3601720D01*
X4132527Y4040449D02*
X4271107D01*
X4132527Y3790989D02*
Y4040449D01*
Y3790989D02*
X4271107D01*
Y4040449D01*
X4680139Y4299931D02*
X4818719D01*
X4680139Y4050471D02*
Y4299931D01*
Y4050471D02*
X4818719D01*
Y4299931D01*
X4369965Y4040449D02*
X4508545D01*
X4369965Y3790989D02*
Y4040449D01*
Y3790989D02*
X4508545D01*
Y4040449D01*
X4363955Y3209240D02*
X4502535D01*
X4363955Y2959780D02*
Y3209240D01*
Y2959780D02*
X4502535D01*
Y3209240D01*
X3068320Y4942600D02*
X3206900D01*
X3068320Y4693140D02*
Y4942600D01*
Y4693140D02*
X3206900D01*
Y4942600D01*
X3336140Y4693140D02*
Y4942600D01*
X3474720D01*
Y4693140D02*
Y4942600D01*
X3336140Y4693140D02*
X3474720D01*
X3039236Y4075235D02*
Y4324695D01*
X2900656Y4075235D02*
X3039236D01*
X2900656D02*
Y4324695D01*
X3039236D01*
X2643590D02*
X2782170D01*
X2643590Y4075235D02*
Y4324695D01*
Y4075235D02*
X2782170D01*
Y4324695D01*
X1881147Y4942600D02*
X2019727D01*
X1881147Y4693140D02*
Y4942600D01*
Y4693140D02*
X2019727D01*
Y4942600D01*
X2336803Y940847D02*
X2475383D01*
X2336803Y691387D02*
Y940847D01*
Y691387D02*
X2475383D01*
Y940847D01*
X3208024Y673337D02*
X3346604D01*
Y922797D01*
X3208024D02*
X3346604D01*
X3208024Y673337D02*
Y922797D01*
X2006600Y422180D02*
X2145180D01*
X2006600Y172720D02*
Y422180D01*
Y172720D02*
X2145180D01*
Y422180D01*
X5553892Y333534D02*
X5692472D01*
X5553892Y84074D02*
Y333534D01*
Y84074D02*
X5692472D01*
Y333534D01*
X5552472Y510000D02*
X5691052D01*
Y759460D01*
X5552472D02*
X5691052D01*
X5552472Y510000D02*
Y759460D01*
X2047581Y974660D02*
Y1113240D01*
X1798121D02*
X2047581D01*
X1798121Y974660D02*
Y1113240D01*
Y974660D02*
X2047581D01*
X2282040Y2149936D02*
Y2399396D01*
X2420620D01*
Y2149936D02*
Y2399396D01*
X2282040Y2149936D02*
X2420620D01*
X2500480D02*
Y2399396D01*
X2639060D01*
Y2149936D02*
Y2399396D01*
X2500480Y2149936D02*
X2639060D01*
X3078729Y1304980D02*
Y1554440D01*
X2940149Y1304980D02*
X3078729D01*
X2940149D02*
Y1554440D01*
X3078729D01*
X2857729Y1304980D02*
Y1554440D01*
X2719149Y1304980D02*
X2857729D01*
X2719149D02*
Y1554440D01*
X2857729D01*
X3190380Y1304980D02*
Y1554440D01*
X3328960D01*
Y1304980D02*
Y1554440D01*
X3190380Y1304980D02*
X3328960D01*
X5238481Y3044240D02*
Y3293700D01*
X5377061D01*
Y3044240D02*
Y3293700D01*
X5238481Y3044240D02*
X5377061D01*
X2666168Y5661120D02*
Y5910580D01*
X2527588Y5661120D02*
X2666168D01*
X2527588D02*
Y5910580D01*
X2666168D01*
X3066168Y6095480D02*
Y6344940D01*
X2927588Y6095480D02*
X3066168D01*
X2927588D02*
Y6344940D01*
X3066168D01*
X2866168Y6095480D02*
Y6344940D01*
X2727588Y6095480D02*
X2866168D01*
X2727588D02*
Y6344940D01*
X2866168D01*
X2666168Y6095480D02*
Y6344940D01*
X2527588Y6095480D02*
X2666168D01*
X2527588D02*
Y6344940D01*
X2666168D01*
X3360190Y6401700D02*
X3609650D01*
Y6263120D02*
Y6401700D01*
X3360190Y6263120D02*
X3609650D01*
X3360190D02*
Y6401700D01*
X3127860Y5280120D02*
Y5529580D01*
X3266440D01*
Y5280120D02*
Y5529580D01*
X3127860Y5280120D02*
X3266440D01*
X3313280D02*
X3451860D01*
Y5529580D01*
X3313280D02*
X3451860D01*
X3313280Y5280120D02*
Y5529580D01*
X1657627Y4942600D02*
X1796207D01*
X1657627Y4693140D02*
Y4942600D01*
Y4693140D02*
X1796207D01*
Y4942600D01*
X3759376Y4075235D02*
Y4324695D01*
X3620796Y4075235D02*
X3759376D01*
X3620796D02*
Y4324695D01*
X3759376D01*
X1140276Y3568300D02*
Y3817760D01*
X1278856D01*
Y3568300D02*
Y3817760D01*
X1140276Y3568300D02*
X1278856D01*
X1140276Y2637440D02*
Y2886900D01*
X1278856D01*
Y2637440D02*
Y2886900D01*
X1140276Y2637440D02*
X1278856D01*
X1810147Y555356D02*
Y693936D01*
X1560687D02*
X1810147D01*
X1560687Y555356D02*
Y693936D01*
Y555356D02*
X1810147D01*
X2267927Y172720D02*
X2406507D01*
Y422180D01*
X2267927D02*
X2406507D01*
X2267927Y172720D02*
Y422180D01*
X2867890Y2149936D02*
Y2399396D01*
X2729310Y2149936D02*
X2867890D01*
X2729310D02*
Y2399396D01*
X2867890D01*
X2927588Y5661120D02*
X3066168D01*
Y5910580D01*
X2927588D02*
X3066168D01*
X2927588Y5661120D02*
Y5910580D01*
X6754727Y1719580D02*
Y1969040D01*
X6616147Y1719580D02*
X6754727D01*
X6616147D02*
Y1969040D01*
X6754727D01*
Y4155170D02*
Y4404630D01*
X6616147Y4155170D02*
X6754727D01*
X6616147D02*
Y4404630D01*
X6754727D01*
X5728267Y4155170D02*
Y4404630D01*
X5866847D01*
Y4155170D02*
Y4404630D01*
X5728267Y4155170D02*
X5866847D01*
X2957432Y2150402D02*
Y2399862D01*
X3096013D01*
Y2150402D02*
Y2399862D01*
X2957432Y2150402D02*
X3096013D01*
X3186589Y2149396D02*
Y2398856D01*
X3325169D01*
Y2149396D02*
Y2398856D01*
X3186589Y2149396D02*
X3325169D01*
X5308719Y4049380D02*
X5447299D01*
Y4298840D01*
X5308719D02*
X5447299D01*
X5308719Y4049380D02*
Y4298840D01*
X1140276Y1743208D02*
X1278856D01*
Y1992668D01*
X1140276D02*
X1278856D01*
X1140276Y1743208D02*
Y1992668D01*
X1561563Y745757D02*
Y884337D01*
Y745757D02*
X1811023D01*
Y884337D01*
X1561563D02*
X1811023D01*
X3208024Y167100D02*
X3346604D01*
Y416560D01*
X3208024D02*
X3346604D01*
X3208024Y167100D02*
Y416560D01*
X5728267Y2928350D02*
Y3177810D01*
X5866847D01*
Y2928350D02*
Y3177810D01*
X5728267Y2928350D02*
X5866847D01*
X6754727D02*
Y3177810D01*
X6616147Y2928350D02*
X6754727D01*
X6616147D02*
Y3177810D01*
X6754727D01*
X3735220Y4693140D02*
Y4942600D01*
X3596640Y4693140D02*
X3735220D01*
X3596640D02*
Y4942600D01*
X3735220D01*
X1140276Y4480846D02*
X1278856D01*
Y4730306D01*
X1140276D02*
X1278856D01*
X1140276Y4480846D02*
Y4730306D01*
X6604717Y6088667D02*
Y6121179D01*
X5878277Y5838223D02*
Y5867179D01*
Y6088667D02*
Y6121179D01*
Y6342667D02*
Y6371623D01*
X6604717D01*
Y5838223D02*
Y5867179D01*
X5878277Y5838223D02*
X6604717D01*
Y6342667D02*
Y6371623D01*
X3186590Y1743207D02*
X3325170D01*
Y1992667D01*
X3186590D02*
X3325170D01*
X3186590Y1743207D02*
Y1992667D01*
X2957949Y1743207D02*
X3096529D01*
Y1992667D01*
X2957949D02*
X3096529D01*
X2957949Y1743207D02*
Y1992667D01*
X6604717Y2668845D02*
Y2697801D01*
X5878277Y2164401D02*
X6604717D01*
Y2193357D01*
X5878277Y2697801D02*
X6604717D01*
X5878277Y2668845D02*
Y2697801D01*
Y2414845D02*
Y2447357D01*
Y2164401D02*
Y2193357D01*
X6604717Y2414845D02*
Y2447357D01*
X6604718Y3893452D02*
Y3922408D01*
X5878278Y3389008D02*
X6604718D01*
Y3417964D01*
X5878278Y3922408D02*
X6604718D01*
X5878278Y3893452D02*
Y3922408D01*
Y3639452D02*
Y3671964D01*
Y3389008D02*
Y3417964D01*
X6604718Y3639452D02*
Y3671964D01*
Y4864059D02*
Y4896571D01*
X5878278Y4613615D02*
Y4642571D01*
Y4864059D02*
Y4896571D01*
Y5118059D02*
Y5147015D01*
X6604718D01*
Y4613615D02*
Y4642571D01*
X5878278Y4613615D02*
X6604718D01*
Y5118059D02*
Y5147015D01*
X4840400Y2693520D02*
Y2832100D01*
X4590940D02*
X4840400D01*
X4590940Y2693520D02*
Y2832100D01*
Y2693520D02*
X4840400D01*
X3072280Y5278120D02*
Y5527580D01*
X2933700Y5278120D02*
X3072280D01*
X2933700D02*
Y5527580D01*
X3072280D01*
X5728267Y5376910D02*
Y5626370D01*
X5866847D01*
Y5376910D02*
Y5626370D01*
X5728267Y5376910D02*
X5866847D01*
X6754727D02*
Y5626370D01*
X6616147Y5376910D02*
X6754727D01*
X6616147D02*
Y5626370D01*
X6754727D01*
X1430020Y4942600D02*
X1568600D01*
X1430020Y4693140D02*
Y4942600D01*
Y4693140D02*
X1568600D01*
Y4942600D01*
X2727588Y5910580D02*
X2866168D01*
X2727588Y5661120D02*
Y5910580D01*
Y5661120D02*
X2866168D01*
Y5910580D01*
X3691340Y5537740D02*
X3829920D01*
X3691340Y5288280D02*
Y5537740D01*
Y5288280D02*
X3829920D01*
Y5537740D01*
X3503780Y5287740D02*
X3642360D01*
Y5537200D01*
X3503780D02*
X3642360D01*
X3503780Y5287740D02*
Y5537200D01*
X1539240Y2440940D02*
X1818640D01*
X1539240D02*
Y4528820D01*
X1818640D01*
Y2440940D02*
Y4528820D01*
X2239400Y5727700D02*
X2134920D01*
X2187160Y5779940D02*
Y5675460D01*
X4990760Y5221197D02*
X5095240D01*
X5043000Y5168956D02*
Y5273437D01*
X4223699Y5227837D02*
X4328180D01*
X4275940Y5175596D02*
Y5280077D01*
D70*
X22860Y5704840D02*
Y6543040D01*
X-154940Y5704840D02*
X1229360D01*
X-154940Y6543040D02*
X1229360D01*
Y5704840D02*
Y6543040D01*
X-154940Y5704840D02*
Y6543040D01*
D71*
X3385820Y5217160D02*
X3512820D01*
X3614420D02*
X3754120D01*
X3385820Y5039360D02*
X3512820D01*
X3614420D02*
X3754120D01*
X3360420Y5064760D02*
Y5191760D01*
X3385820Y5217160D01*
X3360420Y5064760D02*
X3385820Y5039360D01*
X3754120D02*
Y5217160D01*
X4931820Y2687320D02*
Y2865120D01*
X5300120D02*
X5325520Y2839720D01*
X5300120Y2687320D02*
X5325520Y2712720D01*
Y2839720D01*
X4931820Y2865120D02*
X5071520D01*
X5173120D02*
X5300120D01*
X4931820Y2687320D02*
X5071520D01*
X5173120D02*
X5300120D01*
X1413100Y5039360D02*
Y5217160D01*
X1781400D02*
X1806800Y5191760D01*
X1781400Y5039360D02*
X1806800Y5064760D01*
Y5191760D01*
X1413100Y5217160D02*
X1552800D01*
X1654400D02*
X1781400D01*
X1413100Y5039360D02*
X1552800D01*
X1654400D02*
X1781400D01*
X4818719Y3446060D02*
X5308719D01*
X4818719Y3990060D02*
X5308719D01*
X903260Y1089979D02*
Y1252479D01*
X590260Y1089979D02*
Y1252479D01*
X3913760Y3716020D02*
Y3794380D01*
Y2794380D02*
Y2872740D01*
X2913760Y2794380D02*
X2992120D01*
X2913760Y3716020D02*
Y3794380D01*
X3835400D02*
X3913760D01*
X2913760D02*
X2992120D01*
X2913760Y2794380D02*
Y2872740D01*
X3835400Y2794380D02*
X3913760D01*
D72*
X4488780Y-509140D02*
X4741780D01*
X3982780D02*
Y-59140D01*
X5178780Y-509140D02*
Y-59140D01*
X4741780Y-309140D02*
X4971780D01*
X3729780Y-509140D02*
X3982780D01*
X4235780D01*
X4971780D02*
Y-309140D01*
X4235780D02*
X4488780D01*
X4971780Y-509140D02*
X5178780D01*
X4488780D02*
Y-309140D01*
X3729780Y-509140D02*
Y-59140D01*
X4741780Y-509140D02*
Y-309140D01*
X4235780Y-509140D02*
Y-309140D01*
D73*
X3553400Y3560D02*
Y53560D01*
X5347400Y3560D02*
Y53560D01*
X3553400Y-596440D02*
Y3560D01*
Y-596440D02*
X5347400D01*
Y3560D01*
X3553400D02*
X5347400D01*
X3553400Y1884560D02*
Y1953560D01*
X3783400D01*
X5094400D02*
X5347400D01*
Y1884560D02*
Y1953560D01*
D74*
X6793361Y548800D02*
X6733380D01*
Y518810D01*
X6743377Y508813D01*
X6783364D01*
X6793361Y518810D01*
Y548800D01*
Y488819D02*
X6733380D01*
X6763370D01*
Y448832D01*
X6793361D01*
X6733380D01*
X6793361Y428839D02*
Y388852D01*
Y408845D01*
X6733380D01*
Y368858D02*
Y348865D01*
Y358862D01*
X6793361D01*
X6783364Y368858D01*
X6733380Y318875D02*
Y298881D01*
Y308878D01*
X6793361D01*
X6783364Y318875D01*
X6631780Y1488600D02*
X6691761D01*
Y1458610D01*
X6681764Y1448613D01*
X6661770D01*
X6651774Y1458610D01*
Y1488600D01*
X6691761Y1428619D02*
Y1408626D01*
Y1418623D01*
X6631780D01*
Y1428619D01*
Y1408626D01*
Y1378636D02*
X6691761D01*
Y1348646D01*
X6681764Y1338649D01*
X6661770D01*
X6651774Y1348646D01*
Y1378636D01*
Y1358642D02*
X6631780Y1338649D01*
X6047580Y768970D02*
X6087567D01*
X6067574Y788964D02*
Y748977D01*
X6107561Y798961D02*
Y738980D01*
X6147548D01*
X6167541D02*
Y798961D01*
X6187535Y778967D01*
X6207528Y798961D01*
Y738980D01*
X6227522Y788964D02*
X6237518Y798961D01*
X6257512D01*
X6267509Y788964D01*
Y778967D01*
X6257512Y768970D01*
X6247515D01*
X6257512D01*
X6267509Y758974D01*
Y748977D01*
X6257512Y738980D01*
X6237518D01*
X6227522Y748977D01*
X6287502D02*
X6297499Y738980D01*
X6317493D01*
X6327489Y748977D01*
Y788964D01*
X6317493Y798961D01*
X6297499D01*
X6287502Y788964D01*
Y778967D01*
X6297499Y768970D01*
X6327489D01*
X6347483Y788964D02*
X6357480Y798961D01*
X6377473D01*
X6387470Y788964D01*
Y778967D01*
X6377473Y768970D01*
X6367476D01*
X6377473D01*
X6387470Y758974D01*
Y748977D01*
X6377473Y738980D01*
X6357480D01*
X6347483Y748977D01*
X6407463Y768970D02*
X6447450D01*
X1896567Y4332264D02*
X1886570Y4342261D01*
X1866577D01*
X1856580Y4332264D01*
Y4322267D01*
X1866577Y4312270D01*
X1886570D01*
X1896567Y4302274D01*
Y4292277D01*
X1886570Y4282280D01*
X1866577D01*
X1856580Y4292277D01*
X1916561Y4342261D02*
Y4282280D01*
X1946551D01*
X1956548Y4292277D01*
Y4332264D01*
X1946551Y4342261D01*
X1916561D01*
X1976541D02*
X1996535D01*
X1986538D01*
Y4282280D01*
X1976541D01*
X1996535D01*
X2203907Y3986824D02*
X2193910Y3996821D01*
X2173917D01*
X2163920Y3986824D01*
Y3976827D01*
X2173917Y3966830D01*
X2193910D01*
X2203907Y3956834D01*
Y3946837D01*
X2193910Y3936840D01*
X2173917D01*
X2163920Y3946837D01*
X2223901Y3996821D02*
Y3936840D01*
X2243894Y3956834D01*
X2263888Y3936840D01*
Y3996821D01*
X2283881D02*
Y3936840D01*
X2313871D01*
X2323868Y3946837D01*
Y3986824D01*
X2313871Y3996821D01*
X2283881D01*
X2343862D02*
X2363855D01*
X2353858D01*
Y3936840D01*
X2343862D01*
X2363855D01*
X2423836Y3996821D02*
X2403842D01*
X2393845Y3986824D01*
Y3946837D01*
X2403842Y3936840D01*
X2423836D01*
X2433832Y3946837D01*
Y3986824D01*
X2423836Y3996821D01*
X2203907Y3890304D02*
X2193910Y3900301D01*
X2173917D01*
X2163920Y3890304D01*
Y3850317D01*
X2173917Y3840320D01*
X2193910D01*
X2203907Y3850317D01*
Y3870310D01*
X2183914D01*
X2223901Y3840320D02*
Y3900301D01*
X2263888Y3840320D01*
Y3900301D01*
X2283881D02*
Y3840320D01*
X2313871D01*
X2323868Y3850317D01*
Y3890304D01*
X2313871Y3900301D01*
X2283881D01*
X2171540Y3712504D02*
X2181537Y3722501D01*
X2201530D01*
X2211527Y3712504D01*
Y3702507D01*
X2201530Y3692510D01*
X2191534D01*
X2201530D01*
X2211527Y3682514D01*
Y3672517D01*
X2201530Y3662520D01*
X2181537D01*
X2171540Y3672517D01*
X2231521Y3722501D02*
Y3682514D01*
X2251514Y3662520D01*
X2271508Y3682514D01*
Y3722501D01*
X2291501Y3712504D02*
X2301498Y3722501D01*
X2321491D01*
X2331488Y3712504D01*
Y3702507D01*
X2321491Y3692510D01*
X2311495D01*
X2321491D01*
X2331488Y3682514D01*
Y3672517D01*
X2321491Y3662520D01*
X2301498D01*
X2291501Y3672517D01*
X2206447Y3798864D02*
X2196450Y3808861D01*
X2176457D01*
X2166460Y3798864D01*
Y3788867D01*
X2176457Y3778870D01*
X2196450D01*
X2206447Y3768874D01*
Y3758877D01*
X2196450Y3748880D01*
X2176457D01*
X2166460Y3758877D01*
X2226441Y3808861D02*
Y3748880D01*
X2246434Y3768874D01*
X2266428Y3748880D01*
Y3808861D01*
X2326408Y3798864D02*
X2316411Y3808861D01*
X2296418D01*
X2286421Y3798864D01*
Y3758877D01*
X2296418Y3748880D01*
X2316411D01*
X2326408Y3758877D01*
X2346402Y3808861D02*
Y3748880D01*
X2386389D01*
X2406382Y3808861D02*
Y3748880D01*
Y3768874D01*
X2446369Y3808861D01*
X2416379Y3778870D01*
X2446369Y3748880D01*
X1904187Y4004441D02*
X1864200D01*
Y3974450D01*
X1884194Y3984447D01*
X1894190D01*
X1904187Y3974450D01*
Y3954457D01*
X1894190Y3944460D01*
X1874197D01*
X1864200Y3954457D01*
X1924181Y4004441D02*
Y3964454D01*
X1944174Y3944460D01*
X1964168Y3964454D01*
Y4004441D01*
X1901647Y4080804D02*
X1891650Y4090801D01*
X1871657D01*
X1861660Y4080804D01*
Y4040817D01*
X1871657Y4030820D01*
X1891650D01*
X1901647Y4040817D01*
Y4060810D01*
X1881654D01*
X1921641Y4030820D02*
Y4090801D01*
X1961628Y4030820D01*
Y4090801D01*
X1981621D02*
Y4030820D01*
X2011611D01*
X2021608Y4040817D01*
Y4080804D01*
X2011611Y4090801D01*
X1981621D01*
X1861660Y4114640D02*
Y4174621D01*
X1891650D01*
X1901647Y4164624D01*
Y4144630D01*
X1891650Y4134634D01*
X1861660D01*
X1881654D02*
X1901647Y4114640D01*
X1961628Y4164624D02*
X1951631Y4174621D01*
X1931637D01*
X1921641Y4164624D01*
Y4154627D01*
X1931637Y4144630D01*
X1951631D01*
X1961628Y4134634D01*
Y4124637D01*
X1951631Y4114640D01*
X1931637D01*
X1921641Y4124637D01*
X1859120Y4258441D02*
Y4198460D01*
X1889110D01*
X1899107Y4208457D01*
Y4248444D01*
X1889110Y4258441D01*
X1859120D01*
X1959088Y4248444D02*
X1949091Y4258441D01*
X1929097D01*
X1919101Y4248444D01*
Y4208457D01*
X1929097Y4198460D01*
X1949091D01*
X1959088Y4208457D01*
X1896567Y4418624D02*
X1886570Y4428621D01*
X1866577D01*
X1856580Y4418624D01*
Y4408627D01*
X1866577Y4398630D01*
X1886570D01*
X1896567Y4388634D01*
Y4378637D01*
X1886570Y4368640D01*
X1866577D01*
X1856580Y4378637D01*
X1956548Y4418624D02*
X1946551Y4428621D01*
X1926557D01*
X1916561Y4418624D01*
Y4378637D01*
X1926557Y4368640D01*
X1946551D01*
X1956548Y4378637D01*
X1976541Y4428621D02*
Y4368640D01*
Y4388634D01*
X2016528Y4428621D01*
X1986538Y4398630D01*
X2016528Y4368640D01*
X1851500Y4532761D02*
Y4472780D01*
X1891487D01*
X1951468Y4532761D02*
X1911481D01*
Y4472780D01*
X1951468D01*
X1911481Y4502770D02*
X1931474D01*
X1971461Y4532761D02*
Y4472780D01*
X2001451D01*
X2011448Y4482777D01*
Y4522764D01*
X2001451Y4532761D01*
X1971461D01*
X4572653Y3403110D02*
Y3393113D01*
X4592647Y3373120D01*
X4612640Y3393113D01*
Y3403110D01*
X4592647Y3373120D02*
Y3343130D01*
X4632634D02*
X4652627D01*
X4642630D01*
Y3403110D01*
X4632634Y3393113D01*
X4617744Y2493954D02*
X4644402D01*
X4631073D01*
Y2453967D01*
X4657731D02*
Y2493954D01*
X4677725D01*
X4684389Y2487289D01*
Y2473960D01*
X4677725Y2467296D01*
X4657731D01*
X4717712Y2453967D02*
Y2493954D01*
X4697718Y2473960D01*
X4724376D01*
X4960644Y2361874D02*
X4987302D01*
X4973973D01*
Y2321887D01*
X5000631D02*
Y2361874D01*
X5020625D01*
X5027289Y2355209D01*
Y2341880D01*
X5020625Y2335216D01*
X5000631D01*
X5040618Y2355209D02*
X5047283Y2361874D01*
X5060612D01*
X5067276Y2355209D01*
Y2348545D01*
X5060612Y2341880D01*
X5053947D01*
X5060612D01*
X5067276Y2335216D01*
Y2328551D01*
X5060612Y2321887D01*
X5047283D01*
X5040618Y2328551D01*
X351826Y5264930D02*
X391813D01*
X371820D01*
Y5204950D01*
X411807D02*
Y5264930D01*
X441797D01*
X451794Y5254933D01*
Y5234940D01*
X441797Y5224943D01*
X411807D01*
X511774Y5204950D02*
X471787D01*
X511774Y5244937D01*
Y5254933D01*
X501778Y5264930D01*
X481784D01*
X471787Y5254933D01*
X5325449Y2496494D02*
X5352107D01*
X5338777D01*
Y2456507D01*
X5365436D02*
Y2496494D01*
X5385429D01*
X5392094Y2489829D01*
Y2476500D01*
X5385429Y2469836D01*
X5365436D01*
X5405423Y2456507D02*
X5418751D01*
X5412087D01*
Y2496494D01*
X5405423Y2489829D01*
X3193923Y2022330D02*
Y2082310D01*
X3223913D01*
X3233910Y2072313D01*
Y2052320D01*
X3223913Y2042323D01*
X3193923D01*
X3213916D02*
X3233910Y2022330D01*
X3253903Y2072313D02*
X3263900Y2082310D01*
X3283894D01*
X3293890Y2072313D01*
Y2062317D01*
X3283894Y2052320D01*
X3273897D01*
X3283894D01*
X3293890Y2042323D01*
Y2032326D01*
X3283894Y2022330D01*
X3263900D01*
X3253903Y2032326D01*
X3313884Y2022330D02*
X3333878D01*
X3323881D01*
Y2082310D01*
X3313884Y2072313D01*
X2955326Y2022330D02*
Y2082310D01*
X2985316D01*
X2995313Y2072313D01*
Y2052320D01*
X2985316Y2042323D01*
X2955326D01*
X2975320D02*
X2995313Y2022330D01*
X3015307Y2072313D02*
X3025303Y2082310D01*
X3045297D01*
X3055294Y2072313D01*
Y2062317D01*
X3045297Y2052320D01*
X3035300D01*
X3045297D01*
X3055294Y2042323D01*
Y2032326D01*
X3045297Y2022330D01*
X3025303D01*
X3015307Y2032326D01*
X3075287Y2072313D02*
X3085284Y2082310D01*
X3105278D01*
X3115274Y2072313D01*
Y2032326D01*
X3105278Y2022330D01*
X3085284D01*
X3075287Y2032326D01*
Y2072313D01*
X1114429Y1783391D02*
X1054449D01*
Y1813381D01*
X1064446Y1823378D01*
X1084439D01*
X1094436Y1813381D01*
Y1783391D01*
Y1803385D02*
X1114429Y1823378D01*
Y1883358D02*
Y1843371D01*
X1074442Y1883358D01*
X1064446D01*
X1054449Y1873362D01*
Y1853368D01*
X1064446Y1843371D01*
X1104433Y1903352D02*
X1114429Y1913349D01*
Y1933342D01*
X1104433Y1943339D01*
X1064446D01*
X1054449Y1933342D01*
Y1913349D01*
X1064446Y1903352D01*
X1074442D01*
X1084439Y1913349D01*
Y1943339D01*
X1114570Y2681006D02*
X1054590D01*
Y2710996D01*
X1064587Y2720993D01*
X1084580D01*
X1094577Y2710996D01*
Y2681006D01*
Y2701000D02*
X1114570Y2720993D01*
Y2780974D02*
Y2740987D01*
X1074583Y2780974D01*
X1064587D01*
X1054590Y2770977D01*
Y2750983D01*
X1064587Y2740987D01*
Y2800967D02*
X1054590Y2810964D01*
Y2830958D01*
X1064587Y2840954D01*
X1074583D01*
X1084580Y2830958D01*
X1094577Y2840954D01*
X1104574D01*
X1114570Y2830958D01*
Y2810964D01*
X1104574Y2800967D01*
X1094577D01*
X1084580Y2810964D01*
X1074583Y2800967D01*
X1064587D01*
X1084580Y2810964D02*
Y2830958D01*
X1112030Y3630966D02*
X1052050D01*
Y3660956D01*
X1062047Y3670953D01*
X1082040D01*
X1092037Y3660956D01*
Y3630966D01*
Y3650960D02*
X1112030Y3670953D01*
Y3730934D02*
Y3690947D01*
X1072043Y3730934D01*
X1062047D01*
X1052050Y3720937D01*
Y3700943D01*
X1062047Y3690947D01*
X1052050Y3750927D02*
Y3790914D01*
X1062047D01*
X1102034Y3750927D01*
X1112030D01*
X1099330Y4514886D02*
X1039349D01*
Y4544876D01*
X1049346Y4554873D01*
X1069340D01*
X1079336Y4544876D01*
Y4514886D01*
Y4534879D02*
X1099330Y4554873D01*
Y4614853D02*
Y4574866D01*
X1059343Y4614853D01*
X1049346D01*
X1039349Y4604857D01*
Y4584863D01*
X1049346Y4574866D01*
X1039349Y4674834D02*
X1049346Y4654841D01*
X1069340Y4634847D01*
X1089333D01*
X1099330Y4644844D01*
Y4664837D01*
X1089333Y4674834D01*
X1079336D01*
X1069340Y4664837D01*
Y4634847D01*
X6600226Y5659610D02*
Y5719590D01*
X6630216D01*
X6640213Y5709593D01*
Y5689600D01*
X6630216Y5679603D01*
X6600226D01*
X6620220D02*
X6640213Y5659610D01*
X6700194D02*
X6660207D01*
X6700194Y5699597D01*
Y5709593D01*
X6690197Y5719590D01*
X6670203D01*
X6660207Y5709593D01*
X6760174Y5719590D02*
X6720187D01*
Y5689600D01*
X6740181Y5699597D01*
X6750178D01*
X6760174Y5689600D01*
Y5669606D01*
X6750178Y5659610D01*
X6730184D01*
X6720187Y5669606D01*
X5721386Y5662150D02*
Y5722130D01*
X5751376D01*
X5761373Y5712133D01*
Y5692140D01*
X5751376Y5682143D01*
X5721386D01*
X5741380D02*
X5761373Y5662150D01*
X5821354D02*
X5781367D01*
X5821354Y5702137D01*
Y5712133D01*
X5811357Y5722130D01*
X5791363D01*
X5781367Y5712133D01*
X5871338Y5662150D02*
Y5722130D01*
X5841347Y5692140D01*
X5881334D01*
X6607846Y4440410D02*
Y4500390D01*
X6637836D01*
X6647833Y4490393D01*
Y4470400D01*
X6637836Y4460403D01*
X6607846D01*
X6627840D02*
X6647833Y4440410D01*
X6707814D02*
X6667827D01*
X6707814Y4480397D01*
Y4490393D01*
X6697817Y4500390D01*
X6677823D01*
X6667827Y4490393D01*
X6727807D02*
X6737804Y4500390D01*
X6757798D01*
X6767794Y4490393D01*
Y4480397D01*
X6757798Y4470400D01*
X6747801D01*
X6757798D01*
X6767794Y4460403D01*
Y4450406D01*
X6757798Y4440410D01*
X6737804D01*
X6727807Y4450406D01*
X5716306Y4435330D02*
Y4495310D01*
X5746296D01*
X5756293Y4485313D01*
Y4465320D01*
X5746296Y4455323D01*
X5716306D01*
X5736300D02*
X5756293Y4435330D01*
X5816274D02*
X5776287D01*
X5816274Y4475317D01*
Y4485313D01*
X5806277Y4495310D01*
X5786283D01*
X5776287Y4485313D01*
X5876254Y4435330D02*
X5836267D01*
X5876254Y4475317D01*
Y4485313D01*
X5866258Y4495310D01*
X5846264D01*
X5836267Y4485313D01*
X6615303Y3208510D02*
Y3268490D01*
X6645293D01*
X6655290Y3258493D01*
Y3238500D01*
X6645293Y3228503D01*
X6615303D01*
X6635296D02*
X6655290Y3208510D01*
X6715270D02*
X6675283D01*
X6715270Y3248497D01*
Y3258493D01*
X6705274Y3268490D01*
X6685280D01*
X6675283Y3258493D01*
X6735264Y3208510D02*
X6755258D01*
X6745261D01*
Y3268490D01*
X6735264Y3258493D01*
X5721386Y3223750D02*
Y3283730D01*
X5751376D01*
X5761373Y3273733D01*
Y3253740D01*
X5751376Y3243743D01*
X5721386D01*
X5741380D02*
X5761373Y3223750D01*
X5821354D02*
X5781367D01*
X5821354Y3263737D01*
Y3273733D01*
X5811357Y3283730D01*
X5791363D01*
X5781367Y3273733D01*
X5841347D02*
X5851344Y3283730D01*
X5871338D01*
X5881334Y3273733D01*
Y3233746D01*
X5871338Y3223750D01*
X5851344D01*
X5841347Y3233746D01*
Y3273733D01*
X6607765Y1999470D02*
Y2059450D01*
X6637755D01*
X6647751Y2049453D01*
Y2029460D01*
X6637755Y2019463D01*
X6607765D01*
X6627758D02*
X6647751Y1999470D01*
X6667745D02*
X6687739D01*
X6677742D01*
Y2059450D01*
X6667745Y2049453D01*
X6717729Y2009466D02*
X6727725Y1999470D01*
X6747719D01*
X6757716Y2009466D01*
Y2049453D01*
X6747719Y2059450D01*
X6727725D01*
X6717729Y2049453D01*
Y2039457D01*
X6727725Y2029460D01*
X6757716D01*
X5998165Y1748010D02*
Y1807990D01*
X6028155D01*
X6038152Y1797993D01*
Y1778000D01*
X6028155Y1768003D01*
X5998165D01*
X6018158D02*
X6038152Y1748010D01*
X6058145D02*
X6078139D01*
X6068142D01*
Y1807990D01*
X6058145Y1797993D01*
X6108129D02*
X6118125Y1807990D01*
X6138119D01*
X6148116Y1797993D01*
Y1787997D01*
X6138119Y1778000D01*
X6148116Y1768003D01*
Y1758006D01*
X6138119Y1748010D01*
X6118125D01*
X6108129Y1758006D01*
Y1768003D01*
X6118125Y1778000D01*
X6108129Y1787997D01*
Y1797993D01*
X6118125Y1778000D02*
X6138119D01*
X2266905Y457690D02*
Y517670D01*
X2296895D01*
X2306892Y507673D01*
Y487680D01*
X2296895Y477683D01*
X2266905D01*
X2286898D02*
X2306892Y457690D01*
X2326885D02*
X2346879D01*
X2336882D01*
Y517670D01*
X2326885Y507673D01*
X2376869Y517670D02*
X2416856D01*
Y507673D01*
X2376869Y467686D01*
Y457690D01*
X3191465Y450070D02*
Y510050D01*
X3221455D01*
X3231451Y500053D01*
Y480060D01*
X3221455Y470063D01*
X3191465D01*
X3211458D02*
X3231451Y450070D01*
X3251445D02*
X3271439D01*
X3261442D01*
Y510050D01*
X3251445Y500053D01*
X3341416Y510050D02*
X3321422Y500053D01*
X3301429Y480060D01*
Y460066D01*
X3311425Y450070D01*
X3331419D01*
X3341416Y460066D01*
Y470063D01*
X3331419Y480060D01*
X3301429D01*
X1609045Y912350D02*
Y972330D01*
X1639035D01*
X1649031Y962333D01*
Y942340D01*
X1639035Y932343D01*
X1609045D01*
X1629038D02*
X1649031Y912350D01*
X1669025D02*
X1689019D01*
X1679022D01*
Y972330D01*
X1669025Y962333D01*
X1748999Y912350D02*
Y972330D01*
X1719009Y942340D01*
X1758996D01*
X2960325Y2438890D02*
Y2498870D01*
X2990315D01*
X3000311Y2488873D01*
Y2468880D01*
X2990315Y2458883D01*
X2960325D01*
X2980318D02*
X3000311Y2438890D01*
X3020305D02*
X3040299D01*
X3030302D01*
Y2498870D01*
X3020305Y2488873D01*
X3070289D02*
X3080285Y2498870D01*
X3100279D01*
X3110276Y2488873D01*
Y2478877D01*
X3100279Y2468880D01*
X3090282D01*
X3100279D01*
X3110276Y2458883D01*
Y2448886D01*
X3100279Y2438890D01*
X3080285D01*
X3070289Y2448886D01*
X3188925Y2436350D02*
Y2496330D01*
X3218915D01*
X3228911Y2486333D01*
Y2466340D01*
X3218915Y2456343D01*
X3188925D01*
X3208918D02*
X3228911Y2436350D01*
X3248905D02*
X3268899D01*
X3258902D01*
Y2496330D01*
X3248905Y2486333D01*
X3338876Y2436350D02*
X3298889D01*
X3338876Y2476337D01*
Y2486333D01*
X3328879Y2496330D01*
X3308885D01*
X3298889Y2486333D01*
X2741721Y2436350D02*
Y2496330D01*
X2771711D01*
X2781708Y2486333D01*
Y2466340D01*
X2771711Y2456343D01*
X2741721D01*
X2761715D02*
X2781708Y2436350D01*
X2801702D02*
X2821695D01*
X2811698D01*
Y2496330D01*
X2801702Y2486333D01*
X2851685Y2436350D02*
X2871679D01*
X2861682D01*
Y2496330D01*
X2851685Y2486333D01*
X4639265Y2860530D02*
Y2920510D01*
X4669255D01*
X4679251Y2910513D01*
Y2890520D01*
X4669255Y2880523D01*
X4639265D01*
X4659258D02*
X4679251Y2860530D01*
X4699245D02*
X4719239D01*
X4709242D01*
Y2920510D01*
X4699245Y2910513D01*
X4749229D02*
X4759225Y2920510D01*
X4779219D01*
X4789216Y2910513D01*
Y2870526D01*
X4779219Y2860530D01*
X4759225D01*
X4749229Y2870526D01*
Y2910513D01*
X5329736Y4333730D02*
Y4393710D01*
X5359727D01*
X5369723Y4383713D01*
Y4363720D01*
X5359727Y4353723D01*
X5329736D01*
X5349730D02*
X5369723Y4333730D01*
X5389717Y4343726D02*
X5399714Y4333730D01*
X5419707D01*
X5429704Y4343726D01*
Y4383713D01*
X5419707Y4393710D01*
X5399714D01*
X5389717Y4383713D01*
Y4373717D01*
X5399714Y4363720D01*
X5429704D01*
X3526336Y5573250D02*
Y5633230D01*
X3556327D01*
X3566323Y5623233D01*
Y5603240D01*
X3556327Y5593243D01*
X3526336D01*
X3546330D02*
X3566323Y5573250D01*
X3586317Y5623233D02*
X3596314Y5633230D01*
X3616307D01*
X3626304Y5623233D01*
Y5613237D01*
X3616307Y5603240D01*
X3626304Y5593243D01*
Y5583246D01*
X3616307Y5573250D01*
X3596314D01*
X3586317Y5583246D01*
Y5593243D01*
X3596314Y5603240D01*
X3586317Y5613237D01*
Y5623233D01*
X3596314Y5603240D02*
X3616307D01*
X2754176Y5944090D02*
Y6004070D01*
X2784167D01*
X2794163Y5994073D01*
Y5974080D01*
X2784167Y5964083D01*
X2754176D01*
X2774170D02*
X2794163Y5944090D01*
X2814157Y6004070D02*
X2854144D01*
Y5994073D01*
X2814157Y5954086D01*
Y5944090D01*
X2970622Y5558446D02*
Y5608429D01*
X2995614D01*
X3003945Y5600099D01*
Y5583437D01*
X2995614Y5575107D01*
X2970622D01*
X2987284D02*
X3003945Y5558446D01*
X3053929Y5608429D02*
X3037267Y5600099D01*
X3020606Y5583437D01*
Y5566776D01*
X3028937Y5558446D01*
X3045598D01*
X3053929Y5566776D01*
Y5575107D01*
X3045598Y5583437D01*
X3020606D01*
X3627936Y4600430D02*
Y4660410D01*
X3657927D01*
X3667923Y4650413D01*
Y4630420D01*
X3657927Y4620423D01*
X3627936D01*
X3647930D02*
X3667923Y4600430D01*
X3727904Y4660410D02*
X3687917D01*
Y4630420D01*
X3707911Y4640417D01*
X3717907D01*
X3727904Y4630420D01*
Y4610426D01*
X3717907Y4600430D01*
X3697914D01*
X3687917Y4610426D01*
X3714296Y5573250D02*
Y5633230D01*
X3744287D01*
X3754283Y5623233D01*
Y5603240D01*
X3744287Y5593243D01*
X3714296D01*
X3734290D02*
X3754283Y5573250D01*
X3804267D02*
Y5633230D01*
X3774277Y5603240D01*
X3814264D01*
X2946895Y5945865D02*
Y6005845D01*
X2976885D01*
X2986882Y5995848D01*
Y5975855D01*
X2976885Y5965858D01*
X2946895D01*
X2966888D02*
X2986882Y5945865D01*
X3006875Y5995848D02*
X3016872Y6005845D01*
X3036866D01*
X3046862Y5995848D01*
Y5985852D01*
X3036866Y5975855D01*
X3026869D01*
X3036866D01*
X3046862Y5965858D01*
Y5955861D01*
X3036866Y5945865D01*
X3016872D01*
X3006875Y5955861D01*
X1458776Y4600430D02*
Y4660410D01*
X1488767D01*
X1498763Y4650413D01*
Y4630420D01*
X1488767Y4620423D01*
X1458776D01*
X1478770D02*
X1498763Y4600430D01*
X1558744D02*
X1518757D01*
X1558744Y4640417D01*
Y4650413D01*
X1548747Y4660410D01*
X1528754D01*
X1518757Y4650413D01*
X1131718Y820746D02*
Y860733D01*
X1121721Y870730D01*
X1101728D01*
X1091731Y860733D01*
Y820746D01*
X1101728Y810750D01*
X1121721D01*
X1111725Y830743D02*
X1131718Y810750D01*
X1121721D02*
X1131718Y820746D01*
X1191699Y810750D02*
X1151712D01*
X1191699Y850737D01*
Y860733D01*
X1181702Y870730D01*
X1161708D01*
X1151712Y860733D01*
X2263769Y816182D02*
Y856169D01*
X2253772Y866166D01*
X2233778D01*
X2223782Y856169D01*
Y816182D01*
X2233778Y806185D01*
X2253772D01*
X2243775Y826179D02*
X2263769Y806185D01*
X2253772D02*
X2263769Y816182D01*
X2283762Y806185D02*
X2303756D01*
X2293759D01*
Y866166D01*
X2283762Y856169D01*
X5412250Y2833824D02*
X5352270D01*
Y2803833D01*
X5362266Y2793837D01*
X5402253D01*
X5412250Y2803833D01*
Y2833824D01*
Y2733856D02*
Y2773843D01*
X5382260D01*
X5392257Y2753849D01*
Y2743853D01*
X5382260Y2733856D01*
X5362266D01*
X5352270Y2743853D01*
Y2763846D01*
X5362266Y2773843D01*
X1896890Y5165544D02*
X1836910D01*
Y5135553D01*
X1846906Y5125557D01*
X1886893D01*
X1896890Y5135553D01*
Y5165544D01*
X1836910Y5075573D02*
X1896890D01*
X1866900Y5105563D01*
Y5065576D01*
X3306590Y5188404D02*
X3246610D01*
Y5158413D01*
X3256606Y5148417D01*
X3296593D01*
X3306590Y5158413D01*
Y5188404D01*
X3296593Y5128423D02*
X3306590Y5118426D01*
Y5098433D01*
X3296593Y5088436D01*
X3286597D01*
X3276600Y5098433D01*
Y5108429D01*
Y5098433D01*
X3266603Y5088436D01*
X3256606D01*
X3246610Y5098433D01*
Y5118426D01*
X3256606Y5128423D01*
X3958156Y6447970D02*
Y6387990D01*
X3988146D01*
X3998143Y6397986D01*
Y6437973D01*
X3988146Y6447970D01*
X3958156D01*
X4058124Y6387990D02*
X4018137D01*
X4058124Y6427977D01*
Y6437973D01*
X4048127Y6447970D01*
X4028133D01*
X4018137Y6437973D01*
X1320233Y5759570D02*
Y5699590D01*
X1350223D01*
X1360220Y5709586D01*
Y5749573D01*
X1350223Y5759570D01*
X1320233D01*
X1380214Y5699590D02*
X1400207D01*
X1390210D01*
Y5759570D01*
X1380214Y5749573D01*
X1062046Y2200293D02*
X1052049Y2190296D01*
Y2170302D01*
X1062046Y2160306D01*
X1102033D01*
X1112030Y2170302D01*
Y2190296D01*
X1102033Y2200293D01*
X1112030Y2250277D02*
X1052049D01*
X1082040Y2220286D01*
Y2260273D01*
X1112030Y2320254D02*
Y2280267D01*
X1072043Y2320254D01*
X1062046D01*
X1052049Y2310257D01*
Y2290264D01*
X1062046Y2280267D01*
X1064586Y3127229D02*
X1054589Y3117233D01*
Y3097239D01*
X1064586Y3087242D01*
X1104573D01*
X1114570Y3097239D01*
Y3117233D01*
X1104573Y3127229D01*
X1114570Y3177213D02*
X1054589D01*
X1084580Y3147223D01*
Y3187210D01*
X1114570Y3207204D02*
Y3227197D01*
Y3217200D01*
X1054589D01*
X1064586Y3207204D01*
X1062047Y4029093D02*
X1052050Y4019096D01*
Y3999103D01*
X1062047Y3989106D01*
X1102034D01*
X1112030Y3999103D01*
Y4019096D01*
X1102034Y4029093D01*
X1112030Y4079077D02*
X1052050D01*
X1082040Y4049087D01*
Y4089074D01*
X1062047Y4109067D02*
X1052050Y4119064D01*
Y4139058D01*
X1062047Y4149054D01*
X1102034D01*
X1112030Y4139058D01*
Y4119064D01*
X1102034Y4109067D01*
X1062047D01*
X1054426Y4946033D02*
X1044429Y4936036D01*
Y4916042D01*
X1054426Y4906046D01*
X1094413D01*
X1104410Y4916042D01*
Y4936036D01*
X1094413Y4946033D01*
X1054426Y4966026D02*
X1044429Y4976023D01*
Y4996017D01*
X1054426Y5006013D01*
X1064423D01*
X1074420Y4996017D01*
Y4986020D01*
Y4996017D01*
X1084416Y5006013D01*
X1094413D01*
X1104410Y4996017D01*
Y4976023D01*
X1094413Y4966026D01*
Y5026007D02*
X1104410Y5036004D01*
Y5055997D01*
X1094413Y5065994D01*
X1054426D01*
X1044429Y5055997D01*
Y5036004D01*
X1054426Y5026007D01*
X1064423D01*
X1074420Y5036004D01*
Y5065994D01*
X2042813Y500053D02*
X2032816Y510050D01*
X2012823D01*
X2002826Y500053D01*
Y460066D01*
X2012823Y450070D01*
X2032816D01*
X2042813Y460066D01*
X2062807Y500053D02*
X2072803Y510050D01*
X2092797D01*
X2102794Y500053D01*
Y490057D01*
X2092797Y480060D01*
X2082800D01*
X2092797D01*
X2102794Y470063D01*
Y460066D01*
X2092797Y450070D01*
X2072803D01*
X2062807Y460066D01*
X2122787Y500053D02*
X2132784Y510050D01*
X2152778D01*
X2162774Y500053D01*
Y490057D01*
X2152778Y480060D01*
X2162774Y470063D01*
Y460066D01*
X2152778Y450070D01*
X2132784D01*
X2122787Y460066D01*
Y470063D01*
X2132784Y480060D01*
X2122787Y490057D01*
Y500053D01*
X2132784Y480060D02*
X2152778D01*
X3221373Y1640513D02*
X3211376Y1650510D01*
X3191383D01*
X3181386Y1640513D01*
Y1600526D01*
X3191383Y1590530D01*
X3211376D01*
X3221373Y1600526D01*
X3241367Y1640513D02*
X3251363Y1650510D01*
X3271357D01*
X3281354Y1640513D01*
Y1630517D01*
X3271357Y1620520D01*
X3261360D01*
X3271357D01*
X3281354Y1610523D01*
Y1600526D01*
X3271357Y1590530D01*
X3251363D01*
X3241367Y1600526D01*
X3301347Y1650510D02*
X3341334D01*
Y1640513D01*
X3301347Y1600526D01*
Y1590530D01*
X2367933Y1023293D02*
X2357936Y1033290D01*
X2337943D01*
X2327946Y1023293D01*
Y983306D01*
X2337943Y973310D01*
X2357936D01*
X2367933Y983306D01*
X2387927Y1023293D02*
X2397923Y1033290D01*
X2417917D01*
X2427914Y1023293D01*
Y1013297D01*
X2417917Y1003300D01*
X2407920D01*
X2417917D01*
X2427914Y993303D01*
Y983306D01*
X2417917Y973310D01*
X2397923D01*
X2387927Y983306D01*
X2487894Y1033290D02*
X2467901Y1023293D01*
X2447907Y1003300D01*
Y983306D01*
X2457904Y973310D01*
X2477898D01*
X2487894Y983306D01*
Y993303D01*
X2477898Y1003300D01*
X2447907D01*
X3239153Y1002973D02*
X3229156Y1012970D01*
X3209163D01*
X3199166Y1002973D01*
Y962986D01*
X3209163Y952990D01*
X3229156D01*
X3239153Y962986D01*
X3259147Y1002973D02*
X3269143Y1012970D01*
X3289137D01*
X3299134Y1002973D01*
Y992977D01*
X3289137Y982980D01*
X3279140D01*
X3289137D01*
X3299134Y972983D01*
Y962986D01*
X3289137Y952990D01*
X3269143D01*
X3259147Y962986D01*
X3359114Y1012970D02*
X3319127D01*
Y982980D01*
X3339121Y992977D01*
X3349118D01*
X3359114Y982980D01*
Y962986D01*
X3349118Y952990D01*
X3329124D01*
X3319127Y962986D01*
X2751473Y1643053D02*
X2741476Y1653050D01*
X2721483D01*
X2711486Y1643053D01*
Y1603066D01*
X2721483Y1593070D01*
X2741476D01*
X2751473Y1603066D01*
X2771467Y1643053D02*
X2781463Y1653050D01*
X2801457D01*
X2811454Y1643053D01*
Y1633057D01*
X2801457Y1623060D01*
X2791460D01*
X2801457D01*
X2811454Y1613063D01*
Y1603066D01*
X2801457Y1593070D01*
X2781463D01*
X2771467Y1603066D01*
X2861438Y1593070D02*
Y1653050D01*
X2831447Y1623060D01*
X2871434D01*
X2974993Y1645593D02*
X2964996Y1655590D01*
X2945003D01*
X2935006Y1645593D01*
Y1605606D01*
X2945003Y1595610D01*
X2964996D01*
X2974993Y1605606D01*
X2994987Y1645593D02*
X3004983Y1655590D01*
X3024977D01*
X3034974Y1645593D01*
Y1635597D01*
X3024977Y1625600D01*
X3014980D01*
X3024977D01*
X3034974Y1615603D01*
Y1605606D01*
X3024977Y1595610D01*
X3004983D01*
X2994987Y1605606D01*
X3054967Y1645593D02*
X3064964Y1655590D01*
X3084958D01*
X3094954Y1645593D01*
Y1635597D01*
X3084958Y1625600D01*
X3074961D01*
X3084958D01*
X3094954Y1615603D01*
Y1605606D01*
X3084958Y1595610D01*
X3064964D01*
X3054967Y1605606D01*
X5587281Y415232D02*
X5577284Y425229D01*
X5557291D01*
X5547294Y415232D01*
Y375245D01*
X5557291Y365248D01*
X5577284D01*
X5587281Y375245D01*
X5607275Y415232D02*
X5617271Y425229D01*
X5637265D01*
X5647262Y415232D01*
Y405235D01*
X5637265Y395239D01*
X5627268D01*
X5637265D01*
X5647262Y385242D01*
Y375245D01*
X5637265Y365248D01*
X5617271D01*
X5607275Y375245D01*
X5707242Y365248D02*
X5667255D01*
X5707242Y405235D01*
Y415232D01*
X5697245Y425229D01*
X5677252D01*
X5667255Y415232D01*
X5592482Y848033D02*
X5582485Y858030D01*
X5562492D01*
X5552495Y848033D01*
Y808046D01*
X5562492Y798050D01*
X5582485D01*
X5592482Y808046D01*
X5612476Y848033D02*
X5622472Y858030D01*
X5642466D01*
X5652463Y848033D01*
Y838037D01*
X5642466Y828040D01*
X5632469D01*
X5642466D01*
X5652463Y818043D01*
Y808046D01*
X5642466Y798050D01*
X5622472D01*
X5612476Y808046D01*
X5672456Y798050D02*
X5692450D01*
X5682453D01*
Y858030D01*
X5672456Y848033D01*
X2125653Y1076307D02*
X2135650Y1086304D01*
Y1106297D01*
X2125653Y1116294D01*
X2085666D01*
X2075670Y1106297D01*
Y1086304D01*
X2085666Y1076307D01*
X2125653Y1056313D02*
X2135650Y1046317D01*
Y1026323D01*
X2125653Y1016326D01*
X2115657D01*
X2105660Y1026323D01*
Y1036320D01*
Y1026323D01*
X2095663Y1016326D01*
X2085666D01*
X2075670Y1026323D01*
Y1046317D01*
X2085666Y1056313D01*
X2125653Y996333D02*
X2135650Y986336D01*
Y966342D01*
X2125653Y956346D01*
X2085666D01*
X2075670Y966342D01*
Y986336D01*
X2085666Y996333D01*
X2125653D01*
X4399933Y4122093D02*
X4389936Y4132090D01*
X4369943D01*
X4359946Y4122093D01*
Y4082106D01*
X4369943Y4072110D01*
X4389936D01*
X4399933Y4082106D01*
X4459914Y4072110D02*
X4419927D01*
X4459914Y4112097D01*
Y4122093D01*
X4449917Y4132090D01*
X4429923D01*
X4419927Y4122093D01*
X4479907Y4082106D02*
X4489904Y4072110D01*
X4509898D01*
X4519894Y4082106D01*
Y4122093D01*
X4509898Y4132090D01*
X4489904D01*
X4479907Y4122093D01*
Y4112097D01*
X4489904Y4102100D01*
X4519894D01*
X4163713Y4124633D02*
X4153716Y4134630D01*
X4133723D01*
X4123726Y4124633D01*
Y4084646D01*
X4133723Y4074650D01*
X4153716D01*
X4163713Y4084646D01*
X4223694Y4074650D02*
X4183707D01*
X4223694Y4114637D01*
Y4124633D01*
X4213697Y4134630D01*
X4193703D01*
X4183707Y4124633D01*
X4243687D02*
X4253684Y4134630D01*
X4273678D01*
X4283674Y4124633D01*
Y4114637D01*
X4273678Y4104640D01*
X4283674Y4094643D01*
Y4084646D01*
X4273678Y4074650D01*
X4253684D01*
X4243687Y4084646D01*
Y4094643D01*
X4253684Y4104640D01*
X4243687Y4114637D01*
Y4124633D01*
X4253684Y4104640D02*
X4273678D01*
X2319673Y2491413D02*
X2309676Y2501410D01*
X2289683D01*
X2279686Y2491413D01*
Y2451426D01*
X2289683Y2441430D01*
X2309676D01*
X2319673Y2451426D01*
X2379654Y2441430D02*
X2339667D01*
X2379654Y2481417D01*
Y2491413D01*
X2369657Y2501410D01*
X2349663D01*
X2339667Y2491413D01*
X2399647Y2501410D02*
X2439634D01*
Y2491413D01*
X2399647Y2451426D01*
Y2441430D01*
X2540653Y2488873D02*
X2530656Y2498870D01*
X2510663D01*
X2500666Y2488873D01*
Y2448886D01*
X2510663Y2438890D01*
X2530656D01*
X2540653Y2448886D01*
X2600634Y2438890D02*
X2560647D01*
X2600634Y2478877D01*
Y2488873D01*
X2590637Y2498870D01*
X2570643D01*
X2560647Y2488873D01*
X2660614Y2498870D02*
X2640621Y2488873D01*
X2620627Y2468880D01*
Y2448886D01*
X2630624Y2438890D01*
X2650618D01*
X2660614Y2448886D01*
Y2458883D01*
X2650618Y2468880D01*
X2620627D01*
X4090053Y2615873D02*
X4080056Y2625870D01*
X4060063D01*
X4050066Y2615873D01*
Y2575886D01*
X4060063Y2565890D01*
X4080056D01*
X4090053Y2575886D01*
X4150034Y2565890D02*
X4110047D01*
X4150034Y2605877D01*
Y2615873D01*
X4140037Y2625870D01*
X4120043D01*
X4110047Y2615873D01*
X4210014Y2625870D02*
X4170027D01*
Y2595880D01*
X4190021Y2605877D01*
X4200018D01*
X4210014Y2595880D01*
Y2575886D01*
X4200018Y2565890D01*
X4180024D01*
X4170027Y2575886D01*
X4316113Y2615873D02*
X4306116Y2625870D01*
X4286123D01*
X4276126Y2615873D01*
Y2575886D01*
X4286123Y2565890D01*
X4306116D01*
X4316113Y2575886D01*
X4376094Y2565890D02*
X4336107D01*
X4376094Y2605877D01*
Y2615873D01*
X4366097Y2625870D01*
X4346103D01*
X4336107Y2615873D01*
X4426078Y2565890D02*
Y2625870D01*
X4396087Y2595880D01*
X4436074D01*
X3698893Y2488873D02*
X3688896Y2498870D01*
X3668903D01*
X3658906Y2488873D01*
Y2448886D01*
X3668903Y2438890D01*
X3688896D01*
X3698893Y2448886D01*
X3758874Y2438890D02*
X3718887D01*
X3758874Y2478877D01*
Y2488873D01*
X3748877Y2498870D01*
X3728883D01*
X3718887Y2488873D01*
X3778867D02*
X3788864Y2498870D01*
X3808858D01*
X3818854Y2488873D01*
Y2478877D01*
X3808858Y2468880D01*
X3798861D01*
X3808858D01*
X3818854Y2458883D01*
Y2448886D01*
X3808858Y2438890D01*
X3788864D01*
X3778867Y2448886D01*
X3500773Y2488873D02*
X3490776Y2498870D01*
X3470783D01*
X3460786Y2488873D01*
Y2448886D01*
X3470783Y2438890D01*
X3490776D01*
X3500773Y2448886D01*
X3560754Y2438890D02*
X3520767D01*
X3560754Y2478877D01*
Y2488873D01*
X3550757Y2498870D01*
X3530763D01*
X3520767Y2488873D01*
X3620734Y2438890D02*
X3580747D01*
X3620734Y2478877D01*
Y2488873D01*
X3610738Y2498870D01*
X3590744D01*
X3580747Y2488873D01*
X3912090Y4406573D02*
X3902093Y4416570D01*
X3882099D01*
X3872103Y4406573D01*
Y4366586D01*
X3882099Y4356590D01*
X3902093D01*
X3912090Y4366586D01*
X3972070Y4356590D02*
X3932083D01*
X3972070Y4396577D01*
Y4406573D01*
X3962074Y4416570D01*
X3942080D01*
X3932083Y4406573D01*
X3992064Y4356590D02*
X4012058D01*
X4002061D01*
Y4416570D01*
X3992064Y4406573D01*
X3648093D02*
X3638096Y4416570D01*
X3618103D01*
X3608106Y4406573D01*
Y4366586D01*
X3618103Y4356590D01*
X3638096D01*
X3648093Y4366586D01*
X3708074Y4356590D02*
X3668087D01*
X3708074Y4396577D01*
Y4406573D01*
X3698077Y4416570D01*
X3678083D01*
X3668087Y4406573D01*
X3728067D02*
X3738064Y4416570D01*
X3758058D01*
X3768054Y4406573D01*
Y4366586D01*
X3758058Y4356590D01*
X3738064D01*
X3728067Y4366586D01*
Y4406573D01*
X2936811Y4404033D02*
X2926815Y4414030D01*
X2906821D01*
X2896825Y4404033D01*
Y4364046D01*
X2906821Y4354050D01*
X2926815D01*
X2936811Y4364046D01*
X2956805Y4354050D02*
X2976799D01*
X2966802D01*
Y4414030D01*
X2956805Y4404033D01*
X3006789Y4364046D02*
X3016785Y4354050D01*
X3036779D01*
X3046776Y4364046D01*
Y4404033D01*
X3036779Y4414030D01*
X3016785D01*
X3006789Y4404033D01*
Y4394037D01*
X3016785Y4384040D01*
X3046776D01*
X2675191Y4411653D02*
X2665195Y4421650D01*
X2645201D01*
X2635205Y4411653D01*
Y4371666D01*
X2645201Y4361670D01*
X2665195D01*
X2675191Y4371666D01*
X2695185Y4361670D02*
X2715179D01*
X2705182D01*
Y4421650D01*
X2695185Y4411653D01*
X2745169D02*
X2755165Y4421650D01*
X2775159D01*
X2785156Y4411653D01*
Y4401657D01*
X2775159Y4391660D01*
X2785156Y4381663D01*
Y4371666D01*
X2775159Y4361670D01*
X2755165D01*
X2745169Y4371666D01*
Y4381663D01*
X2755165Y4391660D01*
X2745169Y4401657D01*
Y4411653D01*
X2755165Y4391660D02*
X2775159D01*
X4717351Y4381173D02*
X4707355Y4391170D01*
X4687361D01*
X4677365Y4381173D01*
Y4341186D01*
X4687361Y4331190D01*
X4707355D01*
X4717351Y4341186D01*
X4737345Y4331190D02*
X4757339D01*
X4747342D01*
Y4391170D01*
X4737345Y4381173D01*
X4787329Y4391170D02*
X4827316D01*
Y4381173D01*
X4787329Y4341186D01*
Y4331190D01*
X5283772Y2996873D02*
X5273775Y3006870D01*
X5253781D01*
X5243785Y2996873D01*
Y2956886D01*
X5253781Y2946890D01*
X5273775D01*
X5283772Y2956886D01*
X5303765Y2946890D02*
X5323759D01*
X5313762D01*
Y3006870D01*
X5303765Y2996873D01*
X5393736Y3006870D02*
X5373742Y2996873D01*
X5353749Y2976880D01*
Y2956886D01*
X5363745Y2946890D01*
X5383739D01*
X5393736Y2956886D01*
Y2966883D01*
X5383739Y2976880D01*
X5353749D01*
X4394771Y2920673D02*
X4384775Y2930670D01*
X4364781D01*
X4354785Y2920673D01*
Y2880686D01*
X4364781Y2870690D01*
X4384775D01*
X4394771Y2880686D01*
X4414765Y2870690D02*
X4434759D01*
X4424762D01*
Y2930670D01*
X4414765Y2920673D01*
X4504736Y2930670D02*
X4464749D01*
Y2900680D01*
X4484742Y2910677D01*
X4494739D01*
X4504736Y2900680D01*
Y2880686D01*
X4494739Y2870690D01*
X4474745D01*
X4464749Y2880686D01*
X2574343Y5990741D02*
X2566012Y5999072D01*
X2549351D01*
X2541020Y5990741D01*
Y5957419D01*
X2549351Y5949088D01*
X2566012D01*
X2574343Y5957419D01*
X2591004Y5949088D02*
X2607665D01*
X2599335D01*
Y5999072D01*
X2591004Y5990741D01*
X2657649Y5949088D02*
Y5999072D01*
X2632657Y5974080D01*
X2665980D01*
X3348291Y5616303D02*
X3338295Y5626300D01*
X3318301D01*
X3308305Y5616303D01*
Y5576317D01*
X3318301Y5566320D01*
X3338295D01*
X3348291Y5576317D01*
X3368285Y5566320D02*
X3388279D01*
X3378282D01*
Y5626300D01*
X3368285Y5616303D01*
X3418269D02*
X3428265Y5626300D01*
X3448259D01*
X3458256Y5616303D01*
Y5606307D01*
X3448259Y5596310D01*
X3438262D01*
X3448259D01*
X3458256Y5586313D01*
Y5576317D01*
X3448259Y5566320D01*
X3428265D01*
X3418269Y5576317D01*
X3167951Y5615613D02*
X3157955Y5625610D01*
X3137961D01*
X3127965Y5615613D01*
Y5575626D01*
X3137961Y5565630D01*
X3157955D01*
X3167951Y5575626D01*
X3187945Y5565630D02*
X3207939D01*
X3197942D01*
Y5625610D01*
X3187945Y5615613D01*
X3277916Y5565630D02*
X3237929D01*
X3277916Y5605617D01*
Y5615613D01*
X3267919Y5625610D01*
X3247925D01*
X3237929Y5615613D01*
X2769008Y6420793D02*
X2759011Y6430790D01*
X2739018D01*
X2729021Y6420793D01*
Y6380806D01*
X2739018Y6370810D01*
X2759011D01*
X2769008Y6380806D01*
X2789002Y6370810D02*
X2808995D01*
X2798998D01*
Y6430790D01*
X2789002Y6420793D01*
X2838985Y6370810D02*
X2858979D01*
X2848982D01*
Y6430790D01*
X2838985Y6420793D01*
X2957131D02*
X2947135Y6430790D01*
X2927141D01*
X2917145Y6420793D01*
Y6380806D01*
X2927141Y6370810D01*
X2947135D01*
X2957131Y6380806D01*
X2977125Y6370810D02*
X2997119D01*
X2987122D01*
Y6430790D01*
X2977125Y6420793D01*
X3027109D02*
X3037105Y6430790D01*
X3057099D01*
X3067096Y6420793D01*
Y6380806D01*
X3057099Y6370810D01*
X3037105D01*
X3027109Y6380806D01*
Y6420793D01*
X2583343D02*
X2573347Y6430790D01*
X2553353D01*
X2543356Y6420793D01*
Y6380806D01*
X2553353Y6370810D01*
X2573347D01*
X2583343Y6380806D01*
X2603337D02*
X2613334Y6370810D01*
X2633327D01*
X2643324Y6380806D01*
Y6420793D01*
X2633327Y6430790D01*
X2613334D01*
X2603337Y6420793D01*
Y6410797D01*
X2613334Y6400800D01*
X2643324D01*
X3921923Y5290493D02*
X3911927Y5300490D01*
X3891933D01*
X3881936Y5290493D01*
Y5250506D01*
X3891933Y5240510D01*
X3911927D01*
X3921923Y5250506D01*
X3941917Y5290493D02*
X3951914Y5300490D01*
X3971907D01*
X3981904Y5290493D01*
Y5280497D01*
X3971907Y5270500D01*
X3981904Y5260503D01*
Y5250506D01*
X3971907Y5240510D01*
X3951914D01*
X3941917Y5250506D01*
Y5260503D01*
X3951914Y5270500D01*
X3941917Y5280497D01*
Y5290493D01*
X3951914Y5270500D02*
X3971907D01*
X4559463Y5293033D02*
X4549467Y5303030D01*
X4529473D01*
X4519476Y5293033D01*
Y5253046D01*
X4529473Y5243050D01*
X4549467D01*
X4559463Y5253046D01*
X4579457Y5303030D02*
X4619444D01*
Y5293033D01*
X4579457Y5253046D01*
Y5243050D01*
X3397353Y6479213D02*
X3387357Y6489210D01*
X3367363D01*
X3357366Y6479213D01*
Y6439226D01*
X3367363Y6429230D01*
X3387357D01*
X3397353Y6439226D01*
X3457334Y6489210D02*
X3437341Y6479213D01*
X3417347Y6459220D01*
Y6439226D01*
X3427344Y6429230D01*
X3447337D01*
X3457334Y6439226D01*
Y6449223D01*
X3447337Y6459220D01*
X3417347D01*
X1714663Y4650413D02*
X1704667Y4660410D01*
X1684673D01*
X1674676Y4650413D01*
Y4610426D01*
X1684673Y4600430D01*
X1704667D01*
X1714663Y4610426D01*
X1774644Y4660410D02*
X1734657D01*
Y4630420D01*
X1754651Y4640417D01*
X1764647D01*
X1774644Y4630420D01*
Y4610426D01*
X1764647Y4600430D01*
X1744654D01*
X1734657Y4610426D01*
X1948343Y4655493D02*
X1938347Y4665490D01*
X1918353D01*
X1908356Y4655493D01*
Y4615506D01*
X1918353Y4605510D01*
X1938347D01*
X1948343Y4615506D01*
X1998327Y4605510D02*
Y4665490D01*
X1968337Y4635500D01*
X2008324D01*
X3121823Y4655493D02*
X3111827Y4665490D01*
X3091833D01*
X3081836Y4655493D01*
Y4615506D01*
X3091833Y4605510D01*
X3111827D01*
X3121823Y4615506D01*
X3141817Y4655493D02*
X3151814Y4665490D01*
X3171807D01*
X3181804Y4655493D01*
Y4645497D01*
X3171807Y4635500D01*
X3161811D01*
X3171807D01*
X3181804Y4625503D01*
Y4615506D01*
X3171807Y4605510D01*
X3151814D01*
X3141817Y4615506D01*
X3385983Y4655493D02*
X3375987Y4665490D01*
X3355993D01*
X3345996Y4655493D01*
Y4615506D01*
X3355993Y4605510D01*
X3375987D01*
X3385983Y4615506D01*
X3445964Y4605510D02*
X3405977D01*
X3445964Y4645497D01*
Y4655493D01*
X3435967Y4665490D01*
X3415974D01*
X3405977Y4655493D01*
D75*
X1636576Y482927D02*
Y522914D01*
X1656570D01*
X1663234Y516249D01*
Y502920D01*
X1656570Y496256D01*
X1636576D01*
X1649905D02*
X1663234Y482927D01*
X1676563D02*
X1689892D01*
X1683228D01*
Y522914D01*
X1676563Y516249D01*
X1736544Y522914D02*
X1709886D01*
Y502920D01*
X1723215Y509585D01*
X1729879D01*
X1736544Y502920D01*
Y489591D01*
X1729879Y482927D01*
X1716550D01*
X1709886Y489591D01*
%TF.MD5,298b61c3f8b09cfdf07b7d9ab16e54b4*%
M02*
