%TF.GenerationSoftware,Altium Limited,Altium Designer,24.9.1 (31)*%
G04 Layer_Color=0*
%FSLAX45Y45*%
%MOMM*%
%TF.SameCoordinates,27D3D336-BC1F-43B1-B9D8-2BE266924E3D*%
%TF.FilePolarity,Positive*%
%TF.FileFunction,NonPlated,1,2,NPTH,Drill*%
%TF.Part,Single*%
G01*
G75*
G36*
X6219520Y2159000D02*
Y2712720D01*
X6281420D01*
Y2159000D01*
X6219520D01*
D02*
G37*
G36*
Y3385820D02*
Y3939540D01*
X6281420D01*
Y3385820D01*
X6219520D01*
D02*
G37*
G36*
Y4612640D02*
Y5166360D01*
X6281420D01*
Y4612640D01*
X6219520D01*
D02*
G37*
G36*
X8211896Y848360D02*
X8321040D01*
Y1544320D01*
X8211896D01*
Y848360D01*
D02*
G37*
G36*
X8212173Y4569759D02*
X8321317D01*
Y5265719D01*
X8212173D01*
Y4569759D01*
D02*
G37*
G36*
Y3347720D02*
X8321317D01*
Y4043680D01*
X8212173D01*
Y3347720D01*
D02*
G37*
G36*
X8223288Y2067560D02*
X8332432D01*
Y2763520D01*
X8223288D01*
Y2067560D01*
D02*
G37*
G36*
X6219520Y5839460D02*
Y6380480D01*
X6281420D01*
Y5839460D01*
X6219520D01*
D02*
G37*
G36*
X8223288Y5783580D02*
X8332432D01*
Y6479540D01*
X8223288D01*
Y5783580D01*
D02*
G37*
%TF.MD5,07a05afb99d019cc2cd32a97222c073e*%
M02*
