%TF.GenerationSoftware,Altium Limited,Altium Designer,24.9.1 (31)*%
G04 Layer_Color=0*
%FSLAX45Y45*%
%MOMM*%
%TF.SameCoordinates,27D3D336-BC1F-43B1-B9D8-2BE266924E3D*%
%TF.FilePolarity,Positive*%
%TF.FileFunction,Plated,1,2,PTH,Drill*%
%TF.Part,Single*%
G01*
G75*
%TA.AperFunction,ComponentDrill*%
%ADD119O,2.54000X1.27000*%
%ADD120O,1.27000X2.54000*%
%ADD121C,1.00000*%
%ADD122C,1.20000*%
%ADD123O,0.85000X1.40000*%
%ADD124O,0.55000X1.20000*%
%ADD125C,0.80000*%
%ADD126C,1.00000*%
%ADD127C,1.14300*%
%ADD128C,1.60000*%
%TA.AperFunction,OtherDrill,Pad Free-2 (74.524mm,10.389mm)*%
%ADD129C,3.20000*%
%TA.AperFunction,ViaDrill,NotFilled*%
%ADD130C,0.25400*%
%ADD131C,0.30000*%
D119*
X988060Y5654040D02*
D03*
D120*
X607060Y6162040D02*
D03*
X1242060D02*
D03*
D121*
X7457440Y4683615D02*
D03*
Y5143615D02*
D03*
X8607440Y1328996D02*
D03*
X9115440Y1100396D02*
D03*
X7457440Y2679721D02*
D03*
Y2219721D02*
D03*
Y3912801D02*
D03*
Y3452801D02*
D03*
Y6374429D02*
D03*
Y5914429D02*
D03*
D122*
X8607440Y4683615D02*
D03*
X9307440D02*
D03*
Y2219721D02*
D03*
X8607440D02*
D03*
X9307440Y3452801D02*
D03*
X8607440D02*
D03*
X9307440Y5914429D02*
D03*
X8607440D02*
D03*
D123*
X253852Y541760D02*
D03*
X998852D02*
D03*
D124*
X238852Y161760D02*
D03*
X1013852D02*
D03*
D125*
X376352Y436761D02*
D03*
X876352D02*
D03*
X6054139Y946343D02*
D03*
X6254139D02*
D03*
X6454139D02*
D03*
X6050940Y1412240D02*
D03*
X6250940D02*
D03*
X6450940D02*
D03*
D126*
X2288540Y3482340D02*
D03*
Y3228340D02*
D03*
Y2720340D02*
D03*
Y2974340D02*
D03*
X6556980Y437459D02*
D03*
X6302980D02*
D03*
X6048980D02*
D03*
D127*
X1678940Y4373880D02*
D03*
Y4119880D02*
D03*
Y3865880D02*
D03*
Y3611880D02*
D03*
Y3357880D02*
D03*
Y3103880D02*
D03*
Y2849880D02*
D03*
Y2595880D02*
D03*
D128*
X9667602Y1308995D02*
D03*
Y927995D02*
D03*
Y2221988D02*
D03*
Y2602988D02*
D03*
X9670641Y5914429D02*
D03*
Y6295429D02*
D03*
Y4683615D02*
D03*
Y5064615D02*
D03*
X9667602Y3452801D02*
D03*
Y3833801D02*
D03*
D129*
X7452360Y1038860D02*
D03*
D130*
X5036820Y4508500D02*
D03*
X5189220Y2984500D02*
D03*
Y2374900D02*
D03*
X5036820Y2070100D02*
D03*
X5189220Y546100D02*
D03*
X5036820Y241300D02*
D03*
X4732020Y4508500D02*
D03*
X4884420Y3594100D02*
D03*
Y2984500D02*
D03*
Y2374900D02*
D03*
Y1765300D02*
D03*
X4732020Y1460500D02*
D03*
X4884420Y1155700D02*
D03*
X4732020Y241300D02*
D03*
X4427220Y4508500D02*
D03*
Y2679700D02*
D03*
X4579620Y1155700D02*
D03*
X4427220Y241300D02*
D03*
X4274820Y6032500D02*
D03*
Y5422900D02*
D03*
X4122420Y2679700D02*
D03*
X4274820Y1765300D02*
D03*
X4122420Y850900D02*
D03*
Y241300D02*
D03*
X3817620Y6337300D02*
D03*
X3970020Y5422900D02*
D03*
X3817620Y5118100D02*
D03*
Y4508500D02*
D03*
Y241300D02*
D03*
X3512820Y5727700D02*
D03*
Y4508500D02*
D03*
X3208020Y6337300D02*
D03*
X3360420Y6032500D02*
D03*
X3208020Y5118100D02*
D03*
Y4508500D02*
D03*
X3360420Y1765300D02*
D03*
X2903220Y6337300D02*
D03*
Y5118100D02*
D03*
Y4508500D02*
D03*
Y3898900D02*
D03*
Y1460500D02*
D03*
Y850900D02*
D03*
X3055620Y546100D02*
D03*
X2750820Y4203700D02*
D03*
X2598420Y3898900D02*
D03*
Y2070100D02*
D03*
X2750820Y1765300D02*
D03*
Y546100D02*
D03*
X2293620Y5727700D02*
D03*
Y5118100D02*
D03*
Y4508500D02*
D03*
X2446020Y4203700D02*
D03*
Y1765300D02*
D03*
X2293620Y850900D02*
D03*
X1988820Y6337300D02*
D03*
Y5727700D02*
D03*
X2141220Y5422900D02*
D03*
X1988820Y5118100D02*
D03*
X2141220Y4813300D02*
D03*
X1988820Y4508500D02*
D03*
Y3289300D02*
D03*
X2141220Y2984500D02*
D03*
X1988820Y2679700D02*
D03*
X2141220Y1155700D02*
D03*
Y546100D02*
D03*
X1836420Y5422900D02*
D03*
X1684020Y4508500D02*
D03*
X1836420Y1155700D02*
D03*
X1684020Y241300D02*
D03*
X1379220Y5727700D02*
D03*
Y5118100D02*
D03*
X1531620Y1155700D02*
D03*
X1226820Y5422900D02*
D03*
X1074420Y5118100D02*
D03*
Y4508500D02*
D03*
Y3898900D02*
D03*
Y3289300D02*
D03*
Y2679700D02*
D03*
Y2070100D02*
D03*
Y850900D02*
D03*
X769620Y6337300D02*
D03*
X922020Y6032500D02*
D03*
Y5422900D02*
D03*
X769620Y5118100D02*
D03*
X922020Y4813300D02*
D03*
Y4203700D02*
D03*
X769620Y3898900D02*
D03*
Y3289300D02*
D03*
X922020Y2984500D02*
D03*
Y2374900D02*
D03*
X769620Y2070100D02*
D03*
X922020Y1155700D02*
D03*
X769620Y241300D02*
D03*
X464820Y6337300D02*
D03*
Y5727700D02*
D03*
X617220Y5422900D02*
D03*
X464820Y5118100D02*
D03*
X617220Y4813300D02*
D03*
Y4203700D02*
D03*
X464820Y3898900D02*
D03*
Y3289300D02*
D03*
X617220Y2984500D02*
D03*
Y2374900D02*
D03*
X464820Y2070100D02*
D03*
Y241300D02*
D03*
X160020Y6337300D02*
D03*
X312420Y6032500D02*
D03*
X160020Y5727700D02*
D03*
X312420Y5422900D02*
D03*
X160020Y5118100D02*
D03*
X312420Y4813300D02*
D03*
Y4203700D02*
D03*
X160020Y3898900D02*
D03*
Y3289300D02*
D03*
X312420Y2984500D02*
D03*
Y2374900D02*
D03*
X160020Y2070100D02*
D03*
Y1460500D02*
D03*
Y850900D02*
D03*
X7739380Y5377180D02*
D03*
X7741920Y4157980D02*
D03*
Y1709420D02*
D03*
Y2923540D02*
D03*
X3550920Y3225800D02*
D03*
X3716020Y3479800D02*
D03*
X3606800Y2504440D02*
D03*
X5631180Y5539740D02*
D03*
X3393440Y2280920D02*
D03*
X3733800Y2075180D02*
D03*
X3905184Y2133405D02*
D03*
X3841905Y2345535D02*
D03*
X3256590Y2399396D02*
D03*
X3097950Y1942250D02*
D03*
X3060500Y2399396D02*
D03*
X4222750Y3616960D02*
D03*
X3799840Y3500120D02*
D03*
X3088640Y4038600D02*
D03*
X3528060Y3314700D02*
D03*
X3855720Y3225800D02*
D03*
Y3317240D02*
D03*
X746760Y1351280D02*
D03*
X5806440Y5857240D02*
D03*
X3727049Y1251888D02*
D03*
X3797300Y1239520D02*
D03*
X4165600Y1203960D02*
D03*
X3449320Y1424940D02*
D03*
X2801620Y2095500D02*
D03*
X1463040Y1122680D02*
D03*
X2125980Y2204720D02*
D03*
X5628640Y977900D02*
D03*
X3937000Y3949700D02*
D03*
X4488180Y3512820D02*
D03*
X5146040Y1612900D02*
D03*
X5151280Y406560D02*
D03*
X4043680Y586740D02*
D03*
X3501072Y4086167D02*
D03*
X3591560Y4025900D02*
D03*
X3408680Y4084320D02*
D03*
X3086100Y1112520D02*
D03*
X1953260Y721360D02*
D03*
X4002174Y2133405D02*
D03*
X4124960Y2565400D02*
D03*
X4099163Y2133405D02*
D03*
X3337560Y1938020D02*
D03*
X3261360Y3037840D02*
D03*
X1518920Y2171700D02*
D03*
X2679700Y2921000D02*
D03*
X1287780Y3995936D02*
D03*
X2996878Y5948680D02*
D03*
X6051600Y1530400D02*
D03*
X1478280Y2352040D02*
D03*
X1795780D02*
D03*
X1287780Y1939364D02*
D03*
X1290244Y4910583D02*
D03*
X1856740Y1873258D02*
D03*
X5669280Y2296160D02*
D03*
X2144910Y369680D02*
D03*
X2337927Y148447D02*
D03*
X1991360Y929640D02*
D03*
X1210276Y1720816D02*
D03*
X1463040Y1803400D02*
D03*
X2256361Y1661160D02*
D03*
X1282700Y3091180D02*
D03*
X3914140Y447040D02*
D03*
X3446780Y1798320D02*
D03*
X3637280Y3746500D02*
D03*
X5674360Y3520440D02*
D03*
X5801360Y4655820D02*
D03*
X1975581Y2144299D02*
D03*
X2321560Y1455420D02*
D03*
X4378960Y3670300D02*
D03*
X4368131Y3564289D02*
D03*
X1861820Y1432560D02*
D03*
X1734820Y1430020D02*
D03*
X485140Y1168400D02*
D03*
X746760D02*
D03*
X3255880Y1743207D02*
D03*
X3027950D02*
D03*
X3280912Y527250D02*
D03*
X3149600Y2921000D02*
D03*
X2570480Y2438400D02*
D03*
X4495800Y3611880D02*
D03*
X3449320Y1549400D02*
D03*
D131*
X4667400Y1064560D02*
D03*
X4457400Y994560D02*
D03*
X4597400D02*
D03*
X4737400D02*
D03*
X4527400Y1064560D02*
D03*
X4457400Y854560D02*
D03*
X4597400D02*
D03*
X4737400D02*
D03*
X4667400Y924560D02*
D03*
X4527400D02*
D03*
Y784560D02*
D03*
X4667400D02*
D03*
%TF.MD5,c90287a2a75504e081d035530541272c*%
M02*
